<?xml version="1.0" encoding="UTF-8" standalone="no"?>
<!-- Created with Inkscape (http://www.inkscape.org/) -->

<svg
   xmlns:dc="http://purl.org/dc/elements/1.1/"
   xmlns:cc="http://creativecommons.org/ns#"
   xmlns:rdf="http://www.w3.org/1999/02/22-rdf-syntax-ns#"
   xmlns:svg="http://www.w3.org/2000/svg"
   xmlns="http://www.w3.org/2000/svg"
   xmlns:sodipodi="http://sodipodi.sourceforge.net/DTD/sodipodi-0.dtd"
   xmlns:inkscape="http://www.inkscape.org/namespaces/inkscape"
   width="210mm"
   height="297mm"
   viewBox="0 0 210 297"
   version="1.1"
   id="svg8"
   inkscape:version="0.92.5 (2060ec1f9f, 2020-04-08)"
   sodipodi:docname="Zeichnung.svg">
  <defs
     id="defs2" />
  <sodipodi:namedview
     id="base"
     pagecolor="#ffffff"
     bordercolor="#666666"
     borderopacity="1.0"
     inkscape:pageopacity="0.0"
     inkscape:pageshadow="2"
     inkscape:zoom="0.35"
     inkscape:cx="400"
     inkscape:cy="560"
     inkscape:document-units="mm"
     inkscape:current-layer="layer1"
     showgrid="false"
     inkscape:window-width="1868"
     inkscape:window-height="1009"
     inkscape:window-x="52"
     inkscape:window-y="34"
     inkscape:window-maximized="1" />
  <metadata
     id="metadata5">
    <rdf:RDF>
      <cc:Work
         rdf:about="">
        <dc:format>image/svg+xml</dc:format>
        <dc:type
           rdf:resource="http://purl.org/dc/dcmitype/StillImage" />
        <dc:title></dc:title>
      </cc:Work>
    </rdf:RDF>
  </metadata>
  <g
     inkscape:label="Ebene 1"
     inkscape:groupmode="layer"
     id="layer1">
    <path
       style="fill:#000000;stroke-width:0.25918368"
       d="m 84.00928,205.75892 c -12.63721,-1.34346 -22.33914,-5.16263 -28.796241,-11.33566 -3.227841,-3.08584 -4.730882,-5.11124 -6.586924,-8.87614 -2.672357,-5.42076 -3.807137,-10.90998 -3.536324,-17.10612 0.174559,-3.99388 0.632779,-5.99165 2.035534,-8.87462 1.875819,-3.85522 4.284046,-5.88897 11.695345,-9.87673 7.32843,-3.94318 9.09186,-5.27276 11.64986,-8.78373 2.69642,-3.70097 4.0548,-5.2352 5.72399,-6.465 3.50112,-2.57951 6.3941,-3.48297 11.18415,-3.49273 3.65491,-0.007 5.91601,0.35708 13.24358,2.13514 4.29604,1.04244 6.03643,1.34422 8.40654,1.45765 2.90223,0.1389 3.07885,0.11543 6.09082,-0.80943 14.22236,-4.36717 27.46372,-1.34372 38.06806,8.69221 6.73317,6.37226 11.43086,14.52586 13.10653,22.7485 1.66342,8.16255 0.32367,18.67981 -3.23081,25.36239 -3.3021,6.20809 -7.76366,9.57183 -14.37333,10.83663 -3.91004,0.7482 -8.06017,0.4356 -14.35926,-1.0816 -3.17514,-0.76477 -4.44905,-0.94936 -6.64907,-0.9635 -3.36734,-0.0216 -5.03328,0.417 -11.66327,3.07094 -5.65872,2.26514 -8.6959,3.10749 -12.55062,3.48086 -3.77812,0.36596 -15.57526,0.29378 -19.45856,-0.11906 z m 16.32857,-5.29719 c 5.37838,-0.31908 7.22339,-0.76549 13.49478,-3.26517 3.00304,-1.19697 6.73303,-2.48307 8.28886,-2.85801 2.56162,-0.61731 3.17196,-0.66976 6.46237,-0.55529 3.07794,0.10708 4.20828,0.27319 7.39175,1.08626 3.06526,0.78288 4.39215,0.9859 7.19679,1.10115 3.9838,0.16371 6.16875,-0.22773 8.743,-1.56635 1.55715,-0.80973 4.68066,-3.64556 5.30111,-4.81288 0.32698,-0.61518 0.32059,-0.61947 -0.68443,-0.45876 -2.36167,0.37765 -5.92345,-0.82187 -7.6113,-2.56328 l -0.8299,-0.85624 -1.63089,1.25002 c -2.39329,1.83436 -5.08115,2.5633 -7.6702,2.08014 -1.77374,-0.331 -4.28951,-1.55894 -5.25185,-2.56341 l -0.74805,-0.78079 -1.13729,1.00109 c -3.7605,3.31012 -9.78213,3.24729 -13.06162,-0.13629 l -0.8352,-0.86171 -1.05516,0.90318 c -4.05365,3.46976 -9.81185,3.43282 -13.33019,-0.0855 -1.36877,-1.36877 -2.76625,-4.18416 -2.5047,-5.04603 0.32767,-1.07976 1.17421,-1.75835 2.19355,-1.75835 1.05037,0 1.71036,0.55578 2.46225,2.07347 0.56904,1.14862 1.3605,2.02147 2.25498,2.48687 1.03256,0.53724 3.40501,0.46225 4.59586,-0.14528 1.03766,-0.52938 2.86854,-2.45458 2.86854,-3.01632 0,-0.17723 0.30195,-0.68108 0.671,-1.11967 0.90629,-1.07707 2.41744,-1.12729 3.35873,-0.11163 0.34957,0.37719 0.63558,0.82622 0.63558,0.99784 0,0.64343 1.57565,2.45348 2.71907,3.12357 1.02819,0.60256 1.40461,0.681 2.83173,0.59013 2.14306,-0.13646 3.51355,-1.00737 4.49594,-2.85706 0.99388,-1.87132 1.69399,-2.54029 2.65852,-2.54029 1.19245,0 1.73908,0.39758 2.4351,1.7711 1.21593,2.39952 3.0601,3.67176 5.3224,3.67176 2.11414,0 3.95802,-1.1971 4.99022,-3.2398 0.80608,-1.59519 1.47746,-2.20306 2.43325,-2.20306 1.29763,0 1.63586,0.22739 2.30633,1.5505 0.34187,0.67464 0.9343,1.59826 1.3165,2.05249 2.74394,3.26098 8.3305,1.95801 9.17181,-2.13919 0.85468,-4.16228 1.03012,-9.85954 0.40823,-13.25666 -1.24769,-6.81561 -4.37249,-13.00004 -9.40697,-18.61772 -7.28097,-8.12442 -16.88948,-12.15247 -26.92838,-11.28883 -2.99468,0.25763 -4.83864,0.64788 -8.52202,1.80357 -3.09482,0.97102 -6.31729,1.23282 -9.48088,0.77024 -1.18781,-0.17368 -4.84505,-0.94169 -8.12719,-1.70669 -9.24728,-2.15534 -12.46097,-2.38285 -15.85734,-1.12262 -2.77574,1.02996 -4.59275,2.63509 -7.15104,6.31716 -1.32085,1.90106 -3.83739,4.59073 -5.76732,6.16411 -1.34238,1.09437 -3.52159,2.39835 -7.92241,4.74056 -5.04597,2.68557 -6.783907,3.81968 -8.120494,5.29912 -1.250808,1.3845 -2.374567,3.79742 -2.744216,5.89236 -0.252548,1.43128 -0.231615,1.69582 0.179151,2.26409 0.255811,0.35389 0.970659,0.89358 1.58855,1.19931 0.923648,0.457 1.424647,0.53168 2.817159,0.4199 2.07442,-0.16651 3.44212,-1.02281 4.66439,-2.92031 1.52218,-2.36308 1.73518,-2.55772 2.79909,-2.55772 1.06392,0 1.27692,0.19464 2.7991,2.55772 1.13965,1.76924 2.56865,2.71921 4.37008,2.90513 2.64598,0.27309 4.76475,-0.93112 6.12344,-3.48029 0.62209,-1.16716 1.04186,-1.64183 1.63464,-1.84848 1.22019,-0.42536 2.30952,0.14455 3.05802,1.59988 1.24383,2.4184 3.25054,3.79635 5.54397,3.80688 2.25041,0.0103 4.36236,-1.37918 5.49575,-3.61582 0.77354,-1.52652 1.25951,-1.92502 2.34756,-1.92502 1.05951,0 1.81299,0.63593 2.51123,2.11944 2.04653,4.34811 8.01947,4.52328 10.48851,0.30758 1.36425,-2.32935 1.87316,-2.66853 3.4006,-2.26642 1.22796,0.32326 1.73721,1.56699 1.23012,3.00424 -2.3734,6.72694 -11.21043,9.05138 -16.44214,4.32485 l -1.07078,-0.96739 -0.93599,0.74324 c -2.57657,2.04599 -4.35548,2.72623 -7.1067,2.71753 -2.62169,-0.008 -5.01084,-0.94449 -6.9134,-2.70907 l -0.8313,-0.77101 -1.00562,0.90851 c -3.75713,3.39434 -9.78843,3.42905 -13.498,0.0777 -0.95406,-0.86195 -1.12383,-0.92905 -1.55071,-0.61293 -0.26366,0.19524 -0.9753,0.73025 -1.58144,1.1889 -2.39555,1.81269 -6.331511,2.46947 -9.050033,1.51016 -0.623764,-0.22011 -1.158465,-0.4002 -1.188225,-0.4002 -0.161228,0 0.459687,3.50974 0.916219,5.17897 1.808436,6.61218 6.081419,12.01377 12.551019,15.86607 8.05803,4.79812 21.23296,7.05844 36.02653,6.18079 z m -8.81224,-43.29934 c -2.10288,-0.66716 -4.32861,-2.50973 -5.60894,-4.64337 -1.15614,-1.92668 -1.30553,-3.22096 -0.4747,-4.11275 1.26023,-1.3527 2.85067,-0.88846 3.94598,1.1518 2.11284,3.93567 6.16007,4.88068 9.13977,2.13409 0.61391,-0.56589 1.34978,-1.52581 1.63527,-2.13316 0.67702,-1.44029 1.1945,-1.84092 2.37792,-1.84092 1.18342,0 1.70091,0.40063 2.37793,1.84092 0.28548,0.60735 1.02136,1.56727 1.63527,2.13316 2.9797,2.74659 7.02693,1.80158 9.13977,-2.13409 1.33311,-2.48323 3.26551,-2.60654 4.52107,-0.28849 1.3032,2.40597 2.84005,3.62309 4.93795,3.91064 2.3817,0.32645 4.72293,-1.07451 6.11058,-3.65648 1.0772,-2.00435 2.67706,-2.45955 3.9274,-1.11747 0.80577,0.86489 0.67846,2.18204 -0.38472,3.98059 -3.46084,5.85453 -11.12262,7.05006 -16.00147,2.49683 l -0.71276,-0.66518 -0.71275,0.66518 c -1.86015,1.736 -4.54585,2.80119 -7.06276,2.80119 -2.5169,0 -5.20261,-1.06519 -7.06275,-2.80119 l -0.71276,-0.66518 -0.71275,0.66518 c -2.72501,2.54314 -6.69875,3.42204 -10.30255,2.2787 z m -29.29954,-22.14431 -0.63618,-0.63617 v -6.59572 -6.59572 l -1.74949,-0.5402 c -0.96222,-0.29711 -2.44928,-0.93754 -3.30459,-1.42317 l -1.5551,-0.88296 -3.906606,3.86017 c -3.573629,3.53114 -3.985878,3.86016 -4.836654,3.86016 -0.727028,0 -1.081533,-0.18003 -1.62401,-0.82473 -1.167747,-1.38779 -0.877662,-1.91447 3.435252,-6.23708 l 3.813437,-3.82201 -0.465991,-0.7137 c -0.790086,-1.21008 -1.934977,-3.79672 -2.122185,-4.79463 l -0.178017,-0.94891 -6.685485,-0.0769 c -6.082426,-0.07 -6.733329,-0.12026 -7.215882,-0.55737 -1.307255,-1.18414 -0.785033,-3.30602 0.930944,-3.78257 0.540312,-0.15005 3.567624,-0.27044 6.820562,-0.27125 l 5.849039,-0.001 0.443684,-1.87909 c 0.244026,-1.03349 0.914032,-2.745189 1.488902,-3.803789 l 1.045219,-1.92471 -3.759242,-3.77733 c -2.230594,-2.24132 -3.82697,-4.05734 -3.925796,-4.46594 -0.316158,-1.30715 0.737131,-2.52945 2.191325,-2.54294 0.801692,-0.007 1.269145,0.36945 4.794898,3.86589 l 3.906606,3.87413 1.3849,-0.87549 c 0.7617,-0.48152 2.24877,-1.14364 3.3046,-1.47139 l 1.91968,-0.5959 v -6.51473 c 0,-6.198316 0.0261,-6.547892 0.53718,-7.197636 0.38909,-0.49464 0.77624,-0.682913 1.40431,-0.682913 2.34049,0 2.46464,0.40449 2.46464,8.029959 0,4.77297 0.0762,6.26231 0.32398,6.33024 0.17818,0.0489 0.95974,0.23693 1.73679,0.41794 1.53761,0.3582 3.57395,1.22364 4.81911,2.04812 l 0.78906,0.52248 3.873,-3.87947 c 3.5388,-3.54471 3.95156,-3.87876 4.78339,-3.87123 0.50071,0.004 1.1099,0.15983 1.35376,0.3451 0.6,0.45585 1.03149,1.66594 0.83351,2.33752 -0.089,0.30192 -1.86874,2.26884 -3.95496,4.37094 l -3.79315,3.82201 0.46508,0.71371 c 0.87862,1.34834 1.73037,3.354919 2.15571,5.078499 l 0.42593,1.72602 5.85919,0.002 c 3.25997,7.8e-4 6.29017,0.12114 6.83071,0.27125 1.89679,0.52677 2.27471,2.88537 0.62364,3.89212 -0.74794,0.45607 -1.35897,0.49864 -7.17085,0.49952 l -6.35324,0.001 -0.48456,1.69199 c -0.26651,0.93059 -0.87738,2.34431 -1.35748,3.1416 -0.4801,0.79729 -0.87291,1.52155 -0.87291,1.60947 0,0.0879 1.7145,1.87721 3.81,3.97621 3.4588,3.46457 3.81,3.90022 3.81,4.72615 0,1.2538 -0.93074,2.21988 -2.13868,2.21988 -0.8212,0 -1.28097,-0.36685 -4.81451,-3.84161 l -3.90661,-3.84179 -2.20306,1.1339 c -1.21872,0.62727 -2.92684,1.27007 -3.82296,1.43867 l -1.61989,0.30477 v 6.30774 c 0,6.39825 -0.0841,7.04158 -1.01428,7.75572 -0.70851,0.54398 -2.05641,0.39531 -2.75567,-0.30396 z m 5.77582,-18.85646 c 7.35417,-2.70599 9.68562,-12.01594 4.43546,-17.711689 -4.20916,-4.5664 -10.99276,-4.84085 -15.59891,-0.63109 -5.186301,4.739989 -4.503787,13.177389 1.38667,17.142389 2.89955,1.95175 6.52503,2.39688 9.77678,1.20039 z"
       id="path75"
       inkscape:connector-curvature="0" />
  </g>
</svg>
