<?xml version="1.0" encoding="UTF-8" standalone="no"?>
<!-- Created with Inkscape (http://www.inkscape.org/) -->

<svg
   xmlns:dc="http://purl.org/dc/elements/1.1/"
   xmlns:cc="http://creativecommons.org/ns#"
   xmlns:rdf="http://www.w3.org/1999/02/22-rdf-syntax-ns#"
   xmlns:svg="http://www.w3.org/2000/svg"
   xmlns="http://www.w3.org/2000/svg"
   xmlns:sodipodi="http://sodipodi.sourceforge.net/DTD/sodipodi-0.dtd"
   xmlns:inkscape="http://www.inkscape.org/namespaces/inkscape"
   width="210mm"
   height="297mm"
   viewBox="0 0 210 297"
   version="1.1"
   id="svg102"
   inkscape:version="0.92.5 (2060ec1f9f, 2020-04-08)"
   sodipodi:docname="badewanne.svg">
  <defs
     id="defs96" />
  <sodipodi:namedview
     id="base"
     pagecolor="#ffffff"
     bordercolor="#666666"
     borderopacity="1.0"
     inkscape:pageopacity="0.0"
     inkscape:pageshadow="2"
     inkscape:zoom="0.35"
     inkscape:cx="400"
     inkscape:cy="560"
     inkscape:document-units="mm"
     inkscape:current-layer="layer1"
     showgrid="false"
     inkscape:window-width="1868"
     inkscape:window-height="1009"
     inkscape:window-x="52"
     inkscape:window-y="34"
     inkscape:window-maximized="1" />
  <metadata
     id="metadata99">
    <rdf:RDF>
      <cc:Work
         rdf:about="">
        <dc:format>image/svg+xml</dc:format>
        <dc:type
           rdf:resource="http://purl.org/dc/dcmitype/StillImage" />
        <dc:title></dc:title>
      </cc:Work>
    </rdf:RDF>
  </metadata>
  <g
     inkscape:label="Ebene 1"
     inkscape:groupmode="layer"
     id="layer1">
    <path
       style="fill:#000000;stroke-width:0.12574257"
       d="m 77.047993,184.45272 c -0.63968,-0.37497 -0.9184,-0.81994 -0.98017,-1.56484 -0.0732,-0.88243 0.15538,-1.31511 1.29012,-2.44227 l 0.93523,-0.929 -1.3663,-0.45701 c -1.73718,-0.58106 -3.15399,-1.43051 -4.49871,-2.69722 -1.28738,-1.21269 -1.99501,-2.18187 -2.73753,-3.74934 -1.04012,-2.19572 -1.09567,-2.55932 -1.15913,-7.5873 l -0.0557,-4.41301 -0.49178,-0.21698 c -0.78898,-0.3481 -1.82378,-1.38318 -2.25162,-2.25224 -1.05374,-2.14046 -0.68695,-4.45065 0.96893,-6.10282 0.77128,-0.76956 1.75823,-1.31449 2.64493,-1.46038 l 0.5344,-0.0879 0.002,-8.94811 c 0.002,-7.36702 0.0347,-9.10363 0.18635,-9.8283 0.23561,-1.12605 1.02063,-2.70909 1.75846,-3.54602 0.77463,-0.87868 2.19779,-1.80864 3.34052,-2.18286 0.82969,-0.27171 1.15949,-0.30676 2.88576,-0.30676 1.70494,0 2.05333,0.0361 2.78209,0.28795 0.96902,0.33494 2.13821,1.00835 2.71412,1.56323 l 0.40364,0.3889 0.99008,-0.45257 c 1.77268,-0.81032 3.54017,-0.91067 5.23082,-0.297 1.13006,0.41019 1.89654,0.93342 2.93264,2.00195 1.05256,1.08552 1.27395,1.61331 1.04243,2.48528 -0.13291,0.50058 -0.6377,1.05247 -4.69589,5.13401 -2.50083,2.51523 -4.79852,4.73616 -5.10599,4.9354 -0.62484,0.4049 -1.27035,0.46908 -1.92843,0.19171 -0.57762,-0.24345 -2.21929,-2.02024 -2.68884,-2.91015 -1.29703,-2.4582 -1.01334,-5.41008 0.73039,-7.60012 0.48837,-0.61336 0.5038,-0.65834 0.30225,-0.88105 -0.11682,-0.12908 -0.50543,-0.36586 -0.86358,-0.52618 -0.54275,-0.24296 -0.86056,-0.291 -1.9086,-0.28852 -1.51393,0.004 -2.15513,0.24166 -3.00447,1.11557 -1.0584,1.08901 -1.0193,0.67632 -1.0193,10.75802 v 8.86485 l 25.77723,0.0629 c 21.786267,0.0531 25.845367,0.0903 26.217327,0.2402 1.29769,0.52288 2.45215,1.58116 2.9781,2.72999 0.70002,1.52905 0.67022,3.12015 -0.0873,4.65883 -0.42783,0.86906 -1.46263,1.90414 -2.25162,2.25224 l -0.49177,0.21698 -0.0557,4.41301 c -0.0635,5.02798 -0.11901,5.39158 -1.15913,7.5873 -0.74252,1.56747 -1.45015,2.53665 -2.73753,3.74934 -1.34472,1.26671 -2.76153,2.11616 -4.49871,2.69722 l -1.3663,0.45701 0.93523,0.929 c 0.51439,0.51095 1.02725,1.12288 1.1397,1.35985 0.26282,0.55386 0.1877,1.61055 -0.14663,2.0625 -0.55733,0.75341 -1.62592,1.04338 -2.47899,0.67269 -0.22255,-0.0967 -1.45086,-1.22838 -2.72959,-2.51485 l -2.32496,-2.33903 H 97.292343 83.898213 l -2.32496,2.33903 c -1.27873,1.28647 -2.50704,2.41815 -2.72959,2.51485 -0.57133,0.24826 -1.28167,0.21348 -1.79587,-0.0879 z m 39.043067,-9.11856 c 1.50317,-0.51914 2.42811,-1.09192 3.53138,-2.18688 0.92029,-0.91335 1.70119,-2.23934 2.07295,-3.51992 0.24639,-0.8487 0.27997,-1.32366 0.33563,-4.74678 l 0.0619,-3.80371 H 97.292543 72.492213 l 0.0618,3.80371 c 0.0704,4.33165 0.17062,4.91855 1.12636,6.59852 0.50261,0.88346 1.66045,2.165 2.42462,2.68363 0.99015,0.67202 2.40041,1.2304 3.58354,1.4189 0.1729,0.0275 8.26444,0.0418 17.98119,0.0316 17.521077,-0.0183 17.673057,-0.0207 18.421287,-0.27905 z m 8.8552,-18.73233 c 0.32212,-0.27105 0.38688,-0.4165 0.38688,-0.86902 0,-0.45252 -0.0648,-0.59797 -0.38688,-0.86902 l -0.38687,-0.32553 H 97.292543 70.025703 l -0.38687,0.32553 c -0.32212,0.27105 -0.38688,0.4165 -0.38688,0.86902 0,0.45252 0.0648,0.59797 0.38688,0.86902 l 0.38687,0.32553 h 27.26684 27.266847 z M 88.959873,131.06352 c -0.38596,-0.21444 -1.64141,-0.20389 -2.1731,0.0183 -0.56712,0.23696 -3.0013,2.60384 -3.43256,3.33766 -0.26182,0.44551 -0.33169,0.72629 -0.32854,1.3203 0.002,0.41495 0.0788,0.8894 0.17022,1.05432 0.1632,0.29443 0.21961,0.24652 3.10545,-2.63736 2.81425,-2.81234 2.92729,-2.94386 2.65853,-3.09318 z m 1.56251,14.62077 c -0.87253,-0.90865 -0.96838,-1.27436 -0.46575,-1.777 0.48421,-0.4842 0.93594,-0.40879 1.70772,0.28511 1.01963,0.91674 1.225,1.78377 0.51278,2.16494 -0.57817,0.30943 -0.94726,0.16786 -1.75475,-0.67305 z m 3.97856,0.0566 c -0.84211,-0.86595 -0.94399,-1.31016 -0.42055,-1.83361 0.53059,-0.53058 0.97894,-0.42435 1.83905,0.43576 0.63145,0.63145 0.74439,0.81269 0.74439,1.19455 0,0.5995 -0.35927,0.95313 -0.96833,0.95313 -0.40312,0 -0.56292,-0.10031 -1.19456,-0.74983 z m -5.19305,-3.32437 c -0.44121,-0.19213 -1.37808,-1.17201 -1.50604,-1.57518 -0.12836,-0.40441 0.15152,-0.97029 0.56449,-1.14135 0.19644,-0.0814 0.48275,-0.10809 0.63623,-0.0594 0.4174,0.13248 1.38764,1.07263 1.58049,1.53146 0.36374,0.86548 -0.41044,1.621 -1.27517,1.24444 z m 4.01984,-7.5e-4 c -0.51958,-0.22495 -1.56786,-1.41199 -1.56786,-1.77539 0,-0.46029 0.12991,-0.68397 0.51196,-0.88154 0.56175,-0.29048 0.71694,-0.23226 1.57368,0.59043 0.70555,0.6775 0.80644,0.83238 0.80644,1.23793 0,0.73972 -0.62549,1.13109 -1.32422,0.82857 z m 3.19399,-1.67381 c -0.34887,-0.32633 -0.71544,-0.75022 -0.81461,-0.94199 -0.34732,-0.67165 0.10429,-1.35677 0.89433,-1.35677 0.30256,0 0.53524,0.15426 1.09056,0.72302 0.82165,0.84153 0.94348,1.13598 0.68049,1.64456 -0.382,0.73869 -1.01254,0.71524 -1.85077,-0.0688 z m -4.02751,-3.0331 c -0.62489,-0.62489 -0.73434,-0.8022 -0.73434,-1.18966 0,-0.55875 0.39106,-0.96808 0.92487,-0.96808 0.49896,0 1.96721,1.42636 1.96721,1.91109 0,0.52705 -0.44992,0.98099 -0.97231,0.98099 -0.38231,0 -0.56308,-0.11198 -1.18543,-0.73434 z"
       id="path169"
       inkscape:connector-curvature="0" />
  </g>
</svg>
