<?xml version="1.0" encoding="UTF-8" standalone="no"?>
<!-- Created with Inkscape (http://www.inkscape.org/) -->

<svg
   xmlns:dc="http://purl.org/dc/elements/1.1/"
   xmlns:cc="http://creativecommons.org/ns#"
   xmlns:rdf="http://www.w3.org/1999/02/22-rdf-syntax-ns#"
   xmlns:svg="http://www.w3.org/2000/svg"
   xmlns="http://www.w3.org/2000/svg"
   xmlns:sodipodi="http://sodipodi.sourceforge.net/DTD/sodipodi-0.dtd"
   xmlns:inkscape="http://www.inkscape.org/namespaces/inkscape"
   width="210mm"
   height="297mm"
   viewBox="0 0 210 297"
   version="1.1"
   id="svg102"
   inkscape:version="0.92.5 (2060ec1f9f, 2020-04-08)"
   sodipodi:docname="badewanne.svg">
  <defs
     id="defs96" />
  <sodipodi:namedview
     id="base"
     pagecolor="#ffffff"
     bordercolor="#666666"
     borderopacity="1.0"
     inkscape:pageopacity="0.0"
     inkscape:pageshadow="2"
     inkscape:zoom="0.35"
     inkscape:cx="400"
     inkscape:cy="560"
     inkscape:document-units="mm"
     inkscape:current-layer="layer1"
     showgrid="false"
     inkscape:window-width="1868"
     inkscape:window-height="1129"
     inkscape:window-x="52"
     inkscape:window-y="34"
     inkscape:window-maximized="1" />
  <metadata
     id="metadata99">
    <rdf:RDF>
      <cc:Work
         rdf:about="">
        <dc:format>image/svg+xml</dc:format>
        <dc:type
           rdf:resource="http://purl.org/dc/dcmitype/StillImage" />
        <dc:title />
      </cc:Work>
    </rdf:RDF>
  </metadata>
  <g
     inkscape:label="Ebene 1"
     inkscape:groupmode="layer"
     id="layer1">
    <path
       style="fill:#000000;stroke-width:0.30371615"
       d="m 54.593836,199.21409 c -1.54507,-0.90569 -2.218285,-1.98047 -2.367483,-3.77968 -0.176806,-2.13141 0.375302,-3.17649 3.116131,-5.89901 l 2.258936,-2.24389 -3.300134,-1.10386 c -4.195951,-1.40348 -7.618086,-3.45522 -10.866097,-6.51481 -3.109512,-2.92911 -4.818708,-5.27005 -6.612176,-9.05608 -2.512286,-5.3035 -2.64646,-6.18173 -2.79974,-18.32622 l -0.134537,-10.6591 -1.187836,-0.52409 c -1.905687,-0.84079 -4.405122,-3.3409 -5.438519,-5.44001 -2.545183,-5.17003 -1.659245,-10.75002 2.340335,-14.74063 1.862934,-1.85878 4.246794,-3.175 6.388512,-3.52738 l 1.290779,-0.21231 0.0048,-21.613092 c 0.0048,-17.794156 0.08381,-21.98873 0.450106,-23.739084 0.569088,-2.719839 2.46521,-6.543483 4.24735,-8.564987 1.871026,-2.122347 5.308499,-4.368554 8.068627,-5.272438 2.004017,-0.656283 2.80061,-0.740942 6.970208,-0.740942 4.118078,0 4.959578,0.0872 6.719808,0.695509 2.34055,0.809008 5.16459,2.435549 6.55563,3.775795 l 0.97495,0.939342 2.39142,-1.093129 c 4.28169,-1.957231 8.55085,-2.199615 12.63442,-0.717368 2.72952,0.990765 4.58086,2.254564 7.08344,4.835471 2.54233,2.621944 3.07707,3.896757 2.51786,6.002897 -0.32103,1.209091 -1.54029,2.542115 -11.34236,12.400587 -6.04045,6.075238 -11.59025,11.439629 -12.33291,11.920869 -1.50922,0.977988 -3.06838,1.133007 -4.65789,0.463053 -1.39517,-0.588025 -5.36043,-4.879649 -6.49457,-7.02912 -3.132822,-5.937488 -2.447603,-13.067401 1.76417,-18.357181 1.1796,-1.481498 1.21687,-1.590142 0.73005,-2.128071 -0.28217,-0.311778 -1.22081,-0.883691 -2.08588,-1.270925 -1.310945,-0.586841 -2.078577,-0.702876 -4.609992,-0.696886 -3.656717,0.0097 -5.205459,0.583701 -7.256939,2.694526 -2.556438,2.630374 -2.461997,1.63357 -2.461997,25.984712 v 21.411992 l 62.261822,0.15192 c 52.62213,0.12826 62.4264,0.21811 63.32482,0.58018 3.13442,1.26295 5.92288,3.8191 7.19325,6.59396 1.69081,3.69324 1.61883,7.53635 -0.21087,11.25285 -1.03337,2.09911 -3.53281,4.59922 -5.43852,5.44002 l -1.18781,0.52408 -0.13453,10.6591 c -0.15338,12.14449 -0.28746,13.02272 -2.79974,18.32622 -1.79347,3.78604 -3.50267,6.12697 -6.61218,9.05608 -3.24801,3.05959 -6.67015,5.11133 -10.8661,6.51481 l -3.30013,1.10386 2.25893,2.24389 c 1.24245,1.23413 2.4812,2.71218 2.75281,3.28455 0.63481,1.33778 0.45337,3.89009 -0.35416,4.98172 -1.34617,1.81977 -3.92722,2.52016 -5.98771,1.62481 -0.53754,-0.23357 -3.50438,-2.96701 -6.593,-6.07432 l -5.61566,-5.64965 H 103.49162 71.139696 l -5.61566,5.64965 c -3.08862,3.10731 -6.055461,5.84075 -6.593004,6.07432 -1.37998,0.59964 -3.095721,0.51563 -4.33771,-0.21232 z M 148.8977,177.1893 c 3.63073,-1.25392 5.86481,-2.6374 8.52963,-5.28215 2.22285,-2.20609 4.10902,-5.40886 5.00696,-8.50194 0.59513,-2.04994 0.67624,-3.19715 0.81068,-11.46528 l 0.14951,-9.18741 H 103.49213 43.589894 l 0.149271,9.18741 c 0.170043,10.46258 0.412112,11.88017 2.720588,15.93793 1.213994,2.13389 4.010618,5.2293 5.85638,6.48199 2.391589,1.62318 5.797903,2.97188 8.655613,3.42718 0.41762,0.0664 19.96177,0.10097 43.431414,0.0763 42.32007,-0.0442 42.68716,-0.05 44.49442,-0.67401 z m 21.38868,-45.24571 c 0.77804,-0.65468 0.93446,-1.006 0.93446,-2.09901 0,-1.09301 -0.15651,-1.44432 -0.93446,-2.09901 l -0.93444,-0.78628 H 103.49213 37.632334 l -0.934438,0.78628 c -0.778042,0.65469 -0.934462,1.006 -0.934462,2.09901 0,1.09301 0.156516,1.44433 0.934462,2.09901 l 0.934438,0.78628 h 65.859796 65.85981 z M 83.365556,70.258857 c -0.93224,-0.517954 -3.96463,-0.492472 -5.24886,0.0442 -1.36981,0.572349 -7.24928,6.289265 -8.29094,8.061719 -0.63239,1.076076 -0.80116,1.754267 -0.79355,3.189027 0.005,1.002262 0.19033,2.148239 0.41115,2.546584 0.39419,0.71116 0.53044,0.595439 7.50084,-6.370228 6.79749,-6.792871 7.07052,-7.110542 6.42136,-7.471207 z m 3.77406,35.314723 c -2.10749,-2.19474 -2.33901,-3.07807 -1.12496,-4.29213 1.16955,-1.16953 2.26065,-0.98739 4.12479,0.68865 2.46279,2.21427 2.95884,4.30848 1.23856,5.22915 -1.3965,0.74739 -2.288,0.40545 -4.23839,-1.62567 z m 9.60974,0.13671 c -2.03402,-2.0916 -2.2801,-3.16454 -1.01579,-4.42887 1.28157,-1.281549 2.36451,-1.02496 4.442004,1.05253 1.52519,1.52519 1.79799,1.96296 1.79799,2.88529 0,1.44802 -0.86778,2.30217 -2.338894,2.30217 -0.97369,0 -1.35966,-0.24228 -2.88531,-1.81112 z m -12.5432,-8.029619 c -1.06569,-0.464067 -3.32858,-2.83085 -3.63766,-3.804659 -0.31003,-0.976804 0.36598,-2.343619 1.36346,-2.756794 0.47448,-0.196612 1.16603,-0.261079 1.53674,-0.143474 1.00818,0.31999 3.35168,2.59081 3.81748,3.699059 0.87857,2.090463 -0.99136,3.915332 -3.08002,3.005796 z m 9.70945,-0.0018 c -1.25499,-0.54334 -3.78698,-3.410493 -3.78698,-4.288242 0,-1.111776 0.31378,-1.652048 1.23658,-2.129255 1.35684,-0.70162 1.73168,-0.560996 3.80103,1.426113 1.70417,1.63642 1.94786,2.010515 1.94786,2.990072 0,1.786705 -1.51079,2.732013 -3.19849,2.001312 z m 7.714704,-4.042888 c -0.84266,-0.788211 -1.728064,-1.812067 -1.967604,-2.275264 -0.83891,-1.622291 0.2519,-3.277116 2.160154,-3.277116 0.7308,0 1.29281,0.372596 2.63412,1.746368 1.9846,2.032615 2.27886,2.743824 1.64364,3.972238 -0.92267,1.784218 -2.44567,1.727577 -4.47031,-0.166178 z m -9.727974,-7.326091 c -1.50935,-1.509347 -1.77371,-1.937618 -1.77371,-2.873481 0,-1.349594 0.94456,-2.338282 2.23391,-2.338282 1.20518,0 4.75156,3.445202 4.75156,4.61601 0,1.273026 -1.08673,2.369464 -2.3485,2.369464 -0.92342,0 -1.36005,-0.270474 -2.86326,-1.773711 z"
       id="path169"
       inkscape:connector-curvature="0" />
  </g>
</svg>
