<?xml version="1.0" encoding="UTF-8" standalone="no"?>
<!-- Created with Inkscape (http://www.inkscape.org/) -->

<svg
   xmlns:dc="http://purl.org/dc/elements/1.1/"
   xmlns:cc="http://creativecommons.org/ns#"
   xmlns:rdf="http://www.w3.org/1999/02/22-rdf-syntax-ns#"
   xmlns:svg="http://www.w3.org/2000/svg"
   xmlns="http://www.w3.org/2000/svg"
   xmlns:sodipodi="http://sodipodi.sourceforge.net/DTD/sodipodi-0.dtd"
   xmlns:inkscape="http://www.inkscape.org/namespaces/inkscape"
   width="210mm"
   height="297mm"
   viewBox="0 0 210 297"
   version="1.1"
   id="svg5378"
   inkscape:version="0.92.5 (2060ec1f9f, 2020-04-08)"
   sodipodi:docname="Bohne.svg">
  <defs
     id="defs5372" />
  <sodipodi:namedview
     id="base"
     pagecolor="#ffffff"
     bordercolor="#666666"
     borderopacity="1.0"
     inkscape:pageopacity="0.0"
     inkscape:pageshadow="2"
     inkscape:zoom="0.35"
     inkscape:cx="-245.71429"
     inkscape:cy="560"
     inkscape:document-units="mm"
     inkscape:current-layer="layer1"
     showgrid="false"
     inkscape:window-width="1868"
     inkscape:window-height="904"
     inkscape:window-x="52"
     inkscape:window-y="34"
     inkscape:window-maximized="1" />
  <metadata
     id="metadata5375">
    <rdf:RDF>
      <cc:Work
         rdf:about="">
        <dc:format>image/svg+xml</dc:format>
        <dc:type
           rdf:resource="http://purl.org/dc/dcmitype/StillImage" />
        <dc:title></dc:title>
      </cc:Work>
    </rdf:RDF>
  </metadata>
  <g
     inkscape:label="Ebene 1"
     inkscape:groupmode="layer"
     id="layer1">
    <path
       style="fill:#000000;stroke-width:0.5961383"
       d="m 110.41435,193.6514 c -1.35774,-0.41206 -3.89732,-1.50294 -5.64352,-2.42417 -5.101273,-2.69124 -5.427193,-4.61825 -1.1003,-6.50543 4.12213,-1.79788 9.38001,-5.32269 12.33309,-8.26792 1.52099,-1.51695 6.05859,-7.25978 10.08354,-12.76183 7.29659,-9.97435 18.54419,-22.15836 21.21339,-22.97953 3.08274,-0.94839 7.27389,7.91867 7.24287,15.32346 -0.009,2.25963 -0.34307,5.29694 -0.74135,6.74956 -4.13784,15.09181 -13.57145,25.62832 -27.08386,30.25027 -4.72732,1.61699 -12.0885,1.89493 -16.30386,0.61559 z m -45.820268,-3.15119 c -1.411187,-0.2871 -1.34547,-1.05544 0.549669,-6.42653 2.061433,-5.84237 2.153774,-13.17216 0.297763,-23.63581 -0.84435,-4.76021 -1.280169,-9.6036 -1.241084,-13.79259 0.09638,-10.32967 0.750545,-11.2794 6.272748,-9.10689 7.354319,2.89328 12.321929,9.28 14.843989,19.08451 2.74199,10.65948 0.68785,20.24121 -5.85053,27.29025 -3.9316,4.23867 -11.008718,7.37313 -14.872555,6.58706 z m -9.97225,-1.8573 c -9.366636,-4.29516 -14.701998,-14.12712 -14.701998,-27.09269 0,-8.96283 2.778718,-15.80996 8.335111,-20.5388 4.146885,-3.52926 11.646086,-5.91869 13.795161,-4.39548 0.972254,0.68911 0.927923,1.00966 -0.663389,4.79698 -2.234731,5.31865 -2.608617,12.3995 -1.208042,22.87848 1.015747,7.59973 1.337647,21.99366 0.538657,24.0863 -0.398242,1.04303 -1.339543,1.9642 -2.026905,1.98355 -0.166513,0.005 -1.997381,-0.76856 -4.068595,-1.71834 z m 40.770285,-6.5169 c -2.92874,-3.37377 -4.6706,-12.68465 -3.5084,-18.75355 1.92861,-10.07095 9.744573,-21.40712 18.764153,-27.21527 7.17734,-4.62184 16.32274,-6.62206 23.19159,-5.0723 6.1712,1.39235 12.94927,5.74143 11.78759,7.56337 -0.1981,0.31071 -2.66403,1.64582 -5.47984,2.96692 -5.68369,2.66663 -12.17865,8.31634 -17.59037,15.30118 -13.41246,17.3113 -22.32672,26.99824 -24.844713,26.99824 -0.42205,0 -1.46605,-0.80486 -2.32001,-1.78859 z m -9.99388,-39.64253 c -8.804,-9.13789 -12.218848,-20.67188 -9.1484,-30.89966 1.06426,-3.54508 2.36501,-3.78324 7.20318,-1.31888 4.81699,2.45356 10.194,6.61744 18.090793,14.00923 l 5.61495,5.25587 -5.95918,5.91649 c -3.277543,3.25407 -6.872243,7.17103 -7.988223,8.70435 -1.11598,1.53332 -2.36466,2.78786 -2.77485,2.78786 -0.41019,0 -2.67741,-2.00486 -5.03827,-4.45526 z m 20.091973,-23.46832 c -8.896893,-7.80521 -11.836133,-9.64338 -18.847963,-11.78736 -2.77644,-0.84895 -5.1816,-1.88078 -5.34478,-2.29296 -0.89869,-2.27008 6.16735,-7.793319 12.33099,-9.638639 15.383893,-4.60576 35.079573,5.632489 43.506903,22.615859 2.92651,5.89772 2.85195,6.28809 -1.09192,5.71689 -5.41635,-0.78446 -13.13058,-0.3614 -17.40821,0.95468 -2.16467,0.666 -4.26527,1.21431 -4.66798,1.21848 -0.40271,0.004 -4.21738,-3.04996 -8.47704,-6.78695 z"
       id="path5461"
       inkscape:connector-curvature="0" />
  </g>
</svg>
