<?xml version="1.0" encoding="UTF-8" standalone="no"?>
<!-- Created with Inkscape (http://www.inkscape.org/) -->

<svg
   xmlns:dc="http://purl.org/dc/elements/1.1/"
   xmlns:cc="http://creativecommons.org/ns#"
   xmlns:rdf="http://www.w3.org/1999/02/22-rdf-syntax-ns#"
   xmlns:svg="http://www.w3.org/2000/svg"
   xmlns="http://www.w3.org/2000/svg"
   xmlns:sodipodi="http://sodipodi.sourceforge.net/DTD/sodipodi-0.dtd"
   xmlns:inkscape="http://www.inkscape.org/namespaces/inkscape"
   width="210mm"
   height="297mm"
   viewBox="0 0 210 297"
   version="1.1"
   id="svg28"
   inkscape:version="0.92.5 (2060ec1f9f, 2020-04-08)"
   sodipodi:docname="CoffeeTrackerLogo1.svg">
  <defs
     id="defs22" />
  <sodipodi:namedview
     id="base"
     pagecolor="#ffffff"
     bordercolor="#666666"
     borderopacity="1.0"
     inkscape:pageopacity="0.0"
     inkscape:pageshadow="2"
     inkscape:zoom="0.12374369"
     inkscape:cx="1341.152"
     inkscape:cy="1614.0347"
     inkscape:document-units="mm"
     inkscape:current-layer="layer1"
     showgrid="false"
     inkscape:window-width="1868"
     inkscape:window-height="904"
     inkscape:window-x="52"
     inkscape:window-y="34"
     inkscape:window-maximized="1" />
  <metadata
     id="metadata25">
    <rdf:RDF>
      <cc:Work
         rdf:about="">
        <dc:format>image/svg+xml</dc:format>
        <dc:type
           rdf:resource="http://purl.org/dc/dcmitype/StillImage" />
        <dc:title></dc:title>
      </cc:Work>
    </rdf:RDF>
  </metadata>
  <g
     inkscape:label="Ebene 1"
     inkscape:groupmode="layer"
     id="layer1">
    <path
       style="fill:#4e342e;stroke-width:0.66492146;fill-opacity:1"
       d="m 130.94815,270.55646 c -2.17987,-0.42639 -3.34739,-2.14182 -4.50008,-6.61195 -1.22206,-4.73912 -3.32762,-18.6543 -4.41323,-29.16611 -0.41545,-4.02278 -0.9728,-7.54453 -1.23855,-7.82613 -0.26575,-0.2816 -7.04496,-0.43121 -15.06491,-0.33246 l -14.581733,0.17953 -0.87039,4.98691 c -0.47872,2.7428 -0.73384,7.27071 -0.56692,10.06202 0.51154,8.55435 3.25,12.27882 8.84896,12.03514 l 2.894643,-0.12598 v 2.66666 c 0,3.11276 -1.468693,6.96516 -3.465873,9.09106 -1.74815,1.86083 -7.77286,4.17163 -10.87624,4.17163 -11.34743,0 -15.24317,-14.90954 -9.26893,-35.47344 0.86592,-2.98058 1.77722,-5.94286 2.02511,-6.58285 0.40152,-1.0366 -0.031,-1.16361 -3.96328,-1.16361 -5.18128,0 -5.95145,-0.85862 -4.00768,-4.46797 1.98622,-3.6882 3.94298,-4.84093 8.21748,-4.84093 h 3.74827 l 3.50867,-7.05496 c 9.71366,-19.53149 22.163173,-35.65097 30.906793,-40.01774 4.97041,-2.48234 7.63467,-1.79531 9.31403,2.40183 1.57667,3.9405 4.1743,17.05936 6.0803,30.70752 4.93562,35.34199 8.87784,52.88885 13.36951,59.50769 0.93372,1.37591 1.54626,2.89622 1.36122,3.37845 -1.02667,2.67546 -12.1202,5.51963 -17.45717,4.47569 z m -11.73488,-54.51289 c 0.46808,-1.21979 -2.08944,-18.95129 -3.51038,-24.33782 -0.48793,-1.84964 -1.33897,-3.8148 -1.8912,-4.36703 -0.89547,-0.89548 -1.27121,-0.72158 -3.47417,1.60786 -4.99711,5.28401 -13.858753,20.23932 -15.829953,26.71533 l -0.45539,1.49607 h 12.366733 c 10.95643,0 12.41549,-0.12709 12.79436,-1.11441 z m -161.335049,53.71739 c -0.777424,-0.51818 -0.814268,-1.10154 -0.200862,-3.1803 2.528979,-8.57041 4.908103,-82.37267 2.699408,-83.73772 -0.429406,-0.26539 -3.397801,-0.48252 -6.596434,-0.48252 -4.941408,0 -6.347024,0.26295 -9.350056,1.74914 -2.062844,1.02089 -3.780544,1.50295 -4.125655,1.15784 -0.927586,-0.92758 2.179664,-6.65445 5.307763,-9.78254 4.554722,-4.55472 7.515822,-5.10475 22.544928,-4.18772 13.712184,0.83668 21.635964,0.23466 26.7750644,-2.03427 2.3917702,-1.05597 2.9150202,-1.10718 3.2189902,-0.31505 0.85409003,2.22571 -3.6394102,10.7758 -6.5290802,12.42335 -0.84738,0.48314 -4.3832404,1.02804 -7.8574504,1.21089 l -6.31676,0.33246 -0.5264,8.64398 c -0.67743,11.12383 -0.0842,62.61385 0.78088,67.77612 0.79013,4.71504 0.31086,5.88782 -3.10262,7.59216 -4.53331,2.26347 -14.933341,4.02618 -16.721716,2.83418 z m 45.4690666,-0.25218 c -0.21369,-0.55685 -0.0635,-2.21938 0.33368,-3.69451 1.25818,-4.67252 1.99844,-21.62616 2.01258,-46.09239 0.0179,-30.90559 -0.51744,-36.13589 -4.49974,-43.96649 -0.51850997,-1.01957 5.89558,-3.18761 12.2754204,-4.14924 8.676069,-1.30773 26.434909,-1.2975 32.016909,0.0184 9.57372,2.25699 17.59568,8.62702 19.67288,15.62171 1.34674,4.53496 1.35049,10.85786 0.009,14.79561 -2.08558,6.12086 -9.29117,11.83556 -17.42431,13.81911 -3.22814,0.7873 -3.12918,1.53321 0.39799,3.0001 8.86418,3.68645 11.55723,8.71339 12.4456,23.23141 0.70366,11.49928 3.18024,17.9731 8.25924,21.58967 3.39953,2.42067 1.79445,3.74734 -6.86448,5.67377 -7.22095,1.60651 -12.44568,1.16306 -14.98737,-1.27203 -2.84724,-2.72783 -3.51698,-6.44401 -4.02513,-22.33434 -0.3954,-12.36442 -0.64198,-14.7098 -1.8251,-17.36009 -1.8311,-4.10175 -5.21413,-6.60441 -9.66145,-7.14721 -4.15931,-0.50765 -4.66272,-1.68658 -2.65551,-6.21893 1.21787,-2.75001 1.41244,-2.88043 5.42466,-3.63646 5.8468,-1.10172 8.77356,-3.2452 11.28012,-8.26127 1.64547,-3.29288 2.06524,-4.97282 2.06524,-8.26512 0,-10.97909 -5.49149,-16.11037 -16.55583,-15.46987 -8.36506,0.48425 -8.46741,0.61532 -9.08871,11.63882 -0.79724,14.14504 -0.59653,46.32194 0.37744,60.51213 l 0.87676,12.77366 -1.60195,1.34051 c -2.47307,2.06946 -7.875209,3.8807 -13.1141994,4.39693 -3.94062,0.38831 -4.82155,0.29515 -5.14352,-0.5439 z m 170.5850924,-0.0614 c -8.36071,-2.27606 -15.32035,-7.88985 -18.94466,-15.28118 -4.26873,-8.70552 -5.2293,-13.76141 -5.26261,-27.69933 -0.0318,-13.29208 0.8025,-19.07595 4.07618,-28.25916 5.55693,-15.58813 13.97562,-24.24316 26.20927,-26.94505 7.88263,-1.74095 19.28217,0.3834 24.48601,4.56303 1.29218,1.03786 3.34788,3.82907 4.56822,6.20267 1.95691,3.80628 2.22152,4.9398 2.24189,9.60373 0.0276,6.31828 -1.7456,11.16533 -5.1914,14.19078 -5.04291,4.42773 -12.4946,4.29012 -16.10314,-0.2974 -2.83487,-3.60396 -3.1508,-9.64499 -0.5044,-9.64499 0.539,0 1.80284,-1.07879 2.80853,-2.39733 1.45405,-1.90635 1.83546,-3.12905 1.86237,-5.97021 0.0297,-3.13823 -0.21921,-3.8261 -2.04627,-5.65429 -4.10034,-4.10288 -10.82021,-3.3229 -15.54648,1.8045 -3.43787,3.72965 -5.56797,8.30334 -7.60159,16.32193 -7.42059,29.25943 0.50653,51.73581 18.24651,51.73581 7.26443,0 13.88225,-4.36082 18.87078,-12.43491 1.17734,-1.90556 2.05728,-2.68248 2.74101,-2.42011 1.45229,0.5573 1.86807,2.95238 1.52084,8.76071 -0.71543,11.96739 -8.34781,20.14983 -22.10872,23.7021 -4.67552,1.20694 -10.15795,1.25238 -14.32234,0.1187 z m 45.97311,0.35272 c -0.73373,-0.49854 -0.76229,-1.27418 -0.15178,-4.12091 2.298,-10.7152 2.65931,-72.34068 0.48042,-81.93958 -0.56109,-2.47185 -1.48405,-5.15656 -2.05102,-5.96602 -0.56696,-0.80945 -1.03084,-1.72119 -1.03084,-2.02609 0,-1.86106 15.46965,-5.62315 19.78971,-4.8127 l 2.32168,0.43555 -0.41364,5.10716 c -0.92339,11.40082 -1.28199,30.70664 -0.57037,30.70664 0.38999,0 3.6898,-4.11421 7.33292,-9.14267 11.92074,-16.45375 19.2859,-24.86898 23.21599,-26.52593 2.54074,-1.07119 14.00284,-1.21377 15.48078,-0.19257 0.86551,0.59805 0.83174,0.7945 -0.25542,1.4859 -6.97107,4.43333 -19.07345,15.79209 -27.50505,25.81503 -5.02978,5.97907 -5.64938,7.23039 -3.58018,7.23039 2.41102,0 10.57555,4.67272 13.2677,7.59335 5.18784,5.62814 7.74331,12.507 8.7724,23.61371 1.16021,12.52175 3.59389,22.16636 6.40462,25.38134 0.51328,0.5871 0.74866,1.54843 0.52308,2.13629 -0.84077,2.19101 -13.63953,5.63965 -17.65611,4.75746 -3.78929,-0.83227 -4.04338,-1.99401 -4.61911,-21.1188 -0.63323,-21.0352 -1.49604,-25.26397 -6.32583,-31.00385 -2.22471,-2.64392 -5.30508,-4.26274 -7.20429,-3.78607 -1.56202,0.39205 -4.5216,4.1571 -7.11358,9.04961 -1.50308,2.83714 -1.57708,3.54328 -1.42861,13.63089 0.0861,5.85131 0.48614,14.48157 0.88893,19.17837 0.71411,8.32698 0.69679,8.57747 -0.69578,10.0598 -2.60406,2.77189 -15.59025,6.00722 -17.87662,4.4537 z m 131.86064,-0.29133 c -0.21368,-0.55685 -0.0635,-2.21938 0.33369,-3.69451 1.25818,-4.67252 1.99844,-21.62616 2.01258,-46.09239 0.0179,-30.90559 -0.51744,-36.13589 -4.49974,-43.96649 -0.51851,-1.01957 5.89558,-3.18761 12.27542,-4.14924 8.67607,-1.30773 26.4349,-1.2975 32.01691,0.0184 9.57372,2.25699 17.59568,8.62702 19.67288,15.62171 1.34674,4.53496 1.35048,10.85786 0.009,14.79561 -2.08559,6.12086 -9.29117,11.83556 -17.42431,13.81911 -3.22814,0.7873 -3.12918,1.53321 0.39798,3.0001 8.86419,3.68645 11.55724,8.71339 12.44561,23.23141 0.70366,11.49928 3.18024,17.9731 8.25924,21.58967 3.39953,2.42067 1.79445,3.74734 -6.86449,5.67377 -7.22094,1.60651 -12.44567,1.16306 -14.98736,-1.27203 -2.84725,-2.72783 -3.51698,-6.44401 -4.02513,-22.33434 -0.3954,-12.36442 -0.64198,-14.7098 -1.82511,-17.36009 -1.83109,-4.10175 -5.21412,-6.60441 -9.66145,-7.14721 -4.15931,-0.50765 -4.66271,-1.68658 -2.65551,-6.21893 1.21788,-2.75001 1.41244,-2.88043 5.42467,-3.63646 5.8468,-1.10172 8.77356,-3.2452 11.28012,-8.26127 1.64546,-3.29288 2.06524,-4.97282 2.06524,-8.26512 0,-10.97909 -5.49149,-16.11037 -16.55583,-15.46987 -8.36506,0.48425 -8.46741,0.61532 -9.08871,11.63882 -0.79724,14.14504 -0.59654,46.32194 0.37744,60.51213 l 0.87676,12.77366 -1.60196,1.34051 c -2.47306,2.06946 -7.87521,3.8807 -13.11419,4.39693 -3.94062,0.38831 -4.82155,0.29515 -5.14353,-0.5439 z m -36.13591,-0.87425 c -13.13945,-3.5334 -21.64244,-15.67326 -23.24776,-33.19121 l -0.42652,-4.65445 -4.15576,-0.19796 c -3.78839,-0.18046 -4.15365,-0.32741 -4.13185,-1.66231 0.0449,-2.74881 4.20373,-6.45125 7.24651,-6.45125 1.17124,0 1.37489,-0.41623 1.38263,-2.82592 0.005,-1.55425 0.18574,-3.48476 0.40166,-4.29003 0.37317,-1.39173 0.1676,-1.47391 -4.15796,-1.6623 -5.53314,-0.24098 -6.08394,-1.2495 -2.69943,-4.94264 1.84051,-2.00835 2.88847,-2.56101 5.42657,-2.86181 l 3.14556,-0.3728 1.47307,-4.65445 c 2.4981,-7.8932 6.20567,-14.13508 11.68756,-19.67657 7.44207,-7.52298 15.06867,-10.55133 26.60395,-10.56382 10.07036,-0.0109 13.29843,1.93489 13.29843,8.01595 0,1.75763 -0.26743,3.36098 -0.59429,3.56298 -0.32685,0.20201 -1.6637,-0.0795 -2.97079,-0.62568 -1.39041,-0.58094 -4.44425,-0.99296 -7.35983,-0.99296 -5.80833,0 -10.74847,1.5881 -14.45786,4.64775 -4.32025,3.56351 -9.15885,11.96043 -10.90807,18.92988 l -0.42401,1.68938 h 13.99619 c 8.50906,0 14.15552,0.25779 14.40259,0.65756 0.62873,1.01731 -1.54566,5.04458 -3.18391,5.89703 -0.91533,0.47629 -6.21143,0.82465 -14.0995,0.92742 l -12.63351,0.16459 -0.19661,4.48822 -0.19661,4.48822 h 14.99112 14.99111 v 1.93566 c 0,1.34518 -0.62407,2.46077 -2.04578,3.65707 l -2.04578,1.72141 h -12.91496 c -10.84193,0 -12.91495,0.15484 -12.91495,0.96465 0,2.67873 1.70251,8.52538 3.72167,12.78075 4.1382,8.72126 10.01538,11.93494 20.81508,11.38183 4.14918,-0.21251 6.89803,-0.77597 10.02272,-2.05449 5.3178,-2.17585 5.88797,-1.78899 4.82591,3.27442 -1.36059,6.48666 -5.67463,10.41092 -13.75937,12.51617 -4.90193,1.27646 -14.12187,1.26656 -18.90722,-0.0203 z M -26.414233,160.9716 c -13.804654,-3.795 -22.185936,-13.41944 -26.452117,-30.37562 -1.987038,-7.8976 -2.478265,-24.84095 -1.00993,-34.834438 2.089446,-14.22075 7.585226,-28.571723 13.883259,-36.252955 3.646273,-4.44708 10.615261,-9.358009 16.111258,-11.353319 8.44494,-3.06593 21.5900006,-2.27844 29.5837306,1.77229 8.4399704,4.27686 13.2869194,15.069032 11.3903994,25.361794 -1.772039,9.61719 -6.543599,14.61601 -14.6534894,15.35139 -7.0971502,0.64355 -11.9848802,-3.29564 -12.5503806,-10.11477 -0.29255,-3.52782 -0.27676,-3.56301 2.3402204,-5.21503 4.8264402,-3.0468 6.79457023,-10.763435 3.7899,-14.859438 -2.88052,-3.926762 -9.2589504,-5.372524 -13.9279104,-3.156957 -3.16269,1.500794 -7.21767,5.831631 -9.54029,10.189309 -6.137744,11.515596 -9.33854,36.085474 -6.484285,49.774554 2.055608,9.85876 7.423375,17.89749 14.147595,21.18734 5.30002,2.59306 12.2370304,2.62025 17.7478106,0.0696 4.51101,-2.08795 10.8427,-8.26049 12.7012404,-12.38198 1.27763,-2.83327 3.29682,-4.05178 4.58294,-2.76566 1.31765,1.31764 1.37827,11.04222 0.0983,15.77071 -1.36398,5.03894 -5.10046,11.08706 -8.7076604,14.09481 -3.49463,2.91389 -10.9701002,6.46013 -16.2324202,7.7004 -5.1882404,1.2228 -12.4487404,1.23922 -16.8182004,0.038 z M 143.7747,160.79539 c -0.17309,-0.28006 0.0751,-2.0117 0.5514,-3.84811 1.03901,-4.00546 2.18667,-17.9595 2.67676,-32.54585 0.1966,-5.8513 0.51954,-13.40647 0.71764,-16.78926 l 0.36018,-6.15053 h -5.71282 c -6.60422,0 -7.20299,-0.52001 -5.34446,-4.641518 1.78577,-3.96011 4.39644,-6.09336 7.94682,-6.49354 l 3.05515,-0.34436 -0.38768,-9.05479 c -0.50868,-11.88097 -1.32242,-17.363008 -3.31756,-22.350071 -0.90148,-2.25336 -1.63906,-4.426063 -1.63906,-4.828223 0,-2.10941 17.48131,-6.13643 32.24869,-7.42886 13.55487,-1.1863 25.28617,-0.62592 27.21275,1.29992 0.39267,0.39252 0.71395,2.71853 0.71395,5.16892 0,3.620434 -0.18689,4.411619 -0.99738,4.222394 -0.54856,-0.128072 -4.28875,-0.23622 -8.31152,-0.240331 -11.09046,-0.01133 -24.27431,2.780463 -25.25996,5.349017 -0.54582,1.422385 -1.62555,16.398004 -1.64996,22.884644 l -0.0194,5.15314 h 13.25919 c 8.75302,0 13.40958,0.24334 13.70171,0.71602 0.78049,1.26286 -1.70574,6.47076 -4.08741,8.56189 l -2.3072,2.025748 H 176.83327 166.482 l 0.40182,8.81021 c 0.22101,4.84562 0.47607,16.34276 0.56682,25.54922 l 0.16498,16.739 -1.92722,2.01819 c -1.05998,1.11001 -3.15448,2.59111 -4.65445,3.29134 -5.16162,2.40961 -16.40076,4.31486 -17.25925,2.92579 z m 63.16754,0 c -0.17309,-0.28006 0.075,-2.0117 0.5514,-3.84811 1.03901,-4.00546 2.18667,-17.9595 2.67676,-32.54585 0.1966,-5.8513 0.51954,-13.40647 0.71764,-16.78926 l 0.36017,-6.15053 h -5.71281 c -6.60422,0 -7.20299,-0.52001 -5.34446,-4.641518 1.78577,-3.96011 4.39644,-6.09336 7.94682,-6.49354 l 3.05515,-0.34436 -0.38768,-9.05479 c -0.50868,-11.88097 -1.32242,-17.363008 -3.31756,-22.350071 -0.90149,-2.25336 -1.63906,-4.426063 -1.63906,-4.828223 0,-2.10941 17.48131,-6.13643 32.24869,-7.42886 13.55487,-1.1863 25.28617,-0.62592 27.21275,1.29992 0.39267,0.39252 0.71395,2.71853 0.71395,5.16892 0,3.620434 -0.18689,4.411619 -0.99738,4.222394 -0.54856,-0.128072 -4.28875,-0.23622 -8.31152,-0.240331 -11.09047,-0.01133 -24.27432,2.780463 -25.25996,5.349017 -0.54582,1.422385 -1.62555,16.398004 -1.64996,22.884644 l -0.0194,5.15314 h 13.25919 c 8.75302,0 13.40958,0.24334 13.70171,0.71602 0.78049,1.26286 -1.70574,6.47076 -4.08741,8.56189 l -2.3072,2.025748 h -10.35126 -10.35127 l 0.40182,8.81021 c 0.22101,4.84562 0.47607,16.34276 0.56682,25.54922 l 0.16498,16.739 -1.92722,2.01819 c -1.05998,1.11001 -3.15448,2.59111 -4.65445,3.29134 -5.16163,2.40961 -16.40076,4.31486 -17.25925,2.92579 z M 58.035997,160.0403 c -5.12785,-1.07972 -5.00159,-1.55048 2.85903,-10.65898 9.65683,-11.18988 15.56491,-22.59999 23.60743,-45.59245 9.19772,-26.294998 15.05124,-40.642554 19.275423,-47.246025 1.89627,-2.964337 2.64886,-3.617817 4.15278,-3.605867 6.55177,0.0521 14.99908,9.254048 18.73687,20.410764 1.74666,5.21348 1.91321,17.60136 0.34037,25.31602 -1.35685,6.655268 -4.30444,15.468098 -7.20957,21.555408 -8.93759,18.7276 -27.238883,34.90859 -43.836493,38.75783 -5.23066,1.21307 -14.58059,1.76768 -17.92584,1.0633 z m 243.278713,-0.77022 c -11.75136,-1.96735 -19.54982,-7.54488 -24.88351,-17.7969 -4.70042,-9.03479 -7.20561,-21.91858 -6.62466,-34.06957 l 0.28163,-5.89067 -5.02423,-0.19188 c -4.93254,-0.18837 -5.0202,-0.22221 -4.80354,-1.854178 0.35475,-2.67199 3.3259,-7.22286 5.42398,-8.30782 1.06474,-0.55059 2.80004,-1.00108 3.85622,-1.00108 1.86028,0 1.9657,-0.18191 3.37144,-5.81806 0.8268,-3.31493 3.07391,-9.1079 5.22299,-13.46466 3.24378,-6.575989 4.52307,-8.399177 9.13709,-13.021709 4.21337,-4.221135 6.57683,-5.969105 11.00882,-8.141895 7.96375,-3.90425 12.86694,-5.05531 21.6017,-5.07115 11.98472,-0.0217 14.29581,1.44852 14.29581,9.09474 0,4.994541 -0.0772,5.057543 -4.32199,3.528294 -6.65271,-2.396724 -18.70398,-0.494474 -24.40236,3.851824 -6.41557,4.893317 -12.77318,16.550136 -14.19403,26.025076 l -0.45251,3.01754 h 16.7194 c 14.14539,0 16.77753,0.15145 17.09691,0.98376 0.50198,1.30814 -1.99458,6.36911 -4.13432,8.38099 -1.68764,1.586788 -1.89221,1.608928 -16.71419,1.808758 l -15.00563,0.20231 0.4066,7.44429 c 0.67292,12.32001 2.87275,18.34429 8.81824,24.14894 7.74841,7.56487 21.85615,9.10343 32.987,3.59749 2.08163,-1.0297 3.95172,-1.70524 4.15576,-1.50121 0.88688,0.88688 0.27509,8.33472 -0.9546,11.62139 -3.66723,9.80156 -17.4401,15.00824 -32.86802,12.42538 z m 75.13612,0 c -11.75135,-1.96735 -19.54982,-7.54488 -24.88351,-17.7969 -4.70041,-9.03479 -7.2056,-21.91858 -6.62466,-34.06957 l 0.28164,-5.89067 -5.02423,-0.19188 c -4.93255,-0.18837 -5.02021,-0.22221 -4.80354,-1.854178 0.35475,-2.67199 3.3259,-7.22286 5.42397,-8.30782 1.06474,-0.55059 2.80004,-1.00108 3.85622,-1.00108 1.86029,0 1.9657,-0.18191 3.37145,-5.81806 0.82679,-3.31493 3.07391,-9.1079 5.22299,-13.46466 3.24377,-6.575989 4.52307,-8.399177 9.13709,-13.021709 4.21337,-4.221135 6.57683,-5.969105 11.00881,-8.141895 7.96376,-3.90425 12.86695,-5.05531 21.6017,-5.07115 11.98473,-0.0217 14.29582,1.44852 14.29582,9.09474 0,4.994541 -0.0772,5.057543 -4.32199,3.528294 -6.65272,-2.396724 -18.70399,-0.494474 -24.40236,3.851824 -6.41557,4.893317 -12.77318,16.550136 -14.19403,26.025076 l -0.45252,3.01754 h 16.71941 c 14.14539,0 16.77752,0.15145 17.0969,0.98376 0.50199,1.30814 -1.99458,6.36911 -4.13431,8.38099 -1.68765,1.586788 -1.89222,1.608928 -16.71419,1.808758 l -15.00564,0.20231 0.40661,7.44429 c 0.67292,12.32001 2.87274,18.34429 8.81823,24.14894 7.74842,7.56487 21.85616,9.10343 32.987,3.59749 2.08163,-1.0297 3.95172,-1.70524 4.15576,-1.50121 0.88688,0.88688 0.2751,8.33472 -0.9546,11.62139 -3.66723,9.80156 -17.4401,15.00824 -32.86802,12.42538 z M 43.175237,155.28301 c -3.80942,-1.88565 -9.64683,-8.20142 -12.13384,-13.12816 -2.8502,-5.64621 -4.03573,-11.24038 -4.04417,-19.08326 -0.034,-31.660218 19.79171,-61.29804 48.17866,-72.022942 5.15122,-1.94619 7.03662,-2.30423 13.76666,-2.61431 6.54386,-0.30149 8.06739,-0.18277 9.47293,0.73818 1.43086,0.93753 1.58134,1.34361 1.0327,2.78665 -0.35323,0.92906 -2.38332,3.712136 -4.51131,6.184613 -10.67541,12.403541 -13.2743,17.488481 -21.62984,42.320479 -7.57261,22.50518 -11.90803,33.81193 -17.37365,45.3104 -5.22036,10.98249 -7.04015,12.33874 -12.75814,9.50835 z"
       id="path101"
       inkscape:connector-curvature="0" />
    <path
       style="fill:#ffaaaa;fill-opacity:1;stroke-width:2.85714293"
       d="m 224.85714,604.0152 c -19.51349,-3.91534 -18.91477,-3.51337 -15.31105,-10.28003 1.86244,-3.49708 12.49791,-17.4768 23.63437,-31.06603 38.41544,-46.87625 54.43381,-79.06697 94.72691,-190.36422 41.08485,-113.48422 62.95233,-162.48715 75.50832,-169.20691 14.76413,-7.90152 48.76258,20.81437 65.92973,55.6858 33.34978,67.74306 2.83245,189.83573 -66.43695,265.79853 -34.4763,37.80769 -84.79384,69.15346 -120.90847,75.32103 -21.11763,3.6064 -49.48761,5.64783 -57.14286,4.11183 z"
       id="path912"
       inkscape:connector-curvature="0"
       transform="scale(0.26458333)" />
    <path
       style="fill:#ffaaaa;fill-opacity:1;stroke-width:2.85714293"
       d="m -157.84482,1017.6279 c -1.08032,-1.748 -0.61488,-12.4838 1.03431,-23.85747 7.19715,-49.6352 14.86526,-262.3939 10.50222,-291.3936 l -2.04184,-13.57143 h -24.00488 c -17.32206,0 -28.06844,1.60171 -38.6013,5.75337 l -14.59643,5.75338 2.02493,-6.46766 c 5.22317,-16.68286 24.60178,-37.80124 39.73153,-43.29855 3.09776,-1.12556 35.24062,-1.96234 71.42857,-1.85952 63.402073,0.18014 79.730067,-1.44886 99.820759,-9.95886 4.9219053,-2.08482 5.2667453,-1.37827 3.5403367,7.25377 -2.3305027,11.65252 -17.4427767,35.8448 -24.1282947,38.62546 -2.6758,1.11293 -15.793662,2.83433 -29.150805,3.82534 l -24.285715,1.80184 -1.810842,42.85714 c -0.995966,23.57143 -0.76964,93 0.502945,154.28572 2.280103,109.80637 2.22954,111.50097 -3.473137,116.40227 -11.348917,9.7539 -62.445817,20.3962 -66.492357,13.8488 z"
       id="path918"
       inkscape:connector-curvature="0"
       transform="scale(0.26458333)" />
    <path
       style="fill:#ffaaaa;fill-opacity:1;stroke-width:2.85714293"
       d="m 16.025097,1004.2591 c 3.65484,-29.93276 7.207062,-118.10903 7.240886,-179.73941 0.04245,-77.3519 -3.633249,-124.9022 -11.187838,-144.73018 C 6.7489526,665.80236 6.6497137,664.23246 10.896736,661.10038 26.115684,649.87676 118.99705,642.048 160.20192,648.51578 c 57.68745,9.055 92.5448,46.44098 88.18,94.57678 -3.23043,35.6257 -26.1893,58.64589 -72.81049,73.00495 -6.86834,2.11541 -3.45153,6.5158 11.69833,15.06585 28.77639,16.24039 33.78306,26.51803 40.39325,82.91885 6.07406,51.82633 8.87816,59.79502 28.02818,79.6503 l 11.64123,12.06999 -9.80907,4.0856 c -29.34366,12.2222 -66.4664,12.9672 -78.5905,1.5772 -10.08152,-9.4711 -12.06988,-20.30719 -15.283,-83.28808 -3.7699,-73.89471 -7.64834,-82.36574 -42.36414,-92.52887 -16.2758,-4.76478 -17.3899,-7.02092 -11.00865,-22.29341 3.45941,-8.27952 6.0297,-10.02112 19.28572,-13.06774 22.73282,-5.22467 34.88862,-14.3059 43.95541,-32.83776 6.91542,-14.13461 7.64319,-18.30363 6.44754,-36.93453 -2.47533,-38.57083 -18.68224,-52.95715 -59.79206,-53.07533 -28.596547,-0.0822 -34.109233,3.9952 -37.022499,27.38341 -3.178428,25.517 -2.883854,202.49716 0.417846,251.04038 2.909103,42.77106 2.909,42.7724 -3.615631,47.77453 -9.357869,7.1744 -29.592849,13.6496 -49.114372,15.7166 l -16.875271,1.7869 z"
       id="path920"
       inkscape:connector-curvature="0"
       transform="scale(0.26458333)" />
    <path
       style="fill:#ffaaaa;fill-opacity:1;stroke-width:2.85714293"
       d="m 493.03042,1020.2619 c -11.31341,-4.5662 -18.17542,-32.7209 -28.45759,-116.76101 -3.08986,-25.25454 -6.54864,-42.54885 -8.99979,-45 -3.11491,-3.11491 -15.41639,-3.9812 -56.53374,-3.9812 -61.88247,0 -57.69774,-2.62628 -60.3585,37.8801 -1.3356,20.33259 -0.63945,30.35404 2.97141,42.77498 5.58567,19.214 12.5381,25.0592 29.80609,25.0592 h 12.47255 l -2.01151,12.14286 c -3.78653,22.85811 -13.02704,34.15457 -33.50122,40.95497 -28.25471,9.3847 -51.52176,-2.1429 -59.05054,-29.25663 -5.89032,-21.21303 -3.73442,-58.06703 5.48956,-93.8412 4.71429,-18.28382 8.57143,-33.79928 8.57143,-34.4788 0,-0.67952 -6.99555,-1.23548 -15.54566,-1.23548 -17.31322,0 -20.58747,-2.52686 -15.658,-12.08381 7.8199,-15.16075 14.34373,-19.34477 30.1629,-19.34477 h 15.10602 l 17.41152,-34.15158 c 38.59212,-75.69597 87.8002,-136.5404 119.14137,-147.31498 13.04456,-4.48451 20.07831,-2.55173 24.85467,6.82972 5.90025,11.58891 14.90946,53.97514 23.15153,108.92256 21.15236,141.01642 32.46839,194.31037 48.36671,227.78774 l 9.88926,20.82393 -6.3114,4.1354 c -6.76364,4.4317 -39.69997,12.9733 -49.14035,12.7439 -3.14285,-0.076 -8.46488,-1.2491 -11.82672,-2.6059 z m -53.93648,-199.03567 13.60577,-1.86487 -1.87338,-18.84941 c -3.02686,-30.45532 -10.0265,-69.34722 -14.83385,-82.42084 -7.50502,-20.40995 -14.35311,-16.15006 -43.53857,27.08337 -12.81685,18.98605 -37.59677,67.85007 -37.59677,74.13783 0,2.92983 7.93425,3.7788 35.31551,3.7788 19.42354,0 41.43811,-0.83919 48.92129,-1.86488 z"
       id="path922"
       inkscape:connector-curvature="0"
       transform="scale(0.26458333)" />
    <path
       style="fill:#ffaaaa;fill-opacity:1;stroke-width:2.85714293"
       d="m 653.39127,1015.0946 c -42.48712,-14.6917 -67.26664,-43.21057 -80.62359,-92.79013 -6.68628,-24.81874 -6.59672,-112.31283 0.14319,-139.89139 12.67205,-51.85187 37.50748,-95.42938 65.18858,-114.3832 23.75338,-16.26443 37.16226,-20.23292 68.18626,-20.18039 31.59608,0.0535 54.34848,7.17252 68.65862,21.48266 34.63892,34.63892 27.52196,101.38365 -12.41604,116.44087 C 737.9287,795.04742 712,779.0913 712,754.67869 c 0,-6.73582 2.83631,-11.65744 11.42857,-19.83106 10.18396,-9.68776 11.42857,-12.34056 11.42857,-24.3591 0,-7.41805 -1.32383,-15.96096 -2.94184,-18.98425 -4.38331,-8.19028 -18.0032,-14.12745 -32.40845,-14.12745 -26.56773,0 -49.37812,28.892 -61.81278,78.29303 -28.04583,111.42194 1.79566,195.67317 69.3977,195.92994 27.41999,0.10429 49.93528,-13.053 68.06259,-39.77334 5.33653,-7.86626 11.20777,-14.33544 13.0472,-14.37596 9.16472,-0.20189 7.59494,39.81116 -2.48707,63.39421 -18.35082,42.92489 -85.48189,70.44729 -132.32322,54.24989 z"
       id="path924"
       inkscape:connector-curvature="0"
       transform="scale(0.26458333)" />
    <path
       style="fill:#ffaaaa;fill-opacity:1;stroke-width:2.85714293"
       d="m 831.1994,1018.3929 c -0.86258,-1.3957 -0.16199,-8.9452 1.55686,-16.7768 2.01404,-9.17661 3.19705,-65.03119 3.32732,-157.09641 0.21002,-148.42747 0.1248,-149.72896 -11.6486,-177.89779 -0.92178,-2.20544 2.76072,-5.40042 9.45623,-8.20432 14.84238,-6.21561 54.13172,-12.85928 62.95341,-10.64517 6.18597,1.55258 6.91574,2.94547 5.43145,10.36691 -0.94307,4.71535 -2.56489,34.93552 -3.60405,67.15595 -1.60511,49.76831 -1.28194,58.39213 2.14787,57.31674 2.22049,-0.69621 18.5484,-20.48037 36.28425,-43.9648 44.65677,-59.131 69.46896,-86.0021 82.84196,-89.71615 12.5603,-3.48833 46.2156,-3.88079 51.3855,-0.59921 2.5392,1.61173 -0.4414,5.1887 -10,12.00111 C 1030.0355,682.63757 952,764.19472 952,774.59854 c 0,3.27153 3.11267,5.53521 9.28571,6.75303 14.24985,2.81122 42.96639,23.75586 53.26709,38.8508 12.4149,18.19313 19.2679,41.61023 24.4558,83.56744 4.8548,39.2631 10.548,63.7367 18.8281,80.93765 3.0755,6.389 5.5919,12.9994 5.5919,14.68977 0,7.02907 -50.3945,20.29287 -64.06481,16.86177 -3.95937,-0.9937 -8.6797,-4.5738 -10.48963,-7.9557 -1.90599,-3.5614 -4.37011,-31.50093 -5.85566,-66.39481 -1.41068,-33.13527 -4.37515,-69.52374 -6.5877,-80.86326 -6.029,-30.89903 -24.75938,-55.09697 -42.64772,-55.09697 -7.74292,0 -17.34195,9.97566 -29.40358,30.55728 l -7.56759,12.91313 1.83206,75.37304 1.83206,75.37299 -6.42764,4.2116 c -15.32517,10.0414 -59.25127,19.8378 -62.84899,14.0166 z"
       id="path926"
       inkscape:connector-curvature="0"
       transform="scale(0.26458333)" />
    <path
       style="fill:#ffaaaa;fill-opacity:1;stroke-width:2.85714293"
       d="m 1196.2857,1014.6542 c -49.5157,-12.3493 -82.3561,-57.06386 -89.2812,-121.56309 l -2.1474,-20 -15,-2.54469 c -11.1539,-1.89222 -15,-3.77914 -15,-7.3591 0,-6.48297 11.6404,-17.02865 21.7695,-19.72224 7.6032,-2.0219 8.3427,-3.4348 9.7024,-18.53817 1.6219,-18.01539 1.6993,-17.93864 -19.8233,-19.63596 -5.3789,-0.4242 -10.3054,-2.37223 -10.9478,-4.32896 -2.0598,-6.27511 14.3221,-19.65768 26.4601,-21.61548 11.3034,-1.82318 11.4856,-2.05348 19.3916,-24.51091 24.2219,-68.80345 76.6866,-109.09546 141.6947,-108.81918 35.2088,0.14963 48.8957,8.29194 48.8957,29.0879 v 11.38015 l -15,-2.41096 c -39.3834,-6.33014 -63.1792,-0.27098 -85.2279,21.70178 -16.5469,16.48998 -33.0515,46.0438 -36.0572,64.56562 l -1.6054,9.89306 h 53.231 c 58.1825,0 59.8689,0.56561 46.8024,15.6975 -6.3553,7.35988 -7.0066,7.46445 -57.1429,9.17504 l -50.7143,1.73032 v 18.12714 18.12714 h 57.3354 57.3354 l -1.9591,6.42858 c -4.5789,15.02581 -8.3499,16.42857 -44.164,16.42857 -18.383,0 -41.4594,0.83989 -51.2809,1.86644 l -17.8571,1.86643 1.7528,10.96113 c 5.2733,32.97751 24.8631,65.86131 45.5256,76.42005 11.865,6.0632 17.5504,7.03906 40,6.86589 18.9342,-0.146 30.8036,-1.8588 42.9328,-6.1952 9.2201,-3.29634 17.8566,-5.31797 19.1922,-4.49254 7.1586,4.42425 -7.3071,37.78328 -20.439,47.13404 -20.2032,14.3859 -69.3459,21.5193 -98.3741,14.2797 z"
       id="path928"
       inkscape:connector-curvature="0"
       transform="scale(0.26458333)" />
    <path
       style="fill:#82362e;fill-opacity:1;stroke-width:2.85714293"
       d="m 1331.6837,1019.0126 c -0.9597,-0.9857 -0.6245,-7.2213 0.7449,-13.8569 1.3694,-6.6355 4.0112,-52.85084 5.8707,-102.70073 4.1299,-110.71486 0.8899,-193.07826 -8.6856,-220.79243 -5.3465,-15.47435 -5.4857,-17.47565 -1.4303,-20.56216 14.7004,-11.18826 107.9383,-19.05525 149.1573,-12.58522 26.9579,4.23149 49.7317,15.30817 66.5621,32.37434 16.3841,16.61369 20.8704,28.79334 20.8367,56.56869 -0.022,18.35434 -1.1948,23.5042 -7.9926,35.10378 -9.9218,16.9302 -29.3287,31.41451 -52.604,39.2609 -9.8215,3.31092 -17.8572,7.16307 -17.8572,8.56034 0,1.39728 7.0442,5.87292 15.6537,9.94587 17.916,8.47563 30.5915,22.30223 35.5171,38.74273 1.8742,6.2554 5.2653,28.11156 7.5358,48.56923 4.659,41.97913 10.8178,59.71427 25.769,74.20559 5.3956,5.22957 9.8101,11.14877 9.8101,13.15367 0,5.8519 -30.8651,13.5691 -54.762,13.6922 -19.3595,0.1 -22.7663,-0.6955 -29.3178,-6.8439 -10.5851,-9.9337 -12.7734,-21.32854 -15.8117,-82.33491 -3.6854,-73.99858 -8.1541,-83.98368 -41.9873,-93.81925 -16.8294,-4.89245 -18.7419,-9.01874 -11.0628,-23.86854 3.3116,-6.40395 7.3955,-8.86088 19.2857,-11.60275 35.19,-8.11471 53.1712,-34.46559 50.0502,-73.3468 -2.9451,-36.69046 -21.824,-51.02575 -64.6378,-49.08147 -12.6116,0.57272 -24.3037,2.4149 -25.9825,4.09374 -1.6789,1.67884 -4.3002,10.67191 -5.8252,19.98461 -3.6443,22.25425 -3.5553,205.84238 0.1246,256.88348 2.8649,39.73812 2.8458,39.9782 -3.5965,44.99299 -11.4946,8.9478 -60.3959,20.3664 -65.3646,15.2629 z"
       id="path930"
       inkscape:connector-curvature="0"
       transform="scale(0.26458333)" />
    <path
       style="fill:#82362e;fill-opacity:1;stroke-width:2.85714293"
       d="m 1202.3276,1014.2274 c -50.2503,-8.5864 -86.8557,-56.29974 -94.031,-122.56486 l -2.0109,-18.57143 -13.9089,-3.43268 c -7.6498,-1.88797 -14.5587,-4.08252 -15.3529,-4.87678 -3.0726,-3.07256 2.423,-10.6885 11.0882,-15.36638 16.7119,-9.02183 19.9851,-13.92874 19.0383,-28.5406 l -0.8647,-13.3442 -12.8571,-2.47214 c -7.0715,-1.35967 -13.9279,-3.49352 -15.2365,-4.74189 -3.6901,-3.52007 12.6665,-17.02027 22.9613,-18.95159 11.5662,-2.16983 12.5773,-3.48561 23.2045,-30.1974 14.7623,-37.10559 36.0368,-64.83114 63.0452,-82.16235 26.0369,-16.70785 61.4392,-24.3024 93.1683,-19.98662 20.2416,2.75324 30,11.42413 30,26.65657 v 9.40814 l -16.4285,-2.66722 c -35.5984,-5.77948 -62.7339,2.20324 -84.8529,24.96197 -13.7238,14.12076 -31.5498,46.22263 -34.507,62.14175 l -1.9904,10.71428 h 35.6132 c 37.7715,0 70.779,2.52531 70.6735,5.40702 -0.035,0.95471 -2.4538,4.84519 -5.3752,8.64552 -5.0191,6.52913 -7.5726,7.03047 -46.365,9.1029 -22.5794,1.20628 -45.8748,2.27549 -51.7677,2.37604 l -10.7143,0.18281 v 18.57143 18.57142 h 57.3354 57.3354 l -1.9277,6.42858 c -3.9326,13.11414 -6.7777,13.88486 -59.4168,16.09548 -27.6901,1.16287 -51.1286,2.89729 -52.0855,3.85426 -2.8171,2.81707 4.033,30.9936 11.3965,46.87758 7.9177,17.07945 24.5841,36.50142 37.148,43.28996 12.8037,6.91812 57.4446,6.60092 80.9473,-0.5752 9.8315,-3.00183 18.5992,-4.73414 19.4838,-3.84957 3.3778,3.37789 -5.8368,25.55249 -15.1299,36.4094 -7.4322,8.6829 -13.86,12.6144 -27.3984,16.7579 -22.4848,6.8815 -50.5094,9.2155 -70.2176,5.8479 z"
       id="path932"
       inkscape:connector-curvature="0"
       transform="scale(0.26458333)" />
    <path
       style="fill:#82362e;fill-opacity:1;stroke-width:2.85714293"
       d="m 834.85714,852.70938 c 0,-149.58801 -0.46319,-166.35509 -4.86394,-176.07012 -4.77475,-10.54068 -4.74631,-10.81465 1.55101,-14.94081 8.25764,-5.41061 47.4582,-13.53913 59.64205,-12.36721 7.19008,0.69159 9.37931,2.23924 9.36014,6.61702 -0.0137,3.14285 -1.13105,31.85414 -2.48285,63.80286 -1.83903,43.46393 -1.61406,58.92947 0.89358,61.42857 2.55891,2.55021 4.49724,1.89406 8.19713,-2.77484 2.66516,-3.36316 16.29572,-20.7203 30.29015,-38.57143 68.30219,-87.12546 72.96879,-91.10074 107.20579,-91.32447 12.9613,-0.0847 24.1336,0.41355 24.8272,1.10722 0.6937,0.69367 -7.6243,8.53075 -18.4844,17.41573 -34.7739,28.44962 -100.42157,99.02042 -100.42157,107.95249 0,1.35548 6.75,5.4709 15,9.14539 23.38698,10.4164 42.56277,27.3 52.68757,46.38955 9.1826,17.31298 13.9101,36.76741 23.6715,97.41217 3.0844,19.16221 8.8984,42.93839 12.9202,52.8359 6.859,16.8802 7.0054,18.21986 2.3627,21.6147 -10.3869,7.5951 -46.0954,14.3284 -58.91886,11.11 -9.26507,-2.3254 -9.93113,-5.5824 -13.52056,-66.11527 -1.67726,-28.28572 -4.23777,-61.39744 -5.69003,-73.5816 -4.66401,-39.13035 -23.36855,-67.84697 -44.19204,-67.84697 -10.54332,0 -18.47918,7.58645 -31.91083,30.50583 l -7.53745,12.86168 2.03939,75.53029 2.03939,75.53024 -16.07154,7.3578 c -8.83935,4.0468 -23.38903,8.0216 -32.33264,8.8328 l -16.26109,1.475 z"
       id="path934"
       inkscape:connector-curvature="0"
       transform="scale(0.26458333)" />
    <path
       style="fill:#82362e;fill-opacity:1;stroke-width:2.85714293"
       d="m 656.28571,1014.8591 c -28.95719,-9.511 -56.01496,-32.74127 -69.78342,-59.91201 -13.6644,-26.96542 -16.22297,-43.02949 -16.22284,-101.85598 1.5e-4,-63.98235 3.96798,-84.36496 24.5714,-126.22238 16.6153,-33.75524 35.76071,-54.91188 60.88423,-67.28015 18.01849,-8.87048 20.63155,-9.35148 50.49056,-9.29409 37.66836,0.0724 55.54223,6.36978 71.71847,25.26808 34.94833,40.82926 15.45358,110.38569 -30.93806,110.38569 -12.28139,0 -15.4311,-1.28219 -23.86319,-9.71429 -13.4475,-13.4475 -13.03039,-23.24957 1.71428,-40.28571 9.09435,-10.5077 11.42857,-15.46543 11.42857,-24.27349 0,-23.91737 -11.06892,-34.29794 -36.57229,-34.29794 -21.48291,0 -34.61802,10.96415 -48.69985,40.65079 -30.13669,63.53269 -32.90334,153.96775 -6.05492,197.92064 7.81296,12.79042 22.83191,26.28923 34.80672,31.28377 5.84239,2.43677 18.76852,4.43051 28.72474,4.43051 22.70368,0 43.81317,-9.77471 57.75884,-26.74513 5.34512,-6.50446 12.33535,-15.04058 15.53383,-18.96915 8.42088,-10.34305 12.36653,-3.36317 10.49824,18.57143 -3.35688,39.41105 -21.47965,65.02271 -58.16459,82.20001 -16.45987,7.7072 -22.99696,9.1246 -44.97357,9.7517 -14.14286,0.4036 -28.92857,-0.322 -32.85715,-1.6123 z"
       id="path936"
       inkscape:connector-curvature="0"
       transform="scale(0.26458333)" />
    <path
       style="fill:#82362e;fill-opacity:1;stroke-width:2.85714293"
       d="m 489.86387,1015.234 c -7.23819,-8.1322 -13.04657,-32.5682 -20.78863,-87.45831 -8.11143,-57.5089 -9.47551,-64.53275 -13.53333,-69.68458 -2.06645,-2.62356 -16.63096,-3.57142 -54.8775,-3.57142 -62.79599,0 -60.13794,-1.51712 -63.03691,35.9792 -1.57225,20.33617 -0.98076,29.51461 2.72308,42.2554 6.30241,21.67951 12.44674,27.47968 29.11025,27.47968 h 13.17512 l -1.93235,10.71429 c -3.2692,18.12674 -11.08645,30.00274 -24.37427,37.02954 -23.79851,12.5849 -50.85163,6.4608 -62.04776,-14.04606 -4.16433,-7.62737 -5.11409,-15.91317 -5.00888,-43.69777 0.11822,-31.21736 4.3862,-58.17061 14.30463,-90.337 1.1634,-3.77301 -1.73904,-4.98074 -15.79024,-6.57045 -9.46861,-1.07125 -17.21565,-2.59059 -17.21565,-3.37631 0,-0.78572 2.01396,-5.32316 4.47548,-10.0832 5.06537,-9.79536 19.11524,-16.7759 33.76519,-16.7759 9.66822,0 10.18037,-0.62372 27.34224,-33.29843 42.68112,-81.26116 88.99152,-137.7094 120.79461,-147.23784 9.7403,-2.91826 11.69827,-2.65778 16.55905,2.203 6.96467,6.96467 14.77564,37.39072 23.92454,93.19311 23.20047,141.50791 28.14207,169.28247 34.71897,195.14016 3.99693,15.71429 11.57419,38.56055 16.83836,50.76943 9.54199,22.13026 9.55287,22.20786 3.56533,25.41226 -19.96868,10.6869 -55.47963,14.0636 -62.69133,5.9612 z m -42.5748,-194.0193 c 6.46236,-1.73004 6.64247,-2.51572 4.73954,-20.67527 -3.10488,-29.62983 -11.99523,-76.24087 -16.22508,-85.06616 -8.03076,-16.75562 -17.91826,-10.53094 -42.42409,26.70812 -17.49066,26.57881 -41.01272,74.02299 -38.61935,77.89554 2.03115,3.28648 80.88106,4.25604 92.52898,1.13777 z"
       id="path938"
       inkscape:connector-curvature="0"
       transform="scale(0.26458333)" />
    <path
       style="fill:#82362e;fill-opacity:1;stroke-width:2.85714293;stroke:none"
       d="m 17.116913,1006.7433 c 0.780694,-7.50867 3.098296,-54.44007 5.150228,-104.29195 4.192781,-101.86398 1.199822,-186.95208 -7.635716,-217.07902 -2.62765,-8.95962 -4.039449,-18.21367 -3.137332,-20.56454 5.332601,-13.89654 122.885397,-22.2704 163.363047,-11.63715 54.02856,14.193 82.63966,57.66461 68.94858,104.76025 -7.31271,25.15484 -23.45823,38.98016 -65.72994,56.28416 -7.93727,3.24914 -8.04194,3.54638 -3.15169,8.95004 2.78203,3.07411 10.57106,8.82002 17.30894,12.76868 22.39143,13.12225 26.20635,22.2951 35.23707,84.72638 6.56361,45.37562 9.90715,54.68639 25.84863,71.98085 l 11.75448,12.7521 -13.67946,5.2776 c -9.79426,3.7786 -21.25732,5.2776 -40.36047,5.2776 -24.54123,0 -27.11605,-0.5373 -32.10556,-6.6991 -8.2335,-10.16791 -10.53607,-23.0466 -13.95747,-78.06663 -3.27805,-52.71468 -7.82932,-75.27474 -16.82903,-83.41937 -2.93935,-2.66008 -12.91645,-7.80458 -22.17132,-11.43222 -15.39957,-6.03618 -16.77524,-7.28616 -16.21641,-14.73477 0.8381,-11.17088 7.96327,-17.10774 27.0146,-22.50921 30.2026,-8.5631 48.12535,-38.10736 43.85444,-72.29062 -4.5809,-36.66423 -19.64451,-49.24379 -59.10314,-49.3568 -26.65127,-0.0763 -29.89677,1.05045 -35.791719,12.42634 -3.866271,7.461 -4.84888,22.87928 -5.941251,93.22519 -0.719863,46.35715 0.138171,113.21429 1.906754,148.57143 l 3.215595,64.28572 -7.269172,6.37794 c -7.489583,6.5714 -27.691171,13.2275 -49.505148,16.3112 l -12.436979,1.7582 z"
       id="path940"
       inkscape:connector-curvature="0"
       transform="scale(0.26458333)" />
    <path
       style="fill:#82362e;fill-opacity:1;stroke-width:2.85714293;stroke:none"
       d="m -157.03329,1005.6563 c 8.76061,-63.18416 16.69322,-274.62789 11.48515,-306.13661 l -1.77096,-10.71429 h -24.98123 c -14.98058,0 -29.87862,1.7279 -37.21471,4.31622 -6.72841,2.37392 -12.59674,3.95295 -13.04073,3.50896 -2.34545,-2.34545 9.27338,-19.88991 20.41102,-30.82067 11.96825,-11.74595 13.98413,-12.62459 33.44038,-14.57534 11.3874,-1.14174 43.89853,-2.15538 72.246944,-2.25253 36.46232,-0.12496 56.434832,-1.45091 68.26374,-4.53195 9.196637,-2.39542 17.399077,-3.6774 18.2276374,-2.84883 2.7980515,2.79805 -12.0505344,30.52892 -19.8698254,37.10842 -6.145137,5.17079 -12.808846,6.94961 -32.033297,8.551 -18.752569,1.56208 -24.697618,3.10505 -26.136186,6.78337 -1.024174,2.61874 -1.475437,72.08063 -1.002803,154.35976 l 0.859334,149.59842 -6.582797,5.33037 c -8.564017,6.9348 -23.182487,11.1549 -45.798967,13.2216 l -18.24489,1.6672 z"
       id="path942"
       inkscape:connector-curvature="0"
       transform="scale(0.26458333)" />
    <path
       style="fill:#82362e;fill-opacity:1;stroke-width:2.85714293;stroke:none"
       d="m 215.57143,601.31943 c -2.75,-0.82746 -4.96316,-3.01732 -4.91814,-4.86637 0.045,-1.84909 11.67754,-18.14766 25.85003,-36.21909 32.80827,-41.83403 56.09035,-88.49428 89.81465,-180 52.16155,-141.53239 69.04131,-177.14286 83.9677,-177.14286 17.25694,0 51.9215,38.36138 63.66272,70.45206 8.52989,23.31358 8.5928,81.08376 0.12252,112.49308 -13.65036,50.61787 -37.40382,97.05973 -67.90051,132.75649 -27.43928,32.118 -75.16951,65.13532 -109.65549,75.85397 -17.92526,5.5714 -70.264,9.88603 -80.94347,6.67272 z"
       id="path944"
       inkscape:connector-curvature="0"
       transform="scale(0.26458333)" />
  </g>
</svg>
