<?xml version="1.0" encoding="UTF-8" standalone="no"?>
<!-- Created with Inkscape (http://www.inkscape.org/) -->

<svg
   xmlns:dc="http://purl.org/dc/elements/1.1/"
   xmlns:cc="http://creativecommons.org/ns#"
   xmlns:rdf="http://www.w3.org/1999/02/22-rdf-syntax-ns#"
   xmlns:svg="http://www.w3.org/2000/svg"
   xmlns="http://www.w3.org/2000/svg"
   xmlns:sodipodi="http://sodipodi.sourceforge.net/DTD/sodipodi-0.dtd"
   xmlns:inkscape="http://www.inkscape.org/namespaces/inkscape"
   width="210mm"
   height="297mm"
   viewBox="0 0 210 297"
   version="1.1"
   id="svg28"
   sodipodi:docname="CoffeeTrackerLogo1.svg"
   inkscape:version="0.92.5 (2060ec1f9f, 2020-04-08)">
  <defs
     id="defs22" />
  <sodipodi:namedview
     id="base"
     pagecolor="#ffffff"
     bordercolor="#666666"
     borderopacity="1.0"
     inkscape:pageopacity="0.0"
     inkscape:pageshadow="2"
     inkscape:zoom="0.7"
     inkscape:cx="649.45536"
     inkscape:cy="684.77296"
     inkscape:document-units="mm"
     inkscape:current-layer="layer1"
     showgrid="false"
     inkscape:window-width="1868"
     inkscape:window-height="904"
     inkscape:window-x="52"
     inkscape:window-y="34"
     inkscape:window-maximized="1" />
  <metadata
     id="metadata25">
    <rdf:RDF>
      <cc:Work
         rdf:about="">
        <dc:format>image/svg+xml</dc:format>
        <dc:type
           rdf:resource="http://purl.org/dc/dcmitype/StillImage" />
      </cc:Work>
    </rdf:RDF>
  </metadata>
  <g
     inkscape:label="Ebene 1"
     inkscape:groupmode="layer"
     id="layer1">
    <path
       style="fill:#4e342e;fill-opacity:1;stroke-width:0.22401319"
       d="m 99.149576,219.38296 c -0.692956,-0.15225 -1.064097,-0.76475 -1.430525,-2.36081 -0.388479,-1.69212 -1.057813,-6.66056 -1.402916,-10.41382 -0.132067,-1.43634 -0.309242,-2.69379 -0.393722,-2.79433 -0.08447,-0.10055 -2.239512,-0.15397 -4.788964,-0.11871 l -4.635367,0.0641 -0.276689,1.78059 c -0.152178,0.97932 -0.233278,2.59602 -0.180217,3.59266 0.162614,3.05435 1.033139,4.38418 2.812985,4.29717 l 0.920175,-0.045 v 0.95214 c 0,1.11141 -0.466882,2.48692 -1.101762,3.24598 -0.555718,0.66441 -2.470905,1.48948 -3.457434,1.48948 -3.607219,0 -4.845631,-5.32348 -2.946489,-12.66586 0.275266,-1.06422 0.564958,-2.1219 0.64376,-2.35041 0.12764,-0.37012 -0.0099,-0.41547 -1.259882,-0.41547 -1.64707,0 -1.891899,-0.30658 -1.273996,-1.5953 0.631397,-1.31688 1.25343,-1.72846 2.612244,-1.72846 h 1.191533 l 1.115367,-2.51899 c 3.087861,-6.97376 7.045421,-12.72925 9.82492,-14.28841 1.580036,-0.88633 2.426975,-0.64102 2.960825,0.85758 0.501205,1.40696 1.326963,6.09107 1.932858,10.96417 1.56898,12.61893 2.82217,18.88407 4.25002,21.24734 0.29682,0.49127 0.49154,1.0341 0.43271,1.20628 -0.32636,0.95528 -3.85287,1.9708 -5.549434,1.59806 z M 95.41919,199.91902 c 0.148798,-0.43553 -0.66421,-6.76659 -1.11591,-8.68986 -0.155108,-0.66042 -0.425644,-1.36208 -0.601191,-1.55926 -0.28466,-0.31973 -0.404105,-0.25764 -1.1044,0.57409 -1.588525,1.88667 -4.40554,7.22649 -5.032162,9.53876 l -0.144764,0.53418 h 3.931245 c 3.482925,0 3.946744,-0.0454 4.067182,-0.39791 z m -51.286589,19.1799 c -0.247135,-0.18502 -0.258847,-0.39331 -0.06385,-1.13553 0.803934,-3.06008 1.56023,-29.41132 0.858111,-29.89872 -0.136504,-0.0947 -1.080122,-0.17228 -2.096931,-0.17228 -1.570818,0 -2.017649,0.0939 -2.972277,0.62453 -0.655755,0.36451 -1.201792,0.53663 -1.311499,0.41341 -0.29487,-0.33119 0.69289,-2.37598 1.687277,-3.49287 1.447894,-1.62627 2.389196,-1.82266 7.166778,-1.49524 4.358949,0.29874 6.877828,0.0838 8.51149,-0.72634 0.760317,-0.37703 0.926652,-0.39532 1.023281,-0.11249 0.271506,0.7947 -1.156927,3.84753 -2.075521,4.43579 -0.269373,0.1725 -1.393382,0.36706 -2.497795,0.43235 l -2.008025,0.1187 -0.167338,3.08635 c -0.215347,3.97179 -0.02677,22.3564 0.248234,24.1996 0.251172,1.68351 0.09882,2.10225 -0.986288,2.71079 -1.441089,0.80818 -4.747141,1.43756 -5.315644,1.01195 z m 14.454102,-0.09 c -0.06794,-0.19882 -0.02018,-0.79243 0.106077,-1.31913 0.399962,-1.66833 0.635281,-7.72166 0.639776,-16.45738 0.0057,-11.0349 -0.164487,-12.90239 -1.430416,-15.69832 -0.164829,-0.36404 1.874138,-1.13814 3.902218,-1.48149 2.758025,-0.46693 8.403358,-0.46328 10.177813,0.007 3.043378,0.80586 5.593468,3.08029 6.253787,5.57776 0.428112,1.61921 0.429305,3.87682 0.0028,5.2828 -0.662983,2.18546 -2.953558,4.22591 -5.538991,4.93414 -1.026189,0.28111 -0.994731,0.54743 0.126516,1.07119 2.817823,1.31625 3.673914,3.11113 3.956316,8.29482 0.223686,4.10584 1.010963,6.41733 2.625519,7.70863 1.080673,0.86431 0.570435,1.338 -2.18214,2.02583 -2.29546,0.57361 -3.956342,0.41528 -4.764315,-0.45418 -0.905107,-0.97397 -1.11801,-2.30084 -1.279545,-7.97452 -0.125693,-4.41474 -0.204078,-5.25216 -0.580178,-6.19845 -0.582087,-1.46454 -1.657513,-2.35812 -3.071266,-2.55192 -1.322198,-0.18126 -1.482226,-0.6022 -0.844157,-2.22049 0.387148,-0.98189 0.448999,-1.02846 1.724439,-1.2984 1.858631,-0.39337 2.789015,-1.15871 3.585822,-2.9497 0.523077,-1.17573 0.656517,-1.77556 0.656517,-2.95108 0,-3.92011 -1.745684,-5.75224 -5.262911,-5.52355 -2.659158,0.17291 -2.691694,0.2197 -2.889199,4.15567 -0.253434,5.05051 -0.18963,16.53933 0.119989,21.60597 l 0.278712,4.56086 -0.509242,0.47863 c -0.786161,0.73891 -2.50344,1.38561 -4.168856,1.56993 -1.252677,0.13865 -1.532715,0.10539 -1.635067,-0.1942 z m 54.227077,-0.0219 c -2.65778,-0.81268 -4.87017,-2.81709 -6.0223,-5.45618 -1.35698,-3.10832 -1.66233,-4.91354 -1.67292,-9.8901 -0.0101,-4.74596 0.2551,-6.8111 1.29577,-10.08998 1.76649,-5.56578 4.44269,-8.65607 8.33164,-9.62079 2.50579,-0.62161 6.12958,0.1369 7.78381,1.62924 0.41078,0.37057 1.06426,1.36718 1.4522,2.21468 0.62208,1.35904 0.70619,1.76376 0.71266,3.42903 0.009,2.25595 -0.5549,3.9866 -1.65028,5.06684 -1.60308,1.58093 -3.97191,1.5318 -5.119,-0.10618 -0.90118,-1.28681 -1.00161,-3.44377 -0.16035,-3.44377 0.17134,0 0.5731,-0.38518 0.89279,-0.85597 0.46223,-0.68066 0.58349,-1.11723 0.59204,-2.13167 0.01,-1.12051 -0.0697,-1.36612 -0.65049,-2.01888 -1.30345,-1.46494 -3.43962,-1.18645 -4.94205,0.6443 -1.09286,1.33168 -1.76999,2.96473 -2.41646,5.82778 -2.35892,10.44713 0.16101,18.47237 5.80036,18.47237 2.30928,0 4.413,-1.55704 5.99881,-4.43991 0.37426,-0.68038 0.65397,-0.95778 0.87133,-0.8641 0.46166,0.19898 0.59383,1.05415 0.48346,3.12802 -0.22743,4.27298 -2.65368,7.19454 -7.02811,8.46288 -1.4863,0.43094 -3.2291,0.44717 -4.55291,0.0424 z m 14.61433,0.12594 c -0.23324,-0.17801 -0.24232,-0.45495 -0.0483,-1.47138 0.73052,-3.82589 0.84537,-25.82938 0.15272,-29.25669 -0.17836,-0.88258 -0.47176,-1.84116 -0.65199,-2.13018 -0.18023,-0.28901 -0.3277,-0.61455 -0.3277,-0.72342 0,-0.66449 4.91763,-2.00775 6.29093,-1.71838 l 0.73804,0.15551 -0.1315,1.82353 c -0.29354,4.07068 -0.40752,10.96386 -0.18131,10.96386 0.12397,0 1.17295,-1.46899 2.33105,-3.26441 3.78947,-5.87484 6.13078,-8.87951 7.38011,-9.47113 0.80767,-0.38247 4.45135,-0.43338 4.92116,-0.0688 0.27514,0.21354 0.26439,0.28368 -0.0813,0.53054 -2.21602,1.58293 -6.06323,5.6386 -8.74354,9.21731 -1.59891,2.13484 -1.79588,2.58162 -1.13811,2.58162 0.76645,0 3.36186,1.66841 4.21766,2.71123 1.64915,2.00953 2.46151,4.46564 2.78866,8.43132 0.36881,4.47091 1.14244,7.91454 2.03594,9.06245 0.16317,0.20963 0.238,0.55287 0.16628,0.76277 -0.26727,0.7823 -4.33584,2.01365 -5.61268,1.69866 -1.20456,-0.29716 -1.28534,-0.71197 -1.46835,-7.54051 -0.20129,-7.51066 -0.47558,-9.02055 -2.01091,-11.06998 -0.70721,-0.94402 -1.68642,-1.52202 -2.29016,-1.35183 -0.49656,0.13998 -1.43737,1.4843 -2.26132,3.23118 -0.47783,1.01301 -0.50134,1.26514 -0.45416,4.86694 0.0274,2.08922 0.15454,5.17067 0.28258,6.84767 0.22701,2.97317 0.22152,3.0626 -0.22117,3.59187 -0.8278,0.98971 -4.95597,2.14489 -5.68279,1.59021 z m 41.917,-0.10402 c -0.0679,-0.19883 -0.0201,-0.79244 0.10604,-1.31914 0.39997,-1.66833 0.63528,-7.72166 0.63977,-16.45737 0.007,-11.0349 -0.16449,-12.90239 -1.43041,-15.69832 -0.16484,-0.36404 1.87414,-1.13814 3.90222,-1.4815 2.75801,-0.46692 8.40335,-0.46327 10.17781,0.007 3.04338,0.80587 5.59347,3.0803 6.25378,5.57776 0.42813,1.61922 0.4293,3.87682 0.002,5.28281 -0.66299,2.18546 -2.95356,4.22591 -5.539,4.93414 -1.02617,0.2811 -0.99472,0.54743 0.12652,1.07119 2.81782,1.31625 3.67392,3.11113 3.95632,8.29482 0.22368,4.10584 1.01097,6.41733 2.62552,7.70863 1.08067,0.8643 0.57043,1.33799 -2.18214,2.02583 -2.29546,0.57361 -3.95635,0.41527 -4.76431,-0.45418 -0.90512,-0.97398 -1.11802,-2.30085 -1.27955,-7.97452 -0.1257,-4.41474 -0.20408,-5.25216 -0.58018,-6.19845 -0.58209,-1.46454 -1.65751,-2.35812 -3.07127,-2.55193 -1.3222,-0.18126 -1.48223,-0.60219 -0.84416,-2.22048 0.38716,-0.9819 0.449,-1.02846 1.72445,-1.2984 1.85863,-0.39338 2.78901,-1.15871 3.58582,-2.94971 0.52307,-1.17573 0.65652,-1.77555 0.65652,-2.95107 0,-3.92011 -1.74568,-5.75224 -5.26292,-5.52355 -2.65915,0.1729 -2.6917,0.2197 -2.88918,4.15566 -0.25344,5.05052 -0.18965,16.53934 0.11993,21.60598 l 0.27872,4.56086 -0.50926,0.47863 c -0.78616,0.7389 -2.50345,1.38561 -4.16885,1.56993 -1.25268,0.13865 -1.53272,0.10538 -1.63507,-0.1942 z m -11.4872,-0.31216 c -4.17687,-1.2616 -6.87987,-5.59616 -7.3902,-11.85098 l -0.13557,-1.66188 -1.32107,-0.0707 c -1.20429,-0.0644 -1.32041,-0.11691 -1.31348,-0.59354 0.0142,-0.98146 1.33633,-2.30343 2.30359,-2.30343 0.37232,0 0.43707,-0.14861 0.43952,-1.009 0.001,-0.55494 0.059,-1.24424 0.12769,-1.53176 0.11859,-0.49692 0.0533,-0.52626 -1.32178,-0.59353 -1.75892,-0.086 -1.93401,-0.44613 -0.85811,-1.76478 0.58507,-0.71708 0.91822,-0.91441 1.72504,-1.02181 l 0.99994,-0.13311 0.46827,-1.66188 c 0.79413,-2.81828 1.97271,-5.04696 3.71535,-7.02556 2.36575,-2.68609 4.79016,-3.76737 8.45709,-3.77183 3.20126,-0.004 4.22743,0.69086 4.22743,2.86211 0,0.62757 -0.085,1.20004 -0.18892,1.27217 -0.10392,0.0721 -0.52888,-0.0284 -0.94439,-0.2234 -0.44199,-0.20743 -1.41277,-0.35454 -2.3396,-0.35454 -1.84641,0 -3.41681,0.56703 -4.596,1.65949 -1.37336,1.27236 -2.91149,4.27049 -3.46755,6.75895 l -0.13478,0.60319 h 4.44923 c 2.70494,0 4.49987,0.0921 4.57842,0.23479 0.19987,0.36323 -0.49136,1.80117 -1.01213,2.10554 -0.29098,0.17006 -1.97454,0.29445 -4.48207,0.33114 l -4.01605,0.0588 -0.0625,1.60253 -0.0625,1.60252 h 4.76551 4.76549 v 0.69113 c 0,0.4803 -0.19837,0.87863 -0.65033,1.30577 l -0.65032,0.61463 h -4.10553 c -3.44652,0 -4.1055,0.0553 -4.1055,0.34443 0,0.95645 0.5412,3.044 1.18307,4.56339 1.31548,3.11395 3.18377,4.2614 6.61688,4.06391 1.31897,-0.0759 2.19279,-0.27706 3.1861,-0.73356 1.69048,-0.77689 1.87172,-0.63877 1.53412,1.16914 -0.43253,2.31607 -1.80392,3.71723 -4.37397,4.46892 -1.55826,0.45576 -4.48917,0.45223 -6.01039,-0.007 z M 49.125852,180.25553 c -4.388344,-1.35501 -7.052659,-4.79144 -8.408828,-10.84567 -0.631657,-2.81986 -0.787813,-8.86951 -0.321046,-12.43771 0.664212,-5.07754 2.411257,-10.20159 4.413331,-12.94418 1.159109,-1.58784 3.374471,-3.3413 5.121587,-4.05373 2.684551,-1.09469 6.863217,-0.81352 9.404333,0.6328 2.682972,1.52706 4.223761,5.38043 3.62088,9.05548 -0.56331,3.43383 -2.080137,5.21867 -4.658179,5.48124 -2.256104,0.22978 -3.809858,-1.17671 -3.989625,-3.6115 -0.093,-1.25961 -0.08798,-1.27218 0.743931,-1.86203 1.53427,-1.08787 2.159917,-3.84311 1.204766,-5.30559 -0.915685,-1.40206 -2.943316,-1.91827 -4.427525,-1.1272 -1.005383,0.53586 -2.294416,2.08219 -3.032751,3.63811 -1.951119,4.11167 -2.968617,12.88439 -2.06128,17.7721 0.653454,3.52009 2.359807,6.39033 4.49736,7.56498 1.684816,0.92586 3.890013,0.93557 5.641829,0.0248 1.433998,-0.7455 3.44677,-2.94942 4.037581,-4.42101 0.406144,-1.01162 1.048022,-1.44669 1.456864,-0.98748 0.418866,0.47046 0.438137,3.94264 0.03125,5.63096 -0.433595,1.79916 -1.621378,3.95866 -2.768067,5.03258 -1.110904,1.04041 -3.48727,2.3066 -5.160103,2.74944 -1.649282,0.43661 -3.957314,0.44247 -5.346315,0.0136 z m 54.101138,-0.0629 c -0.055,-0.1 0.0239,-0.71828 0.17528,-1.37397 0.33029,-1.43016 0.69512,-6.41248 0.85092,-11.62056 0.0625,-2.08922 0.16515,-4.78681 0.22813,-5.99464 l 0.11449,-2.19606 h -1.81604 c -2.09941,0 -2.28975,-0.18567 -1.69894,-1.65726 0.56767,-1.41396 1.39758,-2.17564 2.5262,-2.31853 l 0.9712,-0.12295 -0.12324,-3.23303 c -0.1617,-4.24213 -0.42038,-6.1995 -1.05462,-7.98014 -0.28656,-0.80457 -0.52103,-1.58033 -0.52103,-1.72393 0,-0.75317 5.55711,-2.19102 10.25149,-2.65249 4.30894,-0.42357 8.03818,-0.22348 8.65063,0.46414 0.12483,0.14015 0.22695,0.97066 0.22695,1.84558 0,1.29268 -0.0593,1.57517 -0.31705,1.50761 -0.17438,-0.0457 -1.36335,-0.0843 -2.64214,-0.0858 -3.52553,-0.004 -7.71653,0.99277 -8.02985,1.90988 -0.17352,0.50786 -0.51675,5.85494 -0.52452,8.171 l -0.007,1.83994 h 4.21495 c 2.78248,0 4.26276,0.0869 4.35563,0.25566 0.24809,0.4509 -0.54224,2.3104 -1.29935,3.05704 l -0.73343,0.72329 h -3.29056 -3.29055 l 0.12774,3.14571 c 0.0703,1.73013 0.15133,5.83521 0.18019,9.1224 l 0.0524,5.97669 -0.61263,0.7206 c -0.33695,0.39633 -1.00277,0.92516 -1.4796,1.17518 -1.64081,0.86035 -5.21361,1.54062 -5.48652,1.04465 z m 20.08025,0 c -0.0551,-0.1 0.0239,-0.71828 0.17528,-1.37397 0.33029,-1.43016 0.69512,-6.41248 0.85092,-11.62056 0.0624,-2.08922 0.16515,-4.78681 0.22812,-5.99464 l 0.11454,-2.19606 h -1.81605 c -2.09941,0 -2.28973,-0.18567 -1.69893,-1.65726 0.56767,-1.41396 1.39757,-2.17564 2.52619,-2.31853 l 0.97121,-0.12295 -0.12325,-3.23303 c -0.1617,-4.24213 -0.42038,-6.1995 -1.05461,-7.98014 -0.28658,-0.80457 -0.52104,-1.58033 -0.52104,-1.72393 0,-0.75317 5.55711,-2.19102 10.2515,-2.65249 4.30894,-0.42357 8.03818,-0.22348 8.65062,0.46414 0.12484,0.14015 0.22696,0.97066 0.22696,1.84558 0,1.29268 -0.0594,1.57517 -0.31706,1.50761 -0.17438,-0.0457 -1.36334,-0.0843 -2.64213,-0.0858 -3.52554,-0.004 -7.71654,0.99277 -8.02986,1.90988 -0.17351,0.50786 -0.51673,5.85494 -0.52451,8.171 l -0.007,1.83994 h 4.21495 c 2.78248,0 4.26275,0.0869 4.35562,0.25566 0.2481,0.4509 -0.54224,2.3104 -1.29934,3.05704 l -0.73344,0.72329 h -3.29054 -3.29056 l 0.12773,3.14571 c 0.0703,1.73013 0.15134,5.83521 0.1802,9.1224 l 0.0525,5.97669 -0.61264,0.7206 c -0.33696,0.39633 -1.00278,0.92516 -1.4796,1.17518 -1.64083,0.86035 -5.21361,1.54062 -5.48651,1.04465 z m -47.335614,-0.2696 c -1.630085,-0.38552 -1.589948,-0.5536 0.908853,-3.80581 3.069797,-3.99537 4.94791,-8.06937 7.504536,-16.27887 2.923851,-9.38868 4.784619,-14.51151 6.127439,-16.86929 0.602802,-1.05842 0.842043,-1.29175 1.320122,-1.28748 2.082733,0.0186 4.768037,3.30418 5.956239,7.2877 0.555243,1.86149 0.608188,6.2846 0.10821,9.03914 -0.431328,2.37627 -1.368334,5.52291 -2.291842,7.6964 -2.84116,6.68672 -8.658933,12.46418 -13.935126,13.83855 -1.662768,0.43313 -4.635005,0.63116 -5.698421,0.37966 z m 77.335564,-0.27501 c -3.73563,-0.70245 -6.21468,-2.69391 -7.91019,-6.35442 -1.49421,-3.22589 -2.29059,-7.82607 -2.10592,-12.1646 l 0.0896,-2.10328 -1.59713,-0.0685 c -1.568,-0.0673 -1.59587,-0.0793 -1.527,-0.66204 0.11282,-0.95404 1.05727,-2.57893 1.72422,-2.96632 0.33847,-0.19659 0.89011,-0.35744 1.22585,-0.35744 0.59137,0 0.62488,-0.065 1.07175,-2.07735 0.26282,-1.1836 0.97715,-3.25199 1.66033,-4.80758 1.03116,-2.34797 1.43783,-2.99894 2.90457,-4.64943 1.33938,-1.50716 2.0907,-2.13128 3.49959,-2.90708 2.53157,-1.39402 4.09025,-1.805 6.86693,-1.81066 3.8098,-0.008 4.54448,0.5172 4.54448,3.24729 0,1.78331 -0.0245,1.80581 -1.37392,1.25979 -2.11482,-0.85576 -5.94578,-0.17655 -7.75724,1.3753 -2.03943,1.74717 -4.06044,5.90926 -4.51212,9.2923 l -0.14384,1.07742 h 5.31491 c 4.49666,0 5.33338,0.0541 5.43491,0.35125 0.15957,0.46708 -0.63405,2.27411 -1.31426,2.99245 -0.53649,0.56657 -0.6015,0.57447 -5.31324,0.64582 l -4.77013,0.0722 0.12926,2.658 c 0.21391,4.39888 0.9132,6.54986 2.80321,8.62242 2.46314,2.70105 6.94782,3.2504 10.48621,1.28449 0.66171,-0.36765 1.2562,-0.60886 1.32106,-0.53601 0.28193,0.31667 0.0875,2.97593 -0.30346,4.14944 -1.16576,3.49967 -5.544,5.35872 -10.44838,4.43651 z m 23.88492,0 c -3.73563,-0.70245 -6.21468,-2.69391 -7.9102,-6.35442 -1.49419,-3.22589 -2.29056,-7.82607 -2.1059,-12.1646 l 0.0896,-2.10328 -1.59713,-0.0685 c -1.56801,-0.0673 -1.59587,-0.0793 -1.52699,-0.66204 0.11281,-0.95404 1.05726,-2.57893 1.72421,-2.96632 0.33847,-0.19659 0.8901,-0.35744 1.22585,-0.35744 0.59137,0 0.62487,-0.065 1.07174,-2.07735 0.26283,-1.1836 0.97716,-3.25199 1.66034,-4.80758 1.03115,-2.34797 1.43783,-2.99894 2.90458,-4.64943 1.33938,-1.50716 2.09069,-2.13128 3.49957,-2.90708 2.53158,-1.39402 4.09026,-1.805 6.86694,-1.81066 3.80982,-0.008 4.54448,0.5172 4.54448,3.24729 0,1.78331 -0.0245,1.80581 -1.37391,1.25979 -2.11483,-0.85576 -5.94579,-0.17655 -7.75724,1.3753 -2.03944,1.74717 -4.06044,5.90926 -4.51212,9.2923 l -0.14386,1.07742 h 5.31491 c 4.49667,0 5.3334,0.0541 5.43492,0.35125 0.15957,0.46708 -0.63405,2.27411 -1.31425,2.99245 -0.53649,0.56657 -0.60152,0.57447 -5.31325,0.64582 l -4.77012,0.0722 0.12925,2.658 c 0.21392,4.39888 0.91321,6.54986 2.80322,8.62242 2.46313,2.70105 6.94782,3.2504 10.48619,1.28449 0.66173,-0.36765 1.25621,-0.60886 1.32108,-0.53601 0.28192,0.31667 0.0875,2.97593 -0.30347,4.14944 -1.16577,3.49967 -5.544,5.35872 -10.44838,4.43651 z M 71.247558,178.22443 c -1.210971,-0.67328 -3.066619,-2.92833 -3.857209,-4.68744 -0.906047,-2.01599 -1.282914,-4.0134 -1.285597,-6.81371 -0.01077,-11.30434 6.29156,-21.88658 15.315452,-25.71593 1.637514,-0.69489 2.236861,-0.82273 4.376265,-0.93345 2.08022,-0.10764 2.564533,-0.0652 3.011338,0.26357 0.454854,0.33475 0.50269,0.47974 0.328284,0.99498 -0.112284,0.33172 -0.757632,1.32543 -1.434095,2.20823 -3.393593,4.42871 -4.21975,6.2443 -6.875881,15.11061 -2.407248,8.03552 -3.785429,12.07261 -5.522888,16.17816 -1.659494,3.92132 -2.237984,4.40557 -4.055669,3.39498 z"
       id="path101"
       inkscape:connector-curvature="0" />
    <path
       style="fill:#ffaaaa;fill-opacity:1;stroke-width:0.25468165"
       d="m 76.434934,179.84156 c -1.641241,-0.36988 -1.590885,-0.33191 -1.287782,-0.97116 0.156646,-0.33036 1.051175,-1.65103 1.987841,-2.9348 3.231047,-4.4284 4.578322,-7.46946 7.967295,-17.98371 3.455567,-10.72085 5.294798,-15.35016 6.350858,-15.98497 1.241782,-0.74646 4.101325,1.96633 5.545222,5.26063 2.804984,6.39969 0.23823,17.93378 -5.587884,25.10999 -2.899733,3.57169 -7.131844,6.53292 -10.169375,7.11557 -1.776162,0.3407 -4.162306,0.53355 -4.806175,0.38845 z"
       id="path912"
       inkscape:connector-curvature="0" />
    <path
       style="fill:#ffaaaa;fill-opacity:1;stroke-width:0.25468165"
       d="m 44.246618,218.91555 c -0.09087,-0.16514 -0.05172,-1.17935 0.08699,-2.25382 0.605337,-4.68904 1.250288,-24.78835 0.88332,-27.52795 l -0.171734,-1.28209 h -2.019001 c -1.456926,0 -2.360782,0.15131 -3.24668,0.54352 l -1.227678,0.54352 0.170314,-0.611 c 0.439309,-1.57603 2.069207,-3.57108 3.341741,-4.09041 0.260546,-0.10633 2.96402,-0.18538 6.007718,-0.17567 5.332625,0.017 6.70594,-0.13688 8.395728,-0.94081 0.413973,-0.19696 0.442976,-0.13021 0.297772,0.68526 -0.196015,1.10081 -1.467078,3.38626 -2.029384,3.64895 -0.225057,0.10513 -1.328375,0.26775 -2.451818,0.36138 l -2.042624,0.17022 -0.152306,4.04871 c -0.08377,2.22679 -0.06474,8.78571 0.0423,14.57537 0.191775,10.37341 0.187522,10.53349 -0.292119,10.99652 -0.954534,0.92145 -5.252196,1.92683 -5.592542,1.3083 z"
       id="path918"
       inkscape:connector-curvature="0" />
    <path
       style="fill:#ffaaaa;fill-opacity:1;stroke-width:0.25468165"
       d="m 58.870478,217.6526 c 0.307402,-2.82775 0.606172,-11.15776 0.609017,-16.97998 0.0036,-7.30744 -0.305585,-11.79951 -0.940987,-13.67266 -0.448228,-1.32137 -0.456574,-1.46968 -0.09937,-1.76556 1.280037,-1.0603 9.092108,-1.79988 12.557769,-1.18887 4.851978,0.85542 7.783762,4.38728 7.416648,8.93467 -0.271707,3.36555 -2.202732,5.54027 -6.123949,6.89677 -0.577683,0.19984 -0.290301,0.61555 0.983924,1.42327 2.420326,1.53423 2.841427,2.50516 3.397396,7.83335 0.510879,4.89603 0.746725,5.64883 2.357397,7.52456 l 0.979122,1.14025 -0.825024,0.38597 c -2.468037,1.15463 -5.590359,1.22501 -6.610092,0.14899 -0.847938,-0.89473 -1.015175,-1.91842 -1.285425,-7.86822 -0.317078,-6.98083 -0.643287,-7.78109 -3.563165,-8.7412 -1.368925,-0.45013 -1.46263,-0.66327 -0.925916,-2.10606 0.290964,-0.78216 0.507147,-0.94669 1.622085,-1.23451 1.912013,-0.49357 2.934413,-1.35148 3.697003,-3.10218 0.581643,-1.3353 0.642855,-1.72914 0.542291,-3.48921 -0.208196,-3.64378 -1.571327,-5.00286 -5.028995,-5.01402 -2.405198,-0.008 -2.86886,0.37743 -3.113889,2.58691 -0.267331,2.41059 -0.242556,19.1299 0.03515,23.71578 0.244678,4.04058 0.244668,4.04071 -0.304105,4.51326 -0.787072,0.67777 -2.488997,1.28948 -4.130913,1.48475 l -1.419347,0.16881 z"
       id="path920"
       inkscape:connector-curvature="0" />
    <path
       style="fill:#ffaaaa;fill-opacity:1;stroke-width:0.25468165"
       d="m 98.990466,219.16438 c -0.951548,-0.43137 -1.528699,-3.09114 -2.393512,-11.03041 -0.259883,-2.3858 -0.550794,-4.01959 -0.756954,-4.25115 -0.26199,-0.29427 -1.296644,-0.37611 -4.754944,-0.37611 -5.204813,0 -4.852844,-0.2481 -5.076636,3.57854 -0.112332,1.92082 -0.05379,2.86754 0.249921,4.04095 0.469798,1.81515 1.054555,2.36734 2.506932,2.36734 h 1.049041 l -0.169185,1.14714 c -0.318478,2.1594 -1.095678,3.22658 -2.817721,3.86901 -2.37645,0.88658 -4.333396,-0.20244 -4.966627,-2.76387 -0.495422,-2.004 -0.314094,-5.48559 0.461716,-8.86518 0.39651,-1.72727 0.720927,-3.19301 0.720927,-3.25721 0,-0.0642 -0.588382,-0.11672 -1.307514,-0.11672 -1.456183,0 -1.731573,-0.23871 -1.316964,-1.14155 0.657715,-1.43224 1.206422,-1.8275 2.536941,-1.8275 h 1.270539 l 1.464449,-3.2263 c 3.245907,-7.151 7.384703,-12.89897 10.020749,-13.91685 1.097152,-0.42365 1.688747,-0.24106 2.090477,0.64521 0.496259,1.0948 1.254006,5.09903 1.947231,10.28991 1.779078,13.32182 2.730848,18.3565 4.068028,21.51911 l 0.83177,1.96723 -0.53084,0.39067 c -0.56888,0.41867 -3.33909,1.22559 -4.133102,1.20392 -0.264339,-0.007 -0.711963,-0.118 -0.994722,-0.24618 z m -4.536493,-18.8029 1.144356,-0.17617 -0.157567,-1.78071 c -0.254583,-2.87711 -0.84331,-6.55123 -1.247645,-7.78629 -0.631234,-1.92813 -1.207213,-1.5257 -3.661944,2.55856 -1.078,1.79362 -3.162192,6.4098 -3.162192,7.0038 0,0.27679 0.667334,0.35699 2.970318,0.35699 1.633676,0 3.485279,-0.0793 4.114674,-0.17618 z"
       id="path922"
       inkscape:connector-curvature="0" />
    <path
       style="fill:#ffaaaa;fill-opacity:1;stroke-width:0.25468165"
       d="m 112.4781,218.67622 c -3.57351,-1.38792 -5.65766,-4.0821 -6.78109,-8.76588 -0.56237,-2.34462 -0.55484,-10.61019 0.012,-13.21554 1.06582,-4.89844 3.15467,-9.01521 5.48288,-10.80578 1.99785,-1.5365 3.12564,-1.9114 5.73502,-1.90644 2.65747,0.005 4.57114,0.67759 5.77473,2.02947 2.91342,3.27234 2.31483,9.57771 -1.04427,11.00017 -2.06903,0.87615 -4.24985,-0.63122 -4.24985,-2.93748 0,-0.63634 0.23856,-1.10128 0.96124,-1.87344 0.85654,-0.91521 0.96122,-1.16582 0.96122,-2.30121 0,-0.70078 -0.11134,-1.50783 -0.24742,-1.79344 -0.36868,-0.77373 -1.51421,-1.33462 -2.72581,-1.33462 -2.23456,0 -4.1531,2.72943 -5.19896,7.39634 -2.35888,10.52603 0.15104,18.48524 5.83691,18.5095 2.30625,0.01 4.19996,-1.23311 5.72461,-3.75739 0.44884,-0.74312 0.94267,-1.35426 1.09738,-1.35809 0.77082,-0.0191 0.63879,3.76096 -0.20919,5.98885 -1.54344,4.05511 -7.18971,6.65515 -11.12945,5.12498 z"
       id="path924"
       inkscape:connector-curvature="0" />
    <path
       style="fill:#ffaaaa;fill-opacity:1;stroke-width:0.25468165"
       d="m 127.43319,218.98782 c -0.0725,-0.13186 -0.0136,-0.84506 0.13096,-1.58491 0.16939,-0.86691 0.26889,-6.14349 0.27985,-14.84089 0.0177,-14.02195 0.01,-14.1449 -0.97974,-16.80601 -0.0775,-0.20834 0.2322,-0.51017 0.79534,-0.77506 1.24836,-0.58719 4.55291,-1.21481 5.29489,-1.00565 0.52028,0.14667 0.58167,0.27826 0.45683,0.97936 -0.0794,0.44546 -0.21573,3.30036 -0.30313,6.34423 -0.135,4.70161 -0.10781,5.5163 0.18065,5.41471 0.18677,-0.0658 1.56006,-1.93478 3.0518,-4.15336 3.756,-5.5861 5.8429,-8.12461 6.96767,-8.47548 1.05643,-0.32954 3.88712,-0.36662 4.32194,-0.0566 0.21357,0.15226 -0.0371,0.49018 -0.84108,1.13375 -2.63225,2.10711 -9.19567,9.81182 -9.19567,10.79466 0,0.30907 0.26181,0.52292 0.78101,0.63796 1.19852,0.26558 3.61382,2.24422 4.48018,3.67024 1.0442,1.7187 1.62059,3.93092 2.05694,7.89461 0.40832,3.70919 0.88717,6.02121 1.58359,7.64618 0.25868,0.60357 0.47032,1.22806 0.47032,1.38774 0,0.66404 -4.23858,1.91707 -5.38836,1.59294 -0.33301,-0.0939 -0.73003,-0.43209 -0.88227,-0.75158 -0.16031,-0.33644 -0.36755,-2.97589 -0.4925,-6.27232 -0.11859,-3.13028 -0.36799,-6.5679 -0.55408,-7.63915 -0.50709,-2.91903 -2.08246,-5.20501 -3.58701,-5.20501 -0.65125,0 -1.45861,0.9424 -2.47308,2.88675 l -0.6365,1.2199 0.15409,7.12049 0.15409,7.12049 -0.54061,0.39787 c -1.28897,0.94861 -4.98351,1.87407 -5.28612,1.32415 z"
       id="path926"
       inkscape:connector-curvature="0" />
    <path
       style="fill:#ffaaaa;fill-opacity:1;stroke-width:0.25468165"
       d="m 158.13989,218.63462 c -4.16466,-1.16664 -6.9268,-5.39082 -7.50926,-11.48406 l -0.18061,-1.8894 -1.26163,-0.2404 c -0.93813,-0.17876 -1.26162,-0.35702 -1.26162,-0.69521 0,-0.61245 0.97905,-1.6087 1.83099,-1.86316 0.6395,-0.19101 0.70169,-0.32449 0.81605,-1.7513 0.13642,-1.70192 0.14293,-1.69467 -1.6673,-1.85501 -0.4524,-0.0401 -0.86676,-0.22411 -0.92079,-0.40896 -0.17325,-0.59281 1.2046,-1.85706 2.22551,-2.04201 0.9507,-0.17224 0.96602,-0.194 1.63098,-2.31555 2.03727,-6.49986 6.44997,-10.30625 11.91767,-10.28015 2.96134,0.0141 4.11253,0.78334 4.11253,2.74794 v 1.07508 l -1.26163,-0.22776 c -3.31246,-0.59801 -5.31388,-0.0256 -7.16835,2.05016 -1.39173,1.55781 -2.7799,4.34976 -3.03269,6.09952 l -0.13504,0.93459 h 4.47716 c 4.89361,0 5.03545,0.0534 3.93646,1.48295 -0.53454,0.69528 -0.58931,0.70516 -4.80618,0.86676 l -4.26549,0.16347 v 1.71247 1.71247 h 4.82237 4.82238 l -0.16478,0.60731 c -0.38513,1.41948 -0.7023,1.552 -3.71455,1.552 -1.54616,0 -3.48706,0.0794 -4.31313,0.17632 l -1.50193,0.17633 0.14742,1.03549 c 0.44352,3.11539 2.09119,6.22192 3.82906,7.21941 0.99794,0.57279 1.47615,0.66497 3.36433,0.64862 1.59252,-0.0138 2.59083,-0.17561 3.611,-0.58526 0.77548,-0.31141 1.50188,-0.50239 1.61422,-0.42442 0.60209,0.41796 -0.61459,3.56939 -1.71909,4.45276 -1.69925,1.35903 -5.83255,2.03293 -8.27406,1.349 z"
       id="path928"
       inkscape:connector-curvature="0" />
    <path
       style="fill:#82362e;fill-opacity:1;stroke-width:0.25468165"
       d="m 169.52797,219.04636 c -0.0807,-0.0931 -0.0525,-0.6822 0.0626,-1.30906 0.11515,-0.62686 0.33737,-4.99282 0.49377,-9.70214 0.34735,-10.45923 0.0748,-18.2401 -0.73052,-20.85826 -0.44969,-1.46186 -0.46141,-1.65092 -0.12031,-1.9425 1.23642,-1.05696 9.07847,-1.80015 12.54533,-1.18893 2.26737,0.39975 4.18283,1.44616 5.59841,3.0584 1.37802,1.5695 1.75537,2.72011 1.75253,5.34405 -0.002,1.73393 -0.10048,2.22044 -0.67224,3.31625 -0.8345,1.5994 -2.46678,2.96773 -4.42443,3.70898 -0.82606,0.31278 -1.50194,0.67669 -1.50194,0.80869 0,0.132 0.59248,0.55482 1.31661,0.93959 1.50688,0.80069 2.573,2.10689 2.98729,3.66002 0.15763,0.59095 0.44285,2.6557 0.63381,4.58834 0.39187,3.96577 0.90986,5.6412 2.16738,7.0102 0.45381,0.49404 0.8251,1.05322 0.8251,1.24263 0,0.55283 -2.596,1.28187 -4.60591,1.2935 -1.62829,0.009 -1.91484,-0.0657 -2.46586,-0.64654 -0.8903,-0.93844 -1.07436,-2.01491 -1.3299,-7.77818 -0.30997,-6.99065 -0.68583,-7.93394 -3.53147,-8.86311 -1.41549,-0.46219 -1.57636,-0.852 -0.93048,-2.25486 0.27853,-0.60498 0.62203,-0.83708 1.62209,-1.09611 2.95976,-0.7666 4.47213,-3.25596 4.20963,-6.92907 -0.24771,-3.46615 -1.83558,-4.8204 -5.43656,-4.63673 -1.06074,0.0541 -2.04414,0.22814 -2.18534,0.38674 -0.1412,0.1586 -0.36169,1.00818 -0.48996,1.88795 -0.30651,2.10235 -0.29902,19.44592 0.01,24.26777 0.24097,3.75406 0.23936,3.77675 -0.30248,4.25049 -0.9668,0.8453 -5.07978,1.92402 -5.4977,1.44189 z"
       id="path930"
       inkscape:connector-curvature="0" />
    <path
       style="fill:#82362e;fill-opacity:1;stroke-width:0.25468165"
       d="m 158.64806,218.5943 c -4.22645,-0.81116 -7.30526,-5.31864 -7.90876,-11.5787 l -0.16913,-1.75444 -1.16986,-0.32429 c -0.6434,-0.17835 -1.22449,-0.38567 -1.29128,-0.46071 -0.25844,-0.29026 0.20378,-1.00974 0.9326,-1.45166 1.4056,-0.85229 1.68091,-1.31585 1.60128,-2.69623 l -0.0727,-1.26063 -1.0814,-0.23354 c -0.59477,-0.12845 -1.17144,-0.33003 -1.28151,-0.44797 -0.31036,-0.33254 1.06536,-1.6079 1.93123,-1.79035 0.97282,-0.20499 1.05786,-0.32929 1.95169,-2.85275 1.24164,-3.50536 3.031,-6.1246 5.30261,-7.76188 2.18991,-1.57839 5.16752,-2.29584 7.8362,-1.88813 1.70248,0.2601 2.52324,1.07924 2.52324,2.51824 v 0.88879 l -1.38176,-0.25197 c -2.99411,-0.54599 -5.27643,0.20814 -7.13681,2.35816 -1.15429,1.33398 -2.6536,4.36665 -2.90232,5.87053 l -0.16741,1.01217 h 2.99536 c 3.17688,0 5.95309,0.23857 5.94421,0.51081 -0.002,0.0902 -0.2064,0.45772 -0.45209,0.81674 -0.42215,0.6168 -0.63692,0.66417 -3.89968,0.85995 -1.89912,0.11396 -3.85844,0.21496 -4.35407,0.22446 l -0.90117,0.0173 v 1.75445 1.75444 h 4.82238 4.82235 l -0.16213,0.60731 c -0.33076,1.23889 -0.57006,1.3117 -4.99743,1.52053 -2.32895,0.10986 -4.30033,0.27371 -4.38081,0.36412 -0.23694,0.26613 0.33921,2.92796 0.95853,4.42852 0.66596,1.6135 2.06773,3.44829 3.12445,4.0896 1.0769,0.65356 4.83157,0.62359 6.80833,-0.0543 0.8269,-0.28358 1.56434,-0.44723 1.63874,-0.36366 0.2841,0.3191 -0.49093,2.41394 -1.27255,3.43959 -0.62511,0.82027 -1.16573,1.19168 -2.30442,1.58312 -1.89116,0.65009 -4.24825,0.87059 -5.90587,0.55245 z"
       id="path932"
       inkscape:connector-curvature="0" />
    <path
       style="fill:#82362e;fill-opacity:1;stroke-width:0.25468165"
       d="m 127.74085,203.3357 c 0,-14.13158 -0.039,-15.71557 -0.40909,-16.63335 -0.40161,-0.99577 -0.39921,-1.02166 0.13044,-1.41146 0.69454,-0.51114 3.99162,-1.27904 5.01638,-1.16833 0.60474,0.0653 0.78887,0.21155 0.78726,0.62511 -0.001,0.29691 -0.0951,3.00926 -0.20883,6.02746 -0.15467,4.10604 -0.13575,5.56707 0.0752,5.80316 0.21522,0.24091 0.37826,0.17893 0.68945,-0.26214 0.22416,-0.31772 1.3706,-1.95745 2.54764,-3.64385 5.74477,-8.23074 6.13726,-8.60628 9.01687,-8.62742 1.09014,-0.008 2.02982,0.0391 2.08817,0.1046 0.0584,0.0655 -0.64127,0.8059 -1.55469,1.64527 -2.92476,2.68763 -8.44627,9.35445 -8.44627,10.19827 0,0.12805 0.56774,0.51683 1.26162,0.86396 1.96704,0.98404 3.57988,2.57903 4.43145,4.38242 0.77233,1.63556 1.16996,3.47342 1.99096,9.20253 0.25942,1.81025 0.74844,4.05639 1.0867,4.9914 0.5769,1.59468 0.58921,1.72123 0.19872,2.04195 -0.87362,0.7175 -3.87698,1.3536 -4.95554,1.04956 -0.77928,-0.21968 -0.83529,-0.52737 -1.1372,-6.24591 -0.14107,-2.67215 -0.35643,-5.80022 -0.47857,-6.95125 -0.39229,-3.69665 -1.96548,-6.40951 -3.7169,-6.40951 -0.88678,0 -1.55426,0.71669 -2.68396,2.88189 l -0.63398,1.21504 0.17153,7.13535 0.17154,7.13534 -1.35174,0.69509 c -0.74347,0.3823 -1.96721,0.7578 -2.71943,0.83443 l -1.3677,0.13935 z"
       id="path934"
       inkscape:connector-curvature="0" />
    <path
       style="fill:#82362e;fill-opacity:1;stroke-width:0.25468165"
       d="m 112.72155,218.65398 c -2.43553,-0.89851 -4.71131,-3.09307 -5.86934,-5.65989 -1.14929,-2.54742 -1.36449,-4.065 -1.36448,-9.62233 1e-5,-6.04441 0.33374,-7.96996 2.06666,-11.92423 1.39748,-3.18886 3.00776,-5.18752 5.12085,-6.35595 1.5155,-0.838 1.73527,-0.88344 4.24667,-0.87802 3.16821,0.007 4.67154,0.60176 6.03208,2.38708 2.93945,3.85714 1.29978,10.42813 -2.60212,10.42813 -1.03297,0 -1.29789,-0.12113 -2.0071,-0.91771 -1.13105,-1.27038 -1.09596,-2.19638 0.14419,-3.80579 0.76491,-0.99266 0.96124,-1.46102 0.96124,-2.29311 0,-2.25948 -0.93098,-3.24013 -3.07603,-3.24013 -1.80688,0 -2.91166,1.03578 -4.09605,3.84028 -2.53473,6.00193 -2.76744,14.54533 -0.50927,18.69756 0.65714,1.20831 1.92035,2.48354 2.92753,2.95538 0.49139,0.2302 1.57858,0.41855 2.41598,0.41855 1.90957,0 3.68503,-0.92342 4.85799,-2.52661 0.44956,-0.61448 1.0375,-1.42089 1.30652,-1.79202 0.70825,-0.97711 1.04011,-0.31772 0.88298,1.75444 -0.28234,3.72317 -1.8066,6.1427 -4.89211,7.76544 -1.3844,0.7281 -1.93423,0.862 -3.78264,0.92124 -1.18952,0.0381 -2.43313,-0.0304 -2.76355,-0.15231 z"
       id="path936"
       inkscape:connector-curvature="0" />
    <path
       style="fill:#82362e;fill-opacity:1;stroke-width:0.25468165"
       d="m 98.724134,218.68939 c -0.608789,-0.76824 -1.097321,-3.07671 -1.748491,-8.26218 -0.682236,-5.43287 -0.796967,-6.09641 -1.138263,-6.5831 -0.173805,-0.24785 -1.398796,-0.3374 -4.615639,-0.3374 -5.281648,0 -5.058085,-0.14332 -5.301912,3.39896 -0.132239,1.92116 -0.08249,2.78824 0.229034,3.99187 0.530082,2.04806 1.04687,2.596 2.448406,2.596 h 1.108133 l -0.162526,1.01218 c -0.274966,1.71243 -0.932459,2.83436 -2.050073,3.49818 -2.001645,1.1889 -4.277031,0.61035 -5.218715,-1.32693 -0.350254,-0.72056 -0.430136,-1.50332 -0.421287,-4.12813 0.01,-2.9491 0.368915,-5.49537 1.203133,-8.53413 0.09786,-0.35644 -0.146266,-0.47053 -1.328085,-0.62071 -0.796385,-0.1012 -1.447975,-0.24474 -1.447975,-0.31896 0,-0.0742 0.169391,-0.50288 0.376423,-0.95256 0.426039,-0.92537 1.607747,-1.58482 2.839925,-1.58482 0.813176,0 0.856251,-0.0589 2.299703,-3.1457 3.589825,-7.67675 7.484903,-13.00941 10.159799,-13.90956 0.819238,-0.27569 0.983918,-0.25108 1.39275,0.20812 0.585784,0.65795 1.24275,3.5323 2.012246,8.80395 1.95135,13.36825 2.36697,15.99211 2.92014,18.43489 0.33618,1.48452 0.97349,3.64281 1.41625,4.79618 0.80255,2.09065 0.80347,2.09798 0.29987,2.4007 -1.67953,1.00959 -4.666284,1.32859 -5.272846,0.56315 z m -3.580883,-18.329 c 0.543536,-0.16343 0.558684,-0.23766 0.398633,-1.95319 -0.261146,-2.79913 -1.008895,-7.20247 -1.36466,-8.0362 -0.675451,-1.5829 -1.507069,-0.99486 -3.568208,2.52312 -1.471105,2.5109 -3.4495,6.99295 -3.248198,7.35879 0.170836,0.31047 6.802748,0.40207 7.782433,0.10748 z"
       id="path938"
       inkscape:connector-curvature="0" />
    <path
       style="fill:#82362e;fill-opacity:1;stroke:none;stroke-width:0.25468165"
       d="m 58.962308,217.88728 c 0.06566,-0.70935 0.260593,-5.14296 0.433177,-9.85246 0.352646,-9.62309 0.100914,-17.66136 -0.642226,-20.50745 -0.221007,-0.84642 -0.33975,-1.72065 -0.263874,-1.94274 0.448515,-1.3128 10.335651,-2.10388 13.740147,-1.09936 4.544236,1.34082 6.95066,5.44758 5.799131,9.8967 -0.615059,2.37638 -1.973026,3.68246 -5.528417,5.31717 -0.667588,0.30694 -0.676393,0.33502 -0.265084,0.84551 0.233992,0.29041 0.889111,0.83322 1.455822,1.20625 1.8833,1.23966 2.204165,2.10622 2.963721,8.0041 0.552053,4.28664 0.833272,5.16623 2.174078,6.80003 l 0.988646,1.20469 -1.150552,0.49858 c -0.823776,0.35696 -1.787912,0.49857 -3.39464,0.49857 -2.064115,0 -2.280678,-0.0507 -2.700336,-0.63286 -0.692504,-0.96056 -0.886169,-2.17721 -1.173936,-7.37495 -0.27571,-4.97996 -0.658509,-7.11121 -1.415457,-7.88063 -0.247223,-0.2513 -1.086378,-0.7373 -1.864787,-1.08 -1.295227,-0.57024 -1.410933,-0.68833 -1.363931,-1.392 0.07049,-1.05531 0.669776,-1.61616 2.272146,-2.12644 2.540281,-0.80896 4.047729,-3.6 3.688511,-6.82929 -0.38529,-3.46367 -1.65226,-4.65206 -4.971049,-4.66274 -2.241587,-0.007 -2.514559,0.0992 -3.010372,1.17392 -0.325185,0.70484 -0.40783,2.1614 -0.499707,8.80698 -0.06054,4.37936 0.01167,10.69535 0.160373,14.03554 l 0.270457,6.07307 -0.611395,0.60252 c -0.629934,0.6208 -2.329051,1.24961 -4.163781,1.54092 l -1.046051,0.1661 z"
       id="path940"
       inkscape:connector-curvature="0" />
    <path
       style="fill:#82362e;fill-opacity:1;stroke:none;stroke-width:0.25468165"
       d="m 44.314874,217.78459 c 0.736839,-5.96901 1.404035,-25.94409 0.965995,-28.92072 l -0.148953,-1.01218 h -2.101123 c -1.259987,0 -2.513032,0.16323 -3.130055,0.40775 -0.565914,0.22427 -1.059488,0.37344 -1.096831,0.33149 -0.197272,-0.22157 0.779965,-1.879 1.71673,-2.91163 1.006626,-1.10964 1.176179,-1.19264 2.812605,-1.37693 0.957773,-0.10786 3.692221,-0.20362 6.07655,-0.21279 3.066775,-0.0118 4.746624,-0.13707 5.741531,-0.42814 0.773511,-0.22629 1.463402,-0.3474 1.533091,-0.26913 0.235339,0.26434 -1.013548,2.88407 -1.671213,3.50564 -0.516854,0.48848 -1.077327,0.65653 -2.694257,0.80781 -1.577243,0.14757 -2.077269,0.29333 -2.198265,0.64082 -0.08615,0.2474 -0.124096,6.80946 -0.08434,14.58237 l 0.07227,14.13256 -0.553666,0.50356 c -0.720302,0.65513 -1.949833,1.0538 -3.852062,1.24904 l -1.534541,0.1575 z"
       id="path942"
       inkscape:connector-curvature="0" />
    <path
       style="fill:#82362e;fill-opacity:1;stroke:none;stroke-width:0.25468165"
       d="m 75.653932,179.58689 c -0.231298,-0.0782 -0.417442,-0.28505 -0.413656,-0.45973 0.0038,-0.17468 0.982175,-1.71441 2.174196,-3.42161 2.75944,-3.95206 4.71765,-8.36006 7.554135,-17.0046 4.387206,-13.37056 5.80693,-16.73468 7.06236,-16.73468 1.451447,0 4.367015,3.62399 5.354547,6.6556 0.717432,2.20243 0.722724,7.65998 0.01033,10.62722 -1.148104,4.78187 -3.145962,9.16923 -5.710979,12.5415 -2.307864,3.03419 -6.322361,6.15334 -9.22291,7.16593 -1.507658,0.52633 -5.909767,0.93393 -6.807998,0.63037 z"
       id="path944"
       inkscape:connector-curvature="0" />
  </g>
</svg>
