<?xml version="1.0" encoding="UTF-8" standalone="no"?>
<!-- Created with Inkscape (http://www.inkscape.org/) -->

<svg
   xmlns:dc="http://purl.org/dc/elements/1.1/"
   xmlns:cc="http://creativecommons.org/ns#"
   xmlns:rdf="http://www.w3.org/1999/02/22-rdf-syntax-ns#"
   xmlns:svg="http://www.w3.org/2000/svg"
   xmlns="http://www.w3.org/2000/svg"
   xmlns:sodipodi="http://sodipodi.sourceforge.net/DTD/sodipodi-0.dtd"
   xmlns:inkscape="http://www.inkscape.org/namespaces/inkscape"
   width="210mm"
   height="297mm"
   viewBox="0 0 210 297"
   version="1.1"
   id="svg8"
   inkscape:version="0.92.5 (2060ec1f9f, 2020-04-08)"
   sodipodi:docname="CoffeeTrackerLogo2.svg">
  <defs
     id="defs2" />
  <sodipodi:namedview
     id="base"
     pagecolor="#ffffff"
     bordercolor="#666666"
     borderopacity="1.0"
     inkscape:pageopacity="0.0"
     inkscape:pageshadow="2"
     inkscape:zoom="1.4"
     inkscape:cx="396.85039"
     inkscape:cy="914.725"
     inkscape:document-units="mm"
     inkscape:current-layer="layer1"
     showgrid="false"
     inkscape:window-width="1868"
     inkscape:window-height="904"
     inkscape:window-x="52"
     inkscape:window-y="34"
     inkscape:window-maximized="1" />
  <metadata
     id="metadata5">
    <rdf:RDF>
      <cc:Work
         rdf:about="">
        <dc:format>image/svg+xml</dc:format>
        <dc:type
           rdf:resource="http://purl.org/dc/dcmitype/StillImage" />
        <dc:title></dc:title>
      </cc:Work>
    </rdf:RDF>
  </metadata>
  <g
     inkscape:groupmode="layer"
     id="layer2"
     inkscape:label="Ebene 2" />
  <g
     inkscape:label="Ebene 1"
     inkscape:groupmode="layer"
     id="layer1">
    <a
       id="a22">
      <g
         aria-label="C"
         style="font-style:normal;font-weight:normal;font-size:28.0128727px;line-height:1.25;font-family:sans-serif;letter-spacing:0px;word-spacing:0px;fill:#4e342e;fill-opacity:1;stroke:none;stroke-width:0.70032179"
         id="text3715">
        <path
           d="m 34.312378,39.360221 q 1.277387,0 1.277387,3.227083 0,3.227083 -1.210156,5.781857 -1.210156,2.554774 -2.958159,3.966623 -1.680773,1.411848 -3.832161,2.28585 -7.193706,3.159852 -13.44618,-0.134462 Q 10.983257,52.8064 9.3024849,50.520549 7.6217125,48.167468 6.613249,44.940385 5.0669384,40.099761 5.0669384,34.78852 q 0,-5.311241 1.0084634,-9.950173 1.0084635,-4.638932 3.0926213,-8.807247 2.0841579,-4.235547 5.9163189,-6.7903207 3.832161,-2.5547741 8.874478,-2.5547741 2.151389,0 4.437239,0.7395399 2.353082,0.672309 3.832161,1.7480033 1.47908,1.0084636 2.622005,3.1598526 1.142926,2.151388 1.142926,5.042317 0,3.092621 -1.47908,5.580164 -0.672309,1.142925 -2.151389,2.084158 -1.47908,0.874002 -3.496006,0.874002 -3.092622,0 -4.370009,-2.756467 -0.537847,-1.075695 -0.537847,-2.353082 0,-1.277387 0.874002,-1.479079 0.941232,-0.268924 1.748003,-1.47908 0.806771,-1.210156 0.806771,-2.823698 0,-1.277387 -0.672309,-2.218619 -1.277387,-1.680773 -3.697699,-1.680773 -2.420313,0 -4.437239,2.21862 -1.949696,2.21862 -2.95816,5.580164 -2.016927,6.72309 -2.016927,12.370485 0,5.647395 1.546311,9.076171 1.882465,4.235547 4.773393,5.647395 1.815235,0.874002 4.168316,0.874002 3.966623,0 7.126475,-3.563237 1.344618,-1.411849 2.21862,-3.361545 0.336154,-0.605078 0.874001,-0.605078 z"
           style="font-style:normal;font-variant:normal;font-weight:normal;font-stretch:normal;font-size:67.230896px;font-family:Aladin;-inkscape-font-specification:Aladin;fill:#4e342e;fill-opacity:1;stroke-width:0.70032179"
           id="path3729" />
      </g>
    </a>
    <g
       aria-label="FFEE"
       style="font-style:normal;font-weight:normal;font-size:28.0128727px;line-height:1.25;font-family:sans-serif;letter-spacing:0px;word-spacing:0px;fill:#000000;fill-opacity:1;stroke:none;stroke-width:0.70032179"
       id="text3719">
      <path
         d="M 90.854724,42.512319 91.258109,30.61245 h -4.50447 q -0.537847,0 -0.537847,-0.403385 0,-1.210156 1.142925,-2.756467 1.142925,-1.613541 2.487543,-1.613541 h 1.411849 q -0.134462,-5.24401 -0.268924,-7.529861 -0.268923,-4.101084 -1.344617,-6.319704 l -0.336155,-0.672309 q -0.268924,-0.336154 -0.268924,-0.806771 0,-0.470616 0.73954,-0.8067704 0.73954,-0.3361544 2.151389,-0.8067707 1.47908,-0.4706163 6.185242,-1.2101561 4.70616,-0.8067708 10.2191,-0.8067708 5.58016,0 6.05078,0.8067708 0.53784,0.8067707 0.53784,2.5547742 0,1.680772 -0.47061,1.680772 -0.0672,0 -0.47062,-0.06723 -1.07569,-0.268923 -3.29431,-0.268923 -2.21862,0 -4.7734,0.403385 -2.55477,0.403385 -3.89939,0.806771 l -1.27738,0.470616 q -0.53785,0.134462 -0.806775,0.941233 -0.537848,3.966623 -0.537848,11.630945 h 10.891403 q 0.60508,0 0.60508,0.403385 0,1.210156 -1.07569,2.823698 -1.0757,1.613541 -2.42032,1.613541 l -8.000473,-0.06723 0.470617,20.169269 q 0,1.47908 -0.470617,2.151389 -1.277387,1.680772 -4.370008,2.487543 -3.02539,0.874002 -5.042317,0.874002 -0.537847,0 -0.537847,-0.672309 0,-0.336155 0.06723,-0.537848 0.80677,-1.142925 1.344618,-12.572177 z"
         style="font-style:normal;font-variant:normal;font-weight:normal;font-stretch:normal;font-size:67.230896px;font-family:Aladin;-inkscape-font-specification:Aladin;fill:#4e342e;fill-opacity:1;stroke-width:0.70032179"
         id="path3732" />
      <path
         d="m 118.21767,42.512319 0.40339,-11.899869 h -4.50447 q -0.53785,0 -0.53785,-0.403385 0,-1.210156 1.14292,-2.756467 1.14293,-1.613541 2.48755,-1.613541 h 1.41185 q -0.13447,-5.24401 -0.26893,-7.529861 -0.26892,-4.101084 -1.34462,-6.319704 l -0.33615,-0.672309 q -0.26892,-0.336154 -0.26892,-0.806771 0,-0.470616 0.73954,-0.8067704 0.73954,-0.3361544 2.15139,-0.8067707 1.47908,-0.4706163 6.18524,-1.2101561 4.70616,-0.8067708 10.21909,-0.8067708 5.58017,0 6.05078,0.8067708 0.53785,0.8067707 0.53785,2.5547742 0,1.680772 -0.47061,1.680772 -0.0672,0 -0.47062,-0.06723 -1.0757,-0.268923 -3.29431,-0.268923 -2.21862,0 -4.7734,0.403385 -2.55477,0.403385 -3.89939,0.806771 l -1.27739,0.470616 q -0.53784,0.134462 -0.80677,0.941233 -0.53785,3.966623 -0.53785,11.630945 h 10.89141 q 0.60508,0 0.60508,0.403385 0,1.210156 -1.0757,2.823698 -1.07569,1.613541 -2.42031,1.613541 l -8.00048,-0.06723 0.47062,20.169269 q 0,1.47908 -0.47062,2.151389 -1.27738,1.680772 -4.37,2.487543 -3.02539,0.874002 -5.04232,0.874002 -0.53785,0 -0.53785,-0.672309 0,-0.336155 0.0672,-0.537848 0.80677,-1.142925 1.34462,-12.572177 z"
         style="font-style:normal;font-variant:normal;font-weight:normal;font-stretch:normal;font-size:67.230896px;font-family:Aladin;-inkscape-font-specification:Aladin;fill:#4e342e;fill-opacity:1;stroke-width:0.70032179"
         id="path3734" />
      <path
         d="m 171.93513,46.277249 q 0,4.706163 -3.02539,6.992013 -2.95816,2.285851 -8.33663,2.285851 -8.60556,0 -12.70664,-5.714626 -4.03385,-5.714627 -4.03385,-14.925259 0,-1.47908 0.13446,-4.302778 h -3.76493 q -0.53785,0 -0.53785,-0.403385 0,-1.142925 1.14292,-2.756467 1.14293,-1.613541 2.48755,-1.613541 h 1.27739 q 0.874,-4.840625 2.82369,-8.538324 2.01693,-3.697699 4.16832,-5.714626 2.21862,-2.0169272 4.84062,-3.2270833 4.16832,-2.0169269 8.74002,-2.0169269 4.5717,0 5.71463,1.4790797 0.53784,0.7395399 0.53784,2.7564665 0,1.949696 -0.47061,1.949696 -0.0672,0 -0.60508,-0.268923 -1.74801,-0.806771 -4.37001,-0.806771 -5.71463,0 -8.94171,4.033854 -3.15985,4.033853 -4.23555,10.353558 5.10955,-0.06723 13.84957,-0.06723 0.67231,0 0.67231,0.470616 0,1.075694 -1.0757,2.756467 -1.07569,1.613541 -2.42031,1.613541 h -11.56371 q -0.0672,0.806771 -0.0672,3.563238 0,2.689236 0.94123,5.714626 1.00846,2.958159 3.63047,5.042317 2.68923,2.084158 6.92478,2.084158 4.23555,0 7.12647,-1.882465 0.33616,-0.268924 0.60508,-0.268924 0.53785,0 0.53785,1.411849 z"
         style="font-style:normal;font-variant:normal;font-weight:normal;font-stretch:normal;font-size:67.230896px;font-family:Aladin;-inkscape-font-specification:Aladin;fill:#4e342e;fill-opacity:1;stroke-width:0.70032179"
         id="path3736" />
      <path
         d="m 204.07142,46.277249 q 0,4.706163 -3.02539,6.992013 -2.95816,2.285851 -8.33663,2.285851 -8.60556,0 -12.70664,-5.714626 -4.03386,-5.714627 -4.03386,-14.925259 0,-1.47908 0.13446,-4.302778 h -3.76493 q -0.53784,0 -0.53784,-0.403385 0,-1.142925 1.14292,-2.756467 1.14293,-1.613541 2.48755,-1.613541 h 1.27738 q 0.874,-4.840625 2.8237,-8.538324 2.01693,-3.697699 4.16832,-5.714626 2.21862,-2.0169272 4.84062,-3.2270833 4.16832,-2.0169269 8.74002,-2.0169269 4.5717,0 5.71462,1.4790797 0.53785,0.7395399 0.53785,2.7564665 0,1.949696 -0.47062,1.949696 -0.0672,0 -0.60507,-0.268923 -1.74801,-0.806771 -4.37001,-0.806771 -5.71463,0 -8.94171,4.033854 -3.15985,4.033853 -4.23555,10.353558 5.10955,-0.06723 13.84957,-0.06723 0.67231,0 0.67231,0.470616 0,1.075694 -1.0757,2.756467 -1.07569,1.613541 -2.42031,1.613541 h -11.56372 q -0.0672,0.806771 -0.0672,3.563238 0,2.689236 0.94124,5.714626 1.00846,2.958159 3.63046,5.042317 2.68924,2.084158 6.92479,2.084158 4.23554,0 7.12647,-1.882465 0.33616,-0.268924 0.60508,-0.268924 0.53785,0 0.53785,1.411849 z"
         style="font-style:normal;font-variant:normal;font-weight:normal;font-stretch:normal;font-size:67.230896px;font-family:Aladin;-inkscape-font-specification:Aladin;fill:#4e342e;fill-opacity:1;stroke-width:0.70032179"
         id="path3738" />
    </g>
    <g
       aria-label="TRACK€R"
       style="font-style:normal;font-weight:normal;font-size:28.0128727px;line-height:1.25;font-family:sans-serif;letter-spacing:0px;word-spacing:0px;fill:#82362e;fill-opacity:1;stroke:none;stroke-width:0.70032179;stroke-opacity:1"
       id="text3723">
      <path
         d="m 10.634639,59.817257 8.336632,0.463146 q 5.557754,0 7.989272,-1.331545 0.347359,-0.231573 0.578932,-0.231573 0.289467,0 0.289467,0.810506 0,0.810505 -0.984186,2.66309 -1.447332,2.836771 -4.168316,2.836771 l -3.18413,-0.05789 q -0.463146,0 -0.578933,0.521039 -0.405253,8.510312 -0.405253,18.410062 0,9.841857 0.810506,14.820679 v 0.289466 q 0,1.447335 -2.778877,2.315735 -2.720984,0.8684 -5.152502,0.8684 -1.157865,0 -1.157865,-0.63683 0,-0.17368 0.17368,-0.81051 0.636826,-1.273649 1.099972,-12.331265 0.521039,-11.057615 0.521039,-16.673263 l -0.115786,-6.310367 q 0,-0.34736 -0.34736,-0.405253 -1.215759,-0.231573 -2.7788771,-0.231573 -3.1262369,0 -4.631462,1.273652 -0.405253,0.289466 -0.7526126,0.289466 -0.405253,0 -0.405253,-0.463146 0,-0.694719 0.7526126,-1.910478 0.6947193,-1.215759 1.5052252,-2.084158 1.9683714,-2.084158 5.3840749,-2.084158 z"
         style="font-style:normal;font-variant:normal;font-weight:normal;font-stretch:normal;font-size:57.89327621px;font-family:Aladin;-inkscape-font-specification:Aladin;fill:#82362e;fill-opacity:1;stroke:none;stroke-width:0.70032179;stroke-opacity:1"
         id="path3741" />
      <path
         d="m 48.554633,79.095718 q -0.636826,0.17368 -0.636826,0.405253 0,0.17368 1.389439,0.694719 1.389438,0.52104 2.605197,1.621012 1.273652,1.099972 1.794692,2.663091 0.810506,2.373624 0.810506,5.094608 0,2.720984 0.405253,4.515675 0.405252,1.736799 0.984185,2.663091 1.157866,1.968372 2.142051,2.431518 l 0.405253,0.231573 q 0.34736,0.231573 0.34736,0.578933 0,0.868399 -2.836771,1.505229 -2.83677,0.69472 -4.399888,0.69472 -3.068344,0 -3.936743,-2.431522 -0.810506,-2.489411 -0.810506,-8.452419 v -3.18413 q 0,-5.036715 -3.010451,-6.426154 -1.157865,-0.521039 -2.778877,-0.521039 h -0.05789 q -0.52104,0 -0.52104,-0.984186 0,-1.042079 0.578933,-2.084158 0.636826,-1.042079 1.099972,-1.042079 1.910479,0 3.299917,-0.694719 1.389439,-0.752613 2.026265,-1.794692 1.331545,-2.199944 1.447332,-3.763063 v -0.752612 q 0,-2.142051 -0.69472,-3.589383 -0.694719,-1.505225 -1.736798,-2.084158 -1.736798,-0.926293 -3.53149,-0.926293 -1.794691,0 -2.952557,0.289467 -1.621011,0.463146 -1.621011,0.984185 -0.52104,7.58402 -0.52104,14.646999 0,7.005087 0.17368,10.76815 0.231573,3.705169 0.405253,6.0209 0.231573,2.257838 0.231573,2.663091 0,0.752613 -0.405253,1.042079 -2.373624,2.199946 -7.468233,2.199946 -0.868399,0 -0.868399,-0.57893 0,-0.17368 0.17368,-0.81051 0.578933,-1.331545 0.810506,-8.452418 0.289466,-7.120873 0.289466,-12.968094 0,-5.905114 -0.231573,-9.552391 -0.347359,-5.499861 -1.157865,-6.599833 -0.636826,-0.810506 -0.636826,-1.099973 0,-0.347359 0.636826,-0.694719 3.705169,-1.736798 13.43124,-1.736798 7.815592,0 11.694442,4.399889 2.084157,2.431517 2.084157,6.078794 0,2.199944 -0.868399,3.936743 -0.868399,1.736798 -2.142051,2.66309 -2.431517,1.852585 -4.573569,2.257838 z"
         style="font-style:normal;font-variant:normal;font-weight:normal;font-stretch:normal;font-size:57.89327621px;font-family:Aladin;-inkscape-font-specification:Aladin;fill:#82362e;fill-opacity:1;stroke:none;stroke-width:0.70032179;stroke-opacity:1"
         id="path3743" />
      <path
         d="m 74.838173,67.864422 q -4.573569,5.731435 -6.599834,11.462869 h 0.05789 q 8.047165,0 9.205031,0.05789 1.215758,0 1.331545,-0.115786 0.115787,-0.115787 0.17368,-0.289467 -0.984186,-7.120873 -1.563119,-9.668177 -0.578932,-2.605197 -1.157865,-2.605197 -0.578933,0 -1.447332,1.157865 z m -5.152502,27.267733 1.273652,-0.231573 q 0.578933,0 0.578933,0.636826 0,2.026265 -0.810506,3.415704 -0.810506,1.389438 -2.026264,1.968368 -1.968372,0.98419 -3.35781,0.98419 -2.663091,0 -3.994636,-1.968373 -1.331546,-2.026264 -1.331546,-6.0209 0,-4.05253 2.199945,-10.478683 h -3.35781 q -0.636826,0 -0.636826,-0.636826 0,-0.636826 0.984185,-2.026265 0.984186,-1.447332 2.084158,-1.447332 h 2.605198 q 4.110422,-9.147138 9.668177,-15.804864 1.447332,-1.736799 3.53149,-3.242024 2.142051,-1.505225 3.299916,-1.505225 1.157866,0 1.736799,1.042079 1.505225,2.431518 3.53149,17.773236 0.694719,6.599833 2.373624,13.662813 1.736798,7.005086 3.18413,8.162952 0.34736,0.231573 0.34736,0.578933 0,0.868399 -2.489411,1.621009 -2.431518,0.75261 -3.763063,0.75261 -1.273652,0 -1.968371,-0.34735 -0.69472,-0.28947 -0.8684,-0.63683 -1.042079,-2.257839 -2.084158,-10.76815 l -0.347359,-2.720984 q -0.231573,-2.720984 -0.463146,-4.110423 l -0.405253,-0.289466 -12.099695,-0.05789 q -0.694719,2.952557 -0.694719,5.152501 0,2.199945 0.115786,3.242024 0.17368,0.984185 0.984186,2.142051 0.810506,1.157865 2.199944,1.157865 z"
         style="font-style:normal;font-variant:normal;font-weight:normal;font-stretch:normal;font-size:57.89327621px;font-family:Aladin;-inkscape-font-specification:Aladin;fill:#82362e;fill-opacity:1;stroke:none;stroke-width:0.70032179;stroke-opacity:1"
         id="path3745" />
      <path
         d="m 117.15805,87.779709 q 1.09997,0 1.09997,2.778878 0,2.778877 -1.04208,4.978821 -1.04208,2.199945 -2.5473,3.415704 -1.44733,1.215758 -3.29992,1.968368 -6.19458,2.72099 -11.578654,-0.11578 -2.720984,-1.447335 -4.168316,-3.415707 -1.447332,-2.026264 -2.315731,-4.805142 -1.331546,-4.168316 -1.331546,-8.741884 0,-4.573569 0.8684,-8.568205 0.868399,-3.994636 2.66309,-7.58402 1.794692,-3.647276 5.094607,-5.84722 3.29992,-2.199945 7.64191,-2.199945 1.85259,0 3.82096,0.636826 2.02626,0.578933 3.29992,1.505225 1.27365,0.868399 2.25783,2.720984 0.98419,1.852585 0.98419,4.341996 0,2.663091 -1.27365,4.805142 -0.57893,0.984186 -1.85259,1.794692 -1.27365,0.752612 -3.01045,0.752612 -2.66309,0 -3.76306,-2.373624 -0.46315,-0.926293 -0.46315,-2.026265 0,-1.099972 0.75262,-1.273652 0.8105,-0.231573 1.50522,-1.273652 0.69472,-1.042079 0.69472,-2.431518 0,-1.099972 -0.57893,-1.910478 -1.09997,-1.447332 -3.18413,-1.447332 -2.08416,0 -3.82096,1.910478 -1.6789,1.910479 -2.5473,4.805142 -1.7368,5.789328 -1.7368,10.652363 0,4.863035 1.33154,7.815592 1.62102,3.647277 4.11043,4.863036 1.56312,0.752612 3.58938,0.752612 3.4157,0 6.13669,-3.068343 1.15786,-1.215759 1.91048,-2.894664 0.28946,-0.52104 0.75261,-0.52104 z"
         style="font-style:normal;font-variant:normal;font-weight:normal;font-stretch:normal;font-size:57.89327621px;font-family:Aladin;-inkscape-font-specification:Aladin;fill:#82362e;fill-opacity:1;stroke:none;stroke-width:0.70032179;stroke-opacity:1"
         id="path3747" />
      <path
         d="m 136.84167,65.606585 q 1.50523,-1.910479 3.01045,-3.53149 1.56312,-1.678905 2.54731,-2.084158 0.98418,-0.405253 3.99463,-0.405253 3.01045,0 3.01045,0.752612 0,0.289467 -0.63682,0.636826 -0.63683,0.34736 -1.7368,1.099973 -1.09997,0.752612 -4.63146,4.110422 -3.4736,3.35781 -7.00509,7.873486 -0.11579,0.115786 -0.11579,0.34736 0,0.173679 0.28947,0.231573 0.34736,0.05789 0.92629,0.173679 0.57893,0.115787 2.08416,0.926293 1.56312,0.752612 2.77888,1.968371 1.21576,1.157866 2.31573,3.647277 1.15786,2.431517 1.33154,4.631462 0.17368,2.142051 0.34736,3.878849 0.17368,1.736799 0.8684,4.978822 0.75261,3.242024 1.7368,3.87885 0.28947,0.231573 0.28947,0.578932 0,0.926289 -2.54731,1.736799 -2.5473,0.75261 -4.57357,0.75261 -1.96837,0 -2.25783,-1.62101 -0.28947,-1.736798 -0.40526,-8.278738 v -2.315731 q 0,-6.078794 -1.7368,-8.799778 -1.50522,-2.373624 -2.72098,-2.663091 -0.92629,-0.289466 -0.98419,-0.289466 l -0.63682,0.289466 q -1.38944,1.621012 -2.19995,3.126237 -0.8105,1.505225 -0.86839,2.199945 l -0.11579,0.752612 q 0,8.162952 0.69472,13.95228 0.11578,0.694719 0.11578,0.810506 0,1.273648 -2.72098,2.199948 -2.66309,0.92629 -4.39989,0.92629 -1.6789,0 -1.6789,-0.52104 0,-0.34736 0.17368,-0.8684 0.57893,-1.273652 0.8105,-8.394525 0.28947,-7.178766 0.28947,-13.025987 0,-5.905114 -0.23157,-9.552391 -0.34736,-5.499861 -1.15787,-6.599833 -0.63683,-0.810506 -0.63683,-1.042079 0,-0.810506 2.95256,-1.563119 3.01045,-0.752612 4.80514,-0.752612 1.85259,0 1.85259,0.810506 l -0.0579,0.752612 q -0.75261,6.252474 -0.75261,13.373347 0,0.578933 0.23157,0.578933 0.28947,0 0.63683,-0.52104 0.34736,-0.521039 0.98419,-1.447332 0.69472,-0.926292 2.43151,-3.35781 1.7947,-2.431517 3.29992,-4.341995 z"
         style="font-style:normal;font-variant:normal;font-weight:normal;font-stretch:normal;font-size:57.89327621px;font-family:Aladin;-inkscape-font-specification:Aladin;fill:#82362e;fill-opacity:1;stroke:none;stroke-width:0.70032179;stroke-opacity:1"
         id="path3749" />
      <path
         d="m 151.02546,81.932488 h 0.81051 q 0.0579,-1.852584 0.34736,-3.705169 h -3.4736 q -0.52104,0 -0.52104,-0.52104 0,-0.521039 0.9263,-1.678905 0.92629,-1.157865 1.96837,-1.157865 h 1.7368 q 1.6789,-6.831407 5.90511,-10.941829 4.22621,-4.168316 11.1734,-4.168316 3.01045,0 4.342,0.694719 1.33154,0.694719 1.33154,2.663091 0,1.968371 -0.46314,1.968371 -0.11579,0 -0.23158,-0.05789 -1.50522,-0.868399 -4.16831,-0.868399 -4.342,0 -7.00509,3.01045 -2.6052,2.952557 -3.76306,7.699806 h 11.52076 q 0.57893,0 0.57893,0.463146 0,1.099972 -0.92629,1.968371 -0.8684,0.810506 -2.02626,0.810506 -6.0209,0 -9.78397,0.05789 -0.28946,2.142052 -0.28946,3.763063 h 12.38916 q 0.57893,0 0.57893,0.463147 0,1.099972 -0.92629,1.968371 -0.8684,0.810506 -2.02627,0.810506 -6.07879,0 -9.89975,0.05789 0.34736,3.820956 2.19995,6.8893 2.14205,3.647276 7.29455,3.647276 3.64728,0 6.42615,-1.621011 0.28947,-0.231573 0.52104,-0.231573 0.46315,0 0.46315,1.042079 0,3.589383 -2.95256,5.384074 -2.89466,1.79469 -6.8314,1.79469 -7.17877,0 -10.71026,-4.63146 -3.53149,-4.689356 -3.76306,-12.215482 h -3.12624 q -0.52104,0 -0.52104,-0.521039 0,-0.52104 0.92629,-1.678905 0.9263,-1.157866 1.96837,-1.157866 z"
         style="font-style:normal;font-variant:normal;font-weight:normal;font-stretch:normal;font-size:57.89327621px;font-family:Aladin;-inkscape-font-specification:Aladin;fill:#82362e;fill-opacity:1;stroke:none;stroke-width:0.70032179;stroke-opacity:1"
         id="path3751" />
      <path
         d="m 196.3558,79.095718 q -0.63683,0.17368 -0.63683,0.405253 0,0.17368 1.38944,0.694719 1.38944,0.52104 2.6052,1.621012 1.27365,1.099972 1.79469,2.663091 0.81051,2.373624 0.81051,5.094608 0,2.720984 0.40525,4.515675 0.40525,1.736799 0.98419,2.663091 1.15786,1.968372 2.14205,2.431518 l 0.40525,0.231573 q 0.34736,0.231573 0.34736,0.578933 0,0.868399 -2.83677,1.505229 -2.83677,0.69472 -4.39989,0.69472 -3.06834,0 -3.93674,-2.431522 -0.81051,-2.489411 -0.81051,-8.452419 v -3.18413 q 0,-5.036715 -3.01045,-6.426154 -1.15786,-0.521039 -2.77888,-0.521039 h -0.0579 q -0.52104,0 -0.52104,-0.984186 0,-1.042079 0.57893,-2.084158 0.63683,-1.042079 1.09998,-1.042079 1.91047,0 3.29991,-0.694719 1.38944,-0.752613 2.02627,-1.794692 1.33154,-2.199944 1.44733,-3.763063 v -0.752612 q 0,-2.142051 -0.69472,-3.589383 -0.69472,-1.505225 -1.7368,-2.084158 -1.7368,-0.926293 -3.53149,-0.926293 -1.79469,0 -2.95256,0.289467 -1.62101,0.463146 -1.62101,0.984185 -0.52104,7.58402 -0.52104,14.646999 0,7.005087 0.17368,10.76815 0.23158,3.705169 0.40526,6.0209 0.23157,2.257838 0.23157,2.663091 0,0.752613 -0.40525,1.042079 -2.37363,2.199946 -7.46824,2.199946 -0.8684,0 -0.8684,-0.57893 0,-0.17368 0.17368,-0.81051 0.57894,-1.331545 0.81051,-8.452418 0.28947,-7.120873 0.28947,-12.968094 0,-5.905114 -0.23158,-9.552391 -0.34736,-5.499861 -1.15786,-6.599833 -0.63683,-0.810506 -0.63683,-1.099973 0,-0.347359 0.63683,-0.694719 3.70517,-1.736798 13.43124,-1.736798 7.81559,0 11.69444,4.399889 2.08416,2.431517 2.08416,6.078794 0,2.199944 -0.8684,3.936743 -0.8684,1.736798 -2.14205,2.66309 -2.43152,1.852585 -4.57357,2.257838 z"
         style="font-style:normal;font-variant:normal;font-weight:normal;font-stretch:normal;font-size:57.89327621px;font-family:Aladin;-inkscape-font-specification:Aladin;fill:#82362e;fill-opacity:1;stroke:none;stroke-width:0.70032179;stroke-opacity:1"
         id="path3753" />
    </g>
    <g
       style="fill:#78342e;fill-opacity:1"
       id="g4788"
       transform="matrix(2.2746467,0,0,2.7275356,-621.99991,-536.25613)">
      <path
         inkscape:connector-curvature="0"
         id="path5461"
         d="m 301.02598,199.64174 c 0.45873,-0.0808 1.3509,-0.1599 1.98257,-0.1758 1.84542,-0.0465 2.15044,0.34532 1.02972,1.32261 -1.06769,0.93105 -2.29823,2.3956 -2.88645,3.43535 -0.30296,0.5355 -1.07699,2.40693 -1.72011,4.15867 -1.16581,3.17566 -3.3031,7.35309 -4.03103,7.87883 -0.84079,0.60707 -3.06644,-0.8517 -3.8464,-2.52112 -0.23785,-0.5095 -0.4599,-1.23522 -0.49312,-1.61279 -0.3448,-3.9231 1.41395,-7.49823 5.04938,-10.26421 1.27187,-0.96765 3.49112,-1.9707 4.91535,-2.22152 z m 5.81816,0.67294 c 1.25444,0.38464 2.77924,2.25627 3.07119,3.76973 0.48446,2.51155 -0.69483,6.05986 -2.83119,8.51861 -1.70001,1.95654 -4.28078,3.5749 -6.54449,4.10394 -2.03374,0.47548 -4.56821,0.36311 -4.40755,-0.19508 0.027,-0.0953 0.63842,-0.71055 1.35782,-1.36746 1.45214,-1.32594 2.83409,-3.4265 3.74277,-5.68894 2.25206,-5.60728 3.94274,-8.92496 4.71199,-9.24666 0.12898,-0.0539 0.5337,-0.006 0.89947,0.10585 z"
         style="fill:#78342e;fill-opacity:1;stroke-width:0.17105696"
         sodipodi:nodetypes="csscscccscccsscsssccc" />
    </g>
    <flowRoot
       xml:space="preserve"
       id="flowRoot126"
       style="fill:black;fill-opacity:1;stroke:none;font-family:Aladin;font-style:normal;font-weight:normal;font-size:40px;line-height:1.25;letter-spacing:0px;word-spacing:0px;-inkscape-font-specification:Aladin;font-stretch:normal;font-variant:normal"><flowRegion
         id="flowRegion128"><rect
           id="rect130"
           width="185.71428"
           height="94.285713"
           x="-377.14285"
           y="-697.48029" /></flowRegion><flowPara
         id="flowPara132" /></flowRoot>    <path
       style="fill:#5a342e;fill-opacity:1;stroke-width:0.25011495"
       d="m 47.163784,53.401115 c -2.456834,-1.225606 -5.0901,-4.418549 -6.086686,-7.380349 -1.881247,-5.590936 -1.072753,-13.310759 2.133936,-20.375697 2.207632,-4.863832 7.308504,-10.821513 11.700376,-13.665716 2.536587,-1.642709 5.841671,-3.1436595 7.88456,-3.5806465 2.206475,-0.471982 6.033993,-0.63029 7.059125,-0.291965 1.631238,0.538359 1.4594,1.10882 -1.29374,4.2948365 -2.146479,2.48397 -4.436609,5.848527 -5.505909,8.089046 -0.426559,0.893772 -1.997745,5.315688 -3.491525,9.826474 -3.090556,9.332581 -5.083237,14.506538 -7.416423,19.256583 -2.142921,4.362703 -2.839041,4.897315 -4.983714,3.827434 z"
       id="path4792"
       inkscape:connector-curvature="0" />
    <path
       style="fill:#82362e;fill-opacity:1;stroke:none;stroke-width:0.25011495;stroke-opacity:1"
       d="m 52.529328,55.167018 c -1.224891,-0.526537 -1.111089,-0.793619 1.658685,-3.892627 3.841811,-4.298484 6.829692,-9.720992 9.371559,-17.00782 5.899519,-16.912303 8.92397,-23.883777 10.537222,-24.2886815 2.578466,-0.647153 7.207395,4.4237655 8.472738,9.2817435 0.565206,2.169962 0.511166,7.059391 -0.11182,10.116436 -1.471672,7.221663 -4.606814,13.192642 -9.474896,18.045284 -3.797007,3.784973 -7.781334,6.305712 -11.662518,7.378458 -1.71263,0.473365 -7.938975,0.733451 -8.790958,0.367207 z"
       id="path4799"
       inkscape:connector-curvature="0" />
  </g>
</svg>
