<?xml version="1.0" encoding="UTF-8" standalone="no"?>
<!-- Created with Inkscape (http://www.inkscape.org/) -->

<svg
   xmlns:dc="http://purl.org/dc/elements/1.1/"
   xmlns:cc="http://creativecommons.org/ns#"
   xmlns:rdf="http://www.w3.org/1999/02/22-rdf-syntax-ns#"
   xmlns:svg="http://www.w3.org/2000/svg"
   xmlns="http://www.w3.org/2000/svg"
   xmlns:sodipodi="http://sodipodi.sourceforge.net/DTD/sodipodi-0.dtd"
   xmlns:inkscape="http://www.inkscape.org/namespaces/inkscape"
   width="210mm"
   height="297mm"
   viewBox="0 0 210 297"
   version="1.1"
   id="svg4836"
   inkscape:version="0.92.5 (2060ec1f9f, 2020-04-08)"
   sodipodi:docname="CoffeeTrackerIcon.svg">
  <defs
     id="defs4830" />
  <sodipodi:namedview
     id="base"
     pagecolor="#ffffff"
     bordercolor="#666666"
     borderopacity="1.0"
     inkscape:pageopacity="0.0"
     inkscape:pageshadow="2"
     inkscape:zoom="0.35"
     inkscape:cx="400"
     inkscape:cy="560"
     inkscape:document-units="mm"
     inkscape:current-layer="layer1"
     showgrid="false"
     inkscape:window-width="1868"
     inkscape:window-height="904"
     inkscape:window-x="52"
     inkscape:window-y="34"
     inkscape:window-maximized="1" />
  <metadata
     id="metadata4833">
    <rdf:RDF>
      <cc:Work
         rdf:about="">
        <dc:format>image/svg+xml</dc:format>
        <dc:type
           rdf:resource="http://purl.org/dc/dcmitype/StillImage" />
        <dc:title></dc:title>
      </cc:Work>
    </rdf:RDF>
  </metadata>
  <g
     inkscape:label="Ebene 1"
     inkscape:groupmode="layer"
     id="layer1">
    <path
       style="fill:#5a342e;fill-opacity:1;stroke-width:0.56378525"
       d="m 51.717792,185.16984 c -5.537961,-2.76261 -11.473621,-9.95989 -13.720026,-16.63605 -4.240529,-12.60257 -2.418099,-30.00387 4.810112,-45.92896 4.976235,-10.96361 16.474134,-24.39287 26.373872,-30.80396 5.71773,-3.70284 13.167735,-7.08617 17.772615,-8.07116 4.973632,-1.06392 13.601255,-1.42078 15.912005,-0.65809 3.67699,1.21349 3.28965,2.49937 -2.916215,9.68095 -4.838391,5.59918 -10.000582,13.1832 -12.410895,18.2336 -0.961515,2.01467 -4.503129,11.98213 -7.87027,22.14987 -6.966429,21.03666 -11.458145,32.69927 -16.717383,43.40638 -4.830372,9.83399 -6.399499,11.03901 -11.233815,8.62742 z"
       id="path4792"
       inkscape:connector-curvature="0" />
    <path
       style="fill:#82362e;fill-opacity:1;stroke:none;stroke-width:0.56378525;stroke-opacity:1"
       d="m 63.812288,189.15035 c -2.761028,-1.18689 -2.504507,-1.78889 3.738851,-8.77436 8.659847,-9.68925 15.394838,-21.91211 21.124469,-38.33743 13.298122,-38.1221 20.115562,-53.83653 23.752002,-54.74921 5.81213,-1.45877 16.24623,9.97164 19.09844,20.92205 1.27402,4.89129 1.1522,15.91257 -0.25208,22.80348 -3.31732,16.27837 -10.38425,29.73758 -21.35739,40.67593 -8.55887,8.53178 -17.539959,14.21378 -26.288548,16.63182 -3.860447,1.06703 -17.89528,1.65328 -19.815744,0.82772 z"
       id="path4799"
       inkscape:connector-curvature="0" />
  </g>
</svg>
