<?xml version="1.0" encoding="UTF-8" standalone="no"?>
<!-- Created with Inkscape (http://www.inkscape.org/) -->

<svg
   xmlns:dc="http://purl.org/dc/elements/1.1/"
   xmlns:cc="http://creativecommons.org/ns#"
   xmlns:rdf="http://www.w3.org/1999/02/22-rdf-syntax-ns#"
   xmlns:svg="http://www.w3.org/2000/svg"
   xmlns="http://www.w3.org/2000/svg"
   xmlns:sodipodi="http://sodipodi.sourceforge.net/DTD/sodipodi-0.dtd"
   xmlns:inkscape="http://www.inkscape.org/namespaces/inkscape"
   width="210mm"
   height="297mm"
   viewBox="0 0 210 297"
   version="1.1"
   id="svg4744"
   sodipodi:docname="CoffeeLarge.svg"
   inkscape:version="0.92.5 (2060ec1f9f, 2020-04-08)">
  <defs
     id="defs4738" />
  <sodipodi:namedview
     id="base"
     pagecolor="#ffffff"
     bordercolor="#666666"
     borderopacity="1.0"
     inkscape:pageopacity="0.0"
     inkscape:pageshadow="2"
     inkscape:zoom="0.98994949"
     inkscape:cx="217.41638"
     inkscape:cy="439.54077"
     inkscape:document-units="mm"
     inkscape:current-layer="layer1"
     showgrid="false"
     inkscape:window-width="1868"
     inkscape:window-height="904"
     inkscape:window-x="52"
     inkscape:window-y="34"
     inkscape:window-maximized="1" />
  <metadata
     id="metadata4741">
    <rdf:RDF>
      <cc:Work
         rdf:about="">
        <dc:format>image/svg+xml</dc:format>
        <dc:type
           rdf:resource="http://purl.org/dc/dcmitype/StillImage" />
        <dc:title></dc:title>
      </cc:Work>
    </rdf:RDF>
  </metadata>
  <g
     inkscape:label="Ebene 1"
     inkscape:groupmode="layer"
     id="layer1">
    <path
       style="fill:#834522;fill-opacity:1;stroke-width:0.21166666"
       d="m 96.97659,218.67738 c -1.173635,-0.47422 -1.364869,-4.00936 -0.270466,-4.99979 0.591327,-0.53514 1.778754,-0.49293 2.355408,0.0837 0.36793,0.36793 0.48204,0.7738 0.54857,1.95115 0.0969,1.71471 -0.18324,2.58792 -0.94097,2.93317 -0.607363,0.27673 -1.065001,0.28531 -1.692542,0.0317 z m 1.606406,-0.84243 c 0.376446,-0.7034 0.491966,-2.24221 0.228306,-3.04113 -0.384175,-1.16405 -1.405441,-1.28662 -1.888401,-0.22663 -0.340413,0.74712 -0.297866,2.32234 0.0826,3.05807 0.383727,0.74205 1.232226,0.85484 1.577497,0.20969 z m 3.223074,0.82806 c -1.00476,-0.40324 -1.44838,-2.89984 -0.76949,-4.33049 0.63627,-1.34083 2.32086,-1.46973 3.07366,-0.23518 0.27295,0.4476 0.40266,1.05485 0.4032,1.88751 0.002,2.28312 -1.06443,3.33752 -2.70737,2.67816 z m 1.50956,-0.72656 c 0.68808,-0.68808 0.67477,-2.97148 -0.0219,-3.76128 -0.42607,-0.48301 -0.79848,-0.46807 -1.31947,0.0529 -0.54287,0.54288 -0.60315,2.82409 -0.0938,3.55124 0.38009,0.54265 0.98363,0.60872 1.43523,0.15713 z m -9.5964,0.10163 v -0.635 h -1.269999 c -1.077109,0 -1.27,-0.0573 -1.27,-0.37719 0,-0.61648 2.297804,-3.64447 2.765619,-3.64447 0.370614,0 0.40938,0.16035 0.40938,1.69333 0,1.36407 0.06174,1.69333 0.3175,1.69333 0.174625,0 0.3175,0.14288 0.3175,0.3175 0,0.17463 -0.142875,0.3175 -0.3175,0.3175 -0.211666,0 -0.3175,0.21167 -0.3175,0.635 0,0.42334 -0.105833,0.635 -0.3175,0.635 -0.211666,0 -0.3175,-0.21166 -0.3175,-0.635 z m 0,-2.43416 c 0,-0.64029 -0.07144,-1.16171 -0.15875,-1.15871 -0.171428,0.006 -1.534583,1.9414 -1.534583,2.17891 0,0.0792 0.381,0.14396 0.846667,0.14396 h 0.846666 z m 14.11227,1.11131 c 0.0353,-1.8961 0.052,-1.95821 0.52917,-1.96517 0.271,-0.004 0.75536,-0.0859 1.07635,-0.18209 0.40873,-0.12248 0.72863,-0.0799 1.06751,0.14217 0.41489,0.27185 0.54117,0.27517 0.88559,0.0233 0.57014,-0.4169 1.30907,-0.36376 1.80244,0.12961 0.35278,0.35278 0.42333,0.70556 0.42333,2.11667 0,1.30493 -0.0675,1.69333 -0.29436,1.69333 -0.21826,0 -0.31523,-0.41318 -0.37506,-1.59809 -0.0792,-1.56886 -0.27996,-1.98822 -0.95587,-1.997 -0.62429,-0.008 -0.91471,0.66769 -0.91471,2.12855 0,1.25618 -0.0531,1.46632 -0.37041,1.46501 -0.31837,-10e-4 -0.37316,-0.22715 -0.38989,-1.60726 -0.0192,-1.58563 -0.1899,-1.97753 -0.86499,-1.9863 -0.62429,-0.008 -0.91471,0.66769 -0.91471,2.12855 0,1.25557 -0.0533,1.46655 -0.37041,1.46661 -0.32871,6e-5 -0.36632,-0.22038 -0.33398,-1.95792 z m 7.05439,-0.9702 c 0,-1.61043 0.0627,-2.99073 0.13928,-3.06733 0.0766,-0.0766 0.2671,-0.0332 0.42333,0.0965 0.21173,0.17572 0.28406,0.95675 0.28406,3.06733 0,2.69047 -0.0211,2.83158 -0.42333,2.83158 -0.40293,0 -0.42334,-0.14111 -0.42334,-2.92805 z M 81.914632,203.3164 c -0.748496,-0.52427 -0.878776,-0.95912 -1.213812,-4.05146 -0.174161,-1.60748 -0.457711,-3.97044 -0.63011,-5.25102 -0.172399,-1.28059 -0.514062,-3.99521 -0.75925,-6.0325 -1.126996,-9.36433 -2.273197,-18.80992 -3.043702,-25.0825 -1.407644,-11.45945 -1.64074,-13.38078 -2.028672,-16.72167 -0.229804,-1.97908 -0.46621,-3.83646 -0.525348,-4.1275 -0.05914,-0.29104 -0.346664,-2.57704 -0.638948,-5.08 -0.292284,-2.50296 -0.72666,-6.21771 -0.96528,-8.255 -0.238619,-2.03729 -0.546112,-4.27566 -0.683316,-4.97416 -0.229071,-1.16619 -0.291141,-1.26413 -0.759305,-1.19809 -0.943928,0.13314 -2.338052,-0.18763 -2.551869,-0.58715 -0.153289,-0.28642 0.106421,-1.3424 1.024967,-4.16753 0.676653,-2.08114 1.388073,-4.08903 1.580934,-4.46196 0.388577,-0.75139 1.306918,-1.11789 2.806226,-1.11993 l 0.868749,-10e-4 0.475455,-1.64041 c 1.625204,-5.60729 1.926597,-6.19929 3.377442,-6.63397 0.786069,-0.23551 7.592376,0.0689 14.835438,0.66348 1.455208,0.11946 5.598581,0.40286 9.207499,0.62978 15.38973,0.96764 24.43243,1.57227 27.1268,1.8138 0.83443,0.0748 1.41808,0.24483 1.62194,0.47251 0.25586,0.28573 0.99042,3.61079 0.99042,4.48324 0,0.11637 0.26194,0.2121 0.58209,0.21275 1.00032,0.002 2.14337,0.41903 2.48521,0.90663 0.43685,0.62313 2.90283,8.1294 2.81704,8.57486 -0.10135,0.52626 -0.99296,0.88239 -2.21785,0.88588 l -1.09602,0.003 -0.13436,1.21708 c -0.0739,0.6694 -0.27199,2.27012 -0.4402,3.55716 -0.16821,1.28703 -0.49075,3.90641 -0.71676,5.82083 -1.15246,9.7622 -1.50154,12.62857 -1.59681,13.1116 -0.0574,0.29104 -0.29053,2.14841 -0.51807,4.1275 -0.22753,1.97908 -0.66062,5.59858 -0.96242,8.04333 -0.30179,2.44475 -0.78035,6.35 -1.06347,8.67833 -0.28311,2.32834 -0.75413,6.18596 -1.04671,8.5725 -0.74583,6.08365 -1.501,12.27965 -2.11544,17.35667 -1.19842,9.90244 -1.13991,9.60006 -1.99671,10.31875 -0.24762,0.2077 -4.75592,0.26458 -20.97121,0.26458 -18.321611,0 -20.70875,-0.0371 -21.124568,-0.32835 z m 41.053468,-1.4179 c 0.21668,-0.17296 0.41365,-0.92423 0.56885,-2.16958 0.22018,-1.76684 1.12414,-9.22211 1.80937,-14.9225 0.16093,-1.33879 0.2488,-2.50561 0.19526,-2.59292 -0.0535,-0.0873 -10.23584,-0.15875 -22.62734,-0.15875 H 80.384231 v 0.60096 c 0,0.60961 1.004898,9.00481 1.587593,13.26321 0.175228,1.28058 0.380593,3.07435 0.456366,3.98616 0.08159,0.98176 0.260146,1.7802 0.437857,1.95792 0.254715,0.25471 3.284047,0.30008 20.035343,0.30008 15.47032,0 19.80689,-0.0572 20.06671,-0.26458 z m -15.66829,-25.4178 c 5.05159,-1.57832 9.05122,-5.8076 10.24205,-10.83011 0.35402,-1.49316 0.39927,-4.82261 0.0884,-6.50428 -1.11888,-6.05255 -6.74438,-11.17275 -12.93264,-11.77097 -7.486122,-0.72369 -13.826616,3.51931 -16.080727,10.76108 -0.649793,2.08758 -0.696453,5.75465 -0.09965,7.83167 1.648976,5.73883 6.282863,9.94444 12.135597,11.01398 1.65914,0.30319 4.83973,0.0633 6.64697,-0.50137 z m -8.226148,-5.44637 c -1.055113,-0.20453 -1.756098,-0.54883 -1.756098,-0.86254 0,-0.43387 1.097718,-2.41249 1.958598,-3.53034 1.135458,-1.4744 2.417888,-2.60048 4.510188,-3.96033 2.64106,-1.71651 4.81536,-4.45074 5.67595,-7.13762 0.18672,-0.58298 0.41826,-0.44374 0.98302,0.59117 0.466,0.85394 0.52474,1.21527 0.52474,3.22791 0,2.49998 -0.31904,3.59186 -1.75846,6.01817 -0.86591,1.4596 -3.14887,3.66407 -4.71852,4.55631 -1.73706,0.9874 -3.81541,1.40821 -5.419418,1.09727 z m -3.113136,-1.86412 c -1.159347,-1.67294 -1.44127,-3.66751 -0.864283,-6.11472 0.845989,-3.58814 3.651269,-7.08957 7.015397,-8.75631 1.69245,-0.83852 4.22235,-1.07117 5.66344,-0.52081 1.44004,0.54996 1.50186,0.72681 0.75217,2.15198 -1.00886,1.91788 -2.35692,3.32728 -4.65545,4.86727 -3.26919,2.19034 -5.33206,4.67166 -6.449523,7.75779 -0.261023,0.72088 -0.566875,1.34145 -0.67967,1.37905 -0.112793,0.0376 -0.464731,-0.30632 -0.782081,-0.76425 z m 34.588704,-27.02846 c 0,-0.17471 1.00885,-8.27191 1.36962,-10.99283 0.5129,-3.86829 0.99272,-8.39738 0.8995,-8.4906 -0.10282,-0.10282 -59.670979,-0.11226 -59.773761,-0.009 -0.03824,0.0383 0.120099,1.53778 0.351873,3.33231 0.428025,3.314 1.541696,12.37719 1.805427,14.69277 0.07955,0.6985 0.188374,1.34144 0.241819,1.42875 0.111449,0.18208 55.105522,0.22108 55.105522,0.0391 z m 5.29166,-21.63103 c 0,-0.55017 -1.65793,-5.57458 -2.02365,-6.13274 l -0.31444,-0.47989 h -30.55503 c -24.190869,0 -30.598797,0.0551 -30.765132,0.26458 -0.348037,0.4383 -2.200253,6.28868 -2.06187,6.51259 0.08316,0.13455 11.692265,0.20783 32.924282,0.20783 31.15844,0 32.79584,-0.0186 32.79584,-0.37237 z m -5.62824,-9.62888 c -0.26016,-2.35852 0.039,-2.1805 -4.14475,-2.46609 -4.79346,-0.3272 -11.60396,-0.7672 -19.86034,-1.28308 -3.66712,-0.22914 -7.810496,-0.51148 -9.207496,-0.62743 -1.397,-0.11595 -6.046623,-0.42045 -10.332496,-0.67668 l -7.792497,-0.46586 -0.538384,0.53838 c -0.38486,0.38486 -0.773268,1.34457 -1.362087,3.36555 -0.453036,1.55494 -0.823703,2.85212 -0.823703,2.88264 0,0.0305 12.196731,0.0555 27.103843,0.0555 h 27.10384 z"
       id="path4808"
       inkscape:connector-curvature="0" />
    <path
       style="fill:#ffffff;fill-opacity:1;stroke-width:1.01015258"
       d="m 326.92436,763.23787 c -9.42357,-0.22044 -13.55475,-0.6818 -13.85402,-1.54718 -0.66209,-1.91453 -8.57881,-67.01055 -8.57881,-70.54015 v -3.13373 l 84.26364,0.35999 c 46.345,0.19799 84.54785,0.64425 84.89524,0.99167 0.79861,0.79872 -7.21868,68.33048 -8.45017,71.17805 -0.87028,2.01234 -1.89836,2.13992 -22.38447,2.77792 -20.42293,0.63603 -87.13154,0.5862 -115.89141,-0.0866 z"
       id="path5889"
       inkscape:connector-curvature="0"
       transform="scale(0.26458333)" />
    <path
       style="fill:#ffffff;fill-opacity:1;stroke-width:1.01015258"
       d="m 376.21236,667.50983 c -19.18845,-5.30328 -35.24284,-20.82949 -40.93439,-39.58767 -2.19023,-7.21855 -1.93983,-22.88111 0.49161,-30.75031 12.5518,-40.62314 62.46138,-53.35493 92.48419,-23.59245 11.48872,11.3891 16.64897,23.59963 16.64897,39.39595 0,4.48901 -0.69604,10.83408 -1.54674,14.10016 -4.56074,17.50984 -19.23755,33.08506 -36.64673,38.88996 -8.5694,2.85737 -23.08624,3.5925 -30.49691,1.54436 z m 16.5723,-23.65437 c 7.69328,-3.76208 17.90715,-14.04065 22.41296,-22.55492 3.61921,-6.83894 3.89373,-7.97249 4.21792,-17.41657 0.28329,-8.25285 0.0129,-10.73755 -1.4777,-13.5769 -1.00345,-1.91146 -2.27902,-3.61092 -2.8346,-3.77658 -0.55559,-0.16566 -2.23317,2.32768 -3.72796,5.54076 -4.01516,8.63067 -10.04709,15.59015 -19.32625,22.29811 -10.13792,7.32876 -14.8181,11.82042 -19.38928,18.60823 -4.14654,6.15726 -4.61598,4.82489 -0.8904,-2.52718 3.4715,-6.85069 10.97613,-14.6887 22.12068,-23.10338 5.00026,-3.77544 10.28147,-8.38616 11.73602,-10.24604 2.93782,-3.75649 6.95181,-11.22015 6.95181,-12.92629 0,-2.02807 -7.30093,-4.20324 -13.93715,-4.15231 -23.09544,0.17726 -45.773,30.48859 -39.55649,52.8721 1.13319,4.0802 5.70214,10.19385 7.01285,9.38379 0.44672,-0.27609 1.07706,0.18818 1.40076,1.03171 0.97257,2.53448 4.76402,3.49274 12.75514,3.22378 5.56225,-0.18721 8.89344,-0.89916 12.53169,-2.67831 z"
       id="path5891"
       inkscape:connector-curvature="0"
       transform="scale(0.26458333)" />
    <path
       style="fill:#ffffff;fill-opacity:1;stroke-width:1.01015258"
       d="m 284.87738,532.92076 c -0.32937,-2.08344 -2.17328,-16.97056 -4.09759,-33.0825 -1.92431,-16.11193 -3.71177,-30.77177 -3.97213,-32.57742 l -0.47338,-3.28299 h 112.70758 112.70758 l -0.63399,5.80837 c -0.34869,3.19461 -2.30333,19.55908 -4.34364,36.3655 l -3.70966,30.55711 H 389.26918 285.47622 Z"
       id="path5893"
       inkscape:connector-curvature="0"
       transform="scale(0.26458333)" />
    <path
       style="fill:#ffffff;fill-opacity:1;stroke-width:1.01015258"
       d="m 326.02682,455.89663 -60.79215,-0.50508 3.76957,-11.61675 3.76957,-11.61676 17.62663,-0.75028 c 9.69464,-0.41266 61.91981,-0.63994 116.05591,-0.50508 l 98.42929,0.24521 2.34989,6.06091 c 2.79063,7.19769 5.79053,17.57633 5.23573,18.11381 -0.7248,0.70216 -124.97728,1.0847 -186.44444,0.57402 z"
       id="path5895"
       inkscape:connector-curvature="0"
       transform="scale(0.26458333)" />
    <path
       style="fill:#ffffff;fill-opacity:1;stroke-width:1.01015258"
       d="m 288.72839,421.80398 c 4.13492,-13.65139 6.11135,-18.81975 7.97579,-20.85662 l 2.23151,-2.43788 35.35534,2.35105 c 19.44544,1.29309 60.81119,3.98625 91.92389,5.98482 31.11269,1.99857 58.00021,3.86422 59.75003,4.1459 4.06927,0.65503 4.98339,1.89202 5.751,7.78227 l 0.62531,4.79823 H 390.2671 c -96.74402,0 -102.04619,-0.0923 -101.53871,-1.76777 z"
       id="path5897"
       inkscape:connector-curvature="0"
       transform="scale(0.26458333)" />
  </g>
</svg>
