<?xml version="1.0" encoding="UTF-8" standalone="no"?>
<!-- Created with Inkscape (http://www.inkscape.org/) -->

<svg
   xmlns:dc="http://purl.org/dc/elements/1.1/"
   xmlns:cc="http://creativecommons.org/ns#"
   xmlns:rdf="http://www.w3.org/1999/02/22-rdf-syntax-ns#"
   xmlns:svg="http://www.w3.org/2000/svg"
   xmlns="http://www.w3.org/2000/svg"
   xmlns:sodipodi="http://sodipodi.sourceforge.net/DTD/sodipodi-0.dtd"
   xmlns:inkscape="http://www.inkscape.org/namespaces/inkscape"
   width="210mm"
   height="297mm"
   viewBox="0 0 210 297"
   version="1.1"
   id="svg8"
   inkscape:version="0.92.5 (2060ec1f9f, 2020-04-08)"
   sodipodi:docname="CoffeeIcon.svg">
  <defs
     id="defs2" />
  <sodipodi:namedview
     id="base"
     pagecolor="#ffffff"
     bordercolor="#666666"
     borderopacity="1.0"
     inkscape:pageopacity="0.0"
     inkscape:pageshadow="2"
     inkscape:zoom="0.7"
     inkscape:cx="-76.91908"
     inkscape:cy="673.88531"
     inkscape:document-units="mm"
     inkscape:current-layer="layer1"
     showgrid="false"
     inkscape:window-width="1868"
     inkscape:window-height="904"
     inkscape:window-x="52"
     inkscape:window-y="34"
     inkscape:window-maximized="1" />
  <metadata
     id="metadata5">
    <rdf:RDF>
      <cc:Work
         rdf:about="">
        <dc:format>image/svg+xml</dc:format>
        <dc:type
           rdf:resource="http://purl.org/dc/dcmitype/StillImage" />
        <dc:title></dc:title>
      </cc:Work>
    </rdf:RDF>
  </metadata>
  <g
     inkscape:groupmode="layer"
     id="layer2"
     inkscape:label="Ebene 2" />
  <g
     inkscape:label="Ebene 1"
     inkscape:groupmode="layer"
     id="layer1">
    <path
       style="fill:#834522;fill-opacity:1;stroke-width:0.43771401"
       d="m 88.529746,212.38352 c -17.21241,-1.94772 -32.062,-10.71023 -35.74341,-21.09158 -3.0723,-8.66371 -0.61795,-15.96851 7.83269,-23.3122 l 4.35657,-3.78591 v -4.35734 c 0,-6.27347 1.01421,-7.90392 6.80067,-10.93284 4.11806,-2.15559 9.26331,-3.4744 17.47067,-4.47802 1.75475,-0.21456 1.99332,-0.14907 1.99332,0.54676 0,1.35071 -2.22995,3.25197 -4.13212,3.52306 -3.29551,0.46968 -9.96522,2.23036 -12.17466,3.21389 -2.61554,1.1643 -5.08481,3.29801 -5.49419,4.74757 -0.66636,2.3595 3.90619,5.71067 10.05404,7.36852 9.84017,2.65349 24.800334,2.70226 34.024964,0.11098 5.75423,-1.61645 10.55278,-4.66632 10.55278,-6.70712 0,-1.37294 -1.2434,-3.02388 -3.1332,-4.16021 -2.11403,-1.27114 -6.32954,-2.93496 -8.46217,-3.33992 -2.44028,-0.46338 -4.93276,-3.69819 -3.46027,-4.49084 0.62206,-0.33486 8.16279,1.655 10.97874,2.89707 5.17162,2.28114 8.298,5.42567 8.298,8.34616 v 1.50882 l 3.86935,-0.19654 c 3.445,-0.17507 4.1008,-0.0883 5.97988,0.79051 5.44576,2.54687 6.58285,8.63408 2.64497,14.15922 l -1.59762,2.24161 1.13737,2.6319 c 3.9149,9.05914 -0.13867,19.24366 -10.39242,26.11046 -3.97103,2.65935 -11.38858,5.88954 -16.18091,7.04643 -7.71723,1.86298 -17.479024,2.48594 -25.223044,1.60962 z m 19.793104,-4.52234 c 12.91423,-2.23129 23.20046,-8.29844 27.32302,-16.11597 0.9868,-1.87128 1.31794,-3.21947 1.47312,-5.9978 0.19292,-3.4556 -0.46231,-6.98258 -1.39018,-7.48205 -0.22434,-0.12085 -1.04404,0.17506 -1.82158,0.65722 -2.10447,1.30518 -6.22392,2.44293 -8.84525,2.44293 -2.30655,0 -2.32388,0.01 -4.42319,2.57247 -4.44115,5.42079 -11.10886,9.65925 -17.46329,11.10083 -3.524417,0.79957 -9.558824,0.79957 -13.083244,0 -4.70092,-1.06646 -9.04947,-3.34703 -13.20819,-6.92695 -5.64176,-4.85655 -7.60164,-8.0821 -11.2973,-18.59299 -0.37879,-1.07734 -5.5058,4.11768 -7.45641,7.55532 -1.5078,2.65722 -1.79818,3.61416 -1.97199,6.49843 -0.34125,5.66312 1.49084,9.73079 6.43933,14.29676 9.86731,9.10453 27.96797,13.05987 45.725154,9.9918 z m -6.54934,-16.50006 c 11.39967,-2.58615 20.23816,-12.76423 22.07501,-25.42075 l 0.31185,-2.1487 -3.51421,1.65099 c -12.12584,5.69682 -34.672324,5.79789 -47.449204,0.21273 l -4.04249,-1.76709 0.29542,1.89615 c 2.7029,17.34898 17.38429,28.96589 32.323624,25.57667 z m 28.39472,-15.02708 c 2.68073,-1.08843 6.34616,-4.2626 7.51729,-6.50974 1.0184,-1.95417 1.18951,-4.66324 0.39091,-6.18985 -0.58837,-1.12474 -2.97858,-2.28696 -4.69601,-2.28342 -0.60592,0.001 -1.88498,0.19177 -2.84239,0.42337 -1.89852,0.45926 -1.88285,0.42489 -2.50833,5.49263 -0.24949,2.02137 -1.28103,5.52213 -2.86006,9.70632 -0.23175,0.61403 -0.0482,0.67935 1.30923,0.4659 0.86834,-0.13664 2.52855,-0.6339 3.68936,-1.10521 z M 98.974433,158.28495 c 4.848597,-12.96797 4.478177,-18.95155 -1.766527,-28.53709 -3.98554,-6.11774 -4.73464,-7.90633 -4.71956,-11.26854 0.0102,-2.21804 0.34073,-3.89257 1.17466,-5.94692 1.0756,-2.64968 3.5314,-6.5925 3.90403,-6.26796 0.0889,0.0776 -0.0468,1.06004 -0.30173,2.18324 -0.66378,2.92354 -0.67809,9.10861 -0.0256,11.05645 0.30603,0.91364 1.731187,3.3034 3.166974,5.31056 3.66763,5.12723 6.13361,9.75073 6.80567,12.76 1.1355,5.0845 -0.27409,11.12124 -3.77,16.1453 -1.7967,2.58212 -4.919514,5.77271 -4.467957,4.56496 z m -7.095237,-7.40405 c 0.14873,-0.42132 0.49845,-2.06672 0.77718,-3.65642 0.90168,-5.14283 -0.20926,-8.40219 -5.19798,-15.25017 -1.41304,-1.93968 -1.60929,-2.53703 -1.61045,-4.90206 -9.5e-4,-2.15911 0.27342,-3.17926 1.38408,-5.14423 l 1.38542,-2.45103 0.27636,3.67654 c 0.29938,3.98277 0.80973,5.13515 3.80384,8.58923 5.27629,6.08683 5.69772,11.93803 1.27026,17.63637 -1.52914,1.96807 -2.49966,2.66585 -2.08871,1.50177 z"
       id="path139"
       inkscape:connector-curvature="0"
       sodipodi:nodetypes="csscsccsccsccscsccsccccccsscccccccscccscccccccccscccccccccccccsccccccccccccccccscsc" />
    <rect
       style="fill:#e00000;fill-opacity:0;stroke-width:0.26458332"
       id="rect4705"
       width="206.375"
       height="32.505951"
       x="2.2678571"
       y="-30.327379" />
    <rect
       style="fill:#834522;fill-opacity:1;stroke-width:0.26458332"
       id="rect4709"
       width="3.7797618"
       height="8.3154764"
       x="170.08928"
       y="-43.17857" />
  </g>
</svg>
