<?xml version="1.0" encoding="UTF-8" standalone="no"?>
<!-- Created with Inkscape (http://www.inkscape.org/) -->

<svg
   xmlns:dc="http://purl.org/dc/elements/1.1/"
   xmlns:cc="http://creativecommons.org/ns#"
   xmlns:rdf="http://www.w3.org/1999/02/22-rdf-syntax-ns#"
   xmlns:svg="http://www.w3.org/2000/svg"
   xmlns="http://www.w3.org/2000/svg"
   xmlns:sodipodi="http://sodipodi.sourceforge.net/DTD/sodipodi-0.dtd"
   xmlns:inkscape="http://www.inkscape.org/namespaces/inkscape"
   width="210mm"
   height="297mm"
   viewBox="0 0 210 297"
   version="1.1"
   id="svg196"
   inkscape:version="0.92.5 (2060ec1f9f, 2020-04-08)"
   sodipodi:docname="eimer.svg">
  <defs
     id="defs190" />
  <sodipodi:namedview
     id="base"
     pagecolor="#ffffff"
     bordercolor="#666666"
     borderopacity="1.0"
     inkscape:pageopacity="0.0"
     inkscape:pageshadow="2"
     inkscape:zoom="0.49497475"
     inkscape:cx="838.11921"
     inkscape:cy="854.02356"
     inkscape:document-units="mm"
     inkscape:current-layer="layer1"
     showgrid="false"
     inkscape:window-width="1868"
     inkscape:window-height="1009"
     inkscape:window-x="52"
     inkscape:window-y="34"
     inkscape:window-maximized="1" />
  <metadata
     id="metadata193">
    <rdf:RDF>
      <cc:Work
         rdf:about="">
        <dc:format>image/svg+xml</dc:format>
        <dc:type
           rdf:resource="http://purl.org/dc/dcmitype/StillImage" />
        <dc:title></dc:title>
      </cc:Work>
    </rdf:RDF>
  </metadata>
  <g
     inkscape:label="Ebene 1"
     inkscape:groupmode="layer"
     id="layer1">
    <path
       style="fill:#000000;stroke-width:0.26458332"
       d="m 73.973904,242.60967 c -14.79841,-1.18927 -28.42508,-5.86956 -30.75534,-10.5634 -0.50543,-1.0181 -0.88761,-4.02469 -2.99025,-23.52458 -1.56194,-14.48551 -2.54603,-22.63676 -2.79498,-23.15104 -0.21133,-0.43656 -1.09073,-1.74625 -1.95421,-2.91042 -5.33803,-7.19683 -9.38365,-17.36873 -11.10543,-27.9224 -0.79045,-4.84508 -1.20641,-11.33623 -0.80449,-12.55408 0.50721,-1.53685 1.51093,-1.98697 4.43335,-1.98815 2.01646,-8.1e-4 2.44739,-0.072 2.44739,-0.40447 0,-0.82209 1.086,-3.45519 1.98106,-4.80324 4.54468,-6.84479 16.62004,-12.25281 32.41477,-14.51715 27.70296,-3.9715 57.324956,2.62167 65.223106,14.51715 0.89506,1.34805 1.98106,3.98115 1.98106,4.80324 0,0.33244 0.43093,0.40366 2.44739,0.40447 1.94603,8e-4 2.61797,0.105 3.28002,0.50869 1.34794,0.82192 1.52094,1.79285 1.17777,6.60989 -0.94619,13.28157 -4.58783,24.45468 -11.18704,34.3236 l -1.8341,2.74285 -2.89414,23.21688 c -1.59178,12.76929 -2.96137,23.51454 -3.04353,23.87834 -0.0822,0.36381 -0.90926,1.39313 -1.83799,2.2874 -6.47079,6.23064 -26.977526,10.42924 -44.184416,9.04642 z m 14.05064,-2.0815 c 10.12858,-0.8095 19.284516,-3.02603 25.272516,-6.11814 2.10029,-1.08456 4.00901,-2.54602 4.48377,-3.43313 0.22713,-0.42439 5.53786,-41.95544 5.53786,-43.30727 0,-0.2299 -1.20966,0.77865 -2.71198,2.26112 -1.49159,1.47187 -3.36682,3.20169 -4.16719,3.84403 -3.38932,2.72016 -8.55016,5.86175 -12.72867,7.74839 -2.36498,1.06782 -8.963026,3.29435 -9.762406,3.29435 -0.4529,0 -0.52788,0.17808 -0.52914,1.25677 -0.002,1.73715 -0.44024,3.14989 -1.12601,3.63022 -0.86704,0.6073 -21.21966,0.6073 -22.0867,0 -0.68577,-0.48033 -1.12397,-1.89307 -1.12601,-3.63022 -0.001,-1.07869 -0.0762,-1.25677 -0.52914,-1.25677 -0.83219,0 -7.31192,-2.2051 -9.79108,-3.33198 -6.19956,-2.81794 -11.89254,-6.67026 -16.47031,-11.1451 -1.7831,-1.743 -2.05062,-1.92173 -2.05126,-1.37043 -5.3e-4,0.34868 1.01086,9.80178 2.24724,21.00689 1.62565,14.73295 2.36767,20.60691 2.68035,21.21817 1.60646,3.1405 11.8721,6.99173 23.11898,8.67326 5.95164,0.88983 13.6441,1.14697 19.73918,0.65984 z m 2.97613,-32.62113 c 0.38012,-0.45801 0.37304,-6.25872 -0.008,-6.71808 -0.4051,-0.48812 -19.0729,-0.49718 -19.47628,-0.009 -0.37314,0.45117 -0.38686,6.28187 -0.0158,6.72894 0.42532,0.51248 19.07493,0.51115 19.5003,-10e-4 z m -21.79812,-6.43003 c 0.11276,-0.75193 0.42578,-1.46609 0.81177,-1.85208 l 0.62823,-0.62824 h 10.60739 10.60739 l 0.62823,0.62824 c 0.38599,0.38599 0.69901,1.10015 0.81177,1.85208 0.13261,0.88433 0.30364,1.2229 0.6165,1.22044 1.01199,-0.008 7.828036,-2.52057 10.794356,-3.97914 3.63997,-1.78981 8.12929,-4.69925 11.18953,-7.25171 2.66005,-2.21867 7.37719,-7.15694 7.83287,-8.20006 0.19373,-0.44347 1.19976,-7.71193 2.23563,-16.15214 1.03588,-8.44021 1.95368,-15.81077 2.03956,-16.37903 l 0.15615,-1.03319 -1.73216,1.46944 c -6.5291,5.53881 -18.61745,9.59397 -33.405866,11.20634 -5.77719,0.62988 -17.73329,0.63784 -23.34834,0.0155 -12.53268,-1.38898 -22.35709,-4.18499 -29.60718,-8.42616 -1.18553,-0.69352 -2.53001,-1.57606 -2.98773,-1.9612 -0.45772,-0.38515 -0.88658,-0.64591 -0.95302,-0.57948 -0.0664,0.0664 0.70329,7.52112 1.71051,16.56595 1.58048,14.19278 1.90368,16.5468 2.35974,17.18729 0.95865,1.3463 6.21635,6.24416 8.6406,8.04925 2.91447,2.17009 7.09087,4.67735 10.14767,6.09206 2.36412,1.09412 8.83595,3.37025 9.5999,3.37626 0.31286,0.002 0.48389,-0.33611 0.6165,-1.22044 z m -33.84543,-37.06936 -1.72095,-15.40674 -1.06155,-1.55517 c -0.58385,-0.85534 -1.32946,-2.4055 -1.65693,-3.44481 l -0.59538,-1.88965 h -2.2996 c -2.79273,0 -2.72771,-0.10672 -2.47601,4.06387 0.40755,6.75271 1.65652,13.24939 3.76573,19.58789 1.88531,5.66562 7.49025,16.3462 7.69272,14.65898 0.0401,-0.33419 -0.70151,-7.54066 -1.64803,-16.01437 z m 94.851586,8.52758 c 3.86377,-7.93663 6.15774,-17.03843 6.74447,-26.76008 0.25206,-4.17654 0.3216,-4.06387 -2.50841,-4.06387 h -2.33201 l -0.30987,1.23059 c -0.17043,0.67683 -0.48993,1.57879 -0.71,2.00437 -0.2551,0.49332 -1.112,6.49666 -2.36409,16.56264 -1.08017,8.68387 -2.02816,16.20557 -2.10664,16.71489 -0.1406,0.91252 -0.12862,0.90479 0.82029,-0.52916 0.52964,-0.80037 1.77446,-3.12209 2.76626,-5.15938 z M 94.214524,159.98688 c 7.152816,-0.90046 13.089996,-2.20996 18.538956,-4.08896 2.86522,-0.98803 7.65479,-3.09754 7.65479,-3.37146 0,-0.47253 -0.95714,-1.78256 -1.87875,-2.57142 -7.63677,-6.53679 -32.932486,-9.71243 -54.007186,-6.78009 -9.34916,1.30084 -17.1618,3.87823 -20.55197,6.78009 -0.92161,0.78886 -1.87875,2.09889 -1.87875,2.57142 0,0.27392 4.78957,2.38343 7.65479,3.37146 5.82121,2.00736 13.18054,3.55819 19.86187,4.18548 1.67349,0.15712 3.45943,0.33324 3.96875,0.39137 2.32097,0.26492 17.50985,-0.0942 20.6375,-0.48789 z m -53.59806,-9.37037 c 1.04061,-2.01232 5.06529,-4.69321 9.33248,-6.21649 11.44872,-4.08689 30.83453,-5.51324 47.04371,-3.46134 7.747396,0.98074 15.236326,2.97156 19.514006,5.1875 2.06959,1.07209 4.90544,3.50116 5.63803,4.82928 0.26957,0.48871 0.32976,0.47631 1.45521,-0.29982 1.60746,-1.10855 3.84488,-3.37931 4.89947,-4.97249 2.37052,-3.58114 1.78088,-7.80224 -1.59998,-11.45397 -7.57107,-8.17766 -27.375346,-13.46719 -48.427566,-12.93452 -13.81374,0.34951 -25.79279,2.86106 -34.79733,7.29566 -3.50785,1.72757 -5.37555,3.00828 -7.60393,5.21415 -2.61927,2.59282 -3.37166,4.21032 -3.37166,7.24848 0,2.92791 0.74254,4.52228 3.24408,6.96563 1.77918,1.73779 3.72841,3.33182 4.09131,3.34575 0.10541,0.004 0.36738,-0.33247 0.58217,-0.74782 z"
       id="path330"
       inkscape:connector-curvature="0" />
  </g>
</svg>
