<?xml version="1.0" encoding="UTF-8" standalone="no"?>
<!-- Created with Inkscape (http://www.inkscape.org/) -->

<svg
   xmlns:dc="http://purl.org/dc/elements/1.1/"
   xmlns:cc="http://creativecommons.org/ns#"
   xmlns:rdf="http://www.w3.org/1999/02/22-rdf-syntax-ns#"
   xmlns:svg="http://www.w3.org/2000/svg"
   xmlns="http://www.w3.org/2000/svg"
   xmlns:sodipodi="http://sodipodi.sourceforge.net/DTD/sodipodi-0.dtd"
   xmlns:inkscape="http://www.inkscape.org/namespaces/inkscape"
   width="210mm"
   height="297mm"
   viewBox="0 0 210 297"
   version="1.1"
   id="svg196"
   inkscape:version="0.92.5 (2060ec1f9f, 2020-04-08)"
   sodipodi:docname="eimer.svg">
  <defs
     id="defs190" />
  <sodipodi:namedview
     id="base"
     pagecolor="#ffffff"
     bordercolor="#666666"
     borderopacity="1.0"
     inkscape:pageopacity="0.0"
     inkscape:pageshadow="2"
     inkscape:zoom="0.49497475"
     inkscape:cx="838.11921"
     inkscape:cy="854.02356"
     inkscape:document-units="mm"
     inkscape:current-layer="layer1"
     showgrid="false"
     inkscape:window-width="1868"
     inkscape:window-height="1129"
     inkscape:window-x="52"
     inkscape:window-y="34"
     inkscape:window-maximized="1" />
  <metadata
     id="metadata193">
    <rdf:RDF>
      <cc:Work
         rdf:about="">
        <dc:format>image/svg+xml</dc:format>
        <dc:type
           rdf:resource="http://purl.org/dc/dcmitype/StillImage" />
        <dc:title />
      </cc:Work>
    </rdf:RDF>
  </metadata>
  <g
     inkscape:label="Ebene 1"
     inkscape:groupmode="layer"
     id="layer1">
    <path
       style="fill:#000000;stroke-width:0.30479136"
       d="m 81.6574,242.56953 c -17.047285,-1.37 -32.744764,-6.76154 -35.429148,-12.16869 -0.582239,-1.17282 -1.022498,-4.63631 -3.44467,-27.09955 -1.799304,-16.68683 -2.932944,-26.07681 -3.219726,-26.66924 -0.243445,-0.50291 -1.256486,-2.01163 -2.251186,-3.35271 -6.149237,-8.29051 -10.809659,-20.00821 -12.793093,-32.16569 -0.910573,-5.58138 -1.389745,-13.05897 -0.926746,-14.4619 0.584289,-1.7704 1.740542,-2.28892 5.107074,-2.29028 2.322896,-9.3e-4 2.819313,-0.0829 2.819313,-0.46594 0,-0.94702 1.251037,-3.98026 2.282117,-5.53317 5.235323,-7.88498 19.145744,-14.11484 37.340757,-16.72328 31.912908,-4.575043 66.036478,3.02007 75.134888,16.72328 1.03108,1.55291 2.28212,4.58615 2.28212,5.53317 0,0.38296 0.49642,0.46501 2.81931,0.46594 2.24176,9.2e-4 3.01582,0.12096 3.77848,0.586 1.55278,0.94682 1.75207,2.0653 1.35675,7.61437 -1.08998,15.29994 -5.28503,28.171 -12.8871,39.53967 l -2.11283,3.15967 -3.33395,26.74509 c -1.83368,14.70981 -3.4114,27.08798 -3.50605,27.50707 -0.0947,0.4191 -1.04744,1.60484 -2.1173,2.63501 -7.45414,7.17749 -31.07723,12.01414 -50.89901,10.42118 z m 16.185879,-2.39782 c 11.667791,-0.93252 22.215131,-3.48589 29.113111,-7.0479 2.41947,-1.24937 4.61825,-2.93293 5.16516,-3.95485 0.26165,-0.48888 6.37943,-48.3313 6.37943,-49.88856 0,-0.26484 -1.39349,0.89698 -3.12411,2.60473 -1.71826,1.69555 -3.87847,3.68825 -4.80047,4.4282 -3.90438,3.13354 -9.8495,6.75255 -14.66301,8.92589 -2.72438,1.2301 -10.32511,3.79499 -11.24597,3.79499 -0.52173,0 -0.6081,0.20514 -0.60955,1.44776 -0.002,2.00114 -0.50715,3.62857 -1.29713,4.18189 -0.9988,0.69959 -24.444356,0.69959 -25.443158,0 -0.789985,-0.55332 -1.294777,-2.18075 -1.297127,-4.18189 -0.0012,-1.24262 -0.08778,-1.44776 -0.609552,-1.44776 -0.958656,0 -8.423093,-2.54021 -11.279005,-3.83833 -7.14169,-3.24618 -13.699818,-7.68393 -18.973259,-12.8388 -2.054073,-2.00788 -2.362248,-2.21377 -2.362985,-1.57869 -6.1e-4,0.40167 1.164478,11.29133 2.588747,24.19925 1.872696,16.97188 2.727479,23.73849 3.087676,24.44264 1.85059,3.61776 13.676272,8.05425 26.632311,9.99132 6.856095,1.02505 15.717558,1.32127 22.738891,0.76011 z m 3.428401,-37.57848 c 0.43789,-0.52761 0.42973,-7.20984 -0.009,-7.73901 -0.46666,-0.56229 -21.971361,-0.57273 -22.436041,-0.0104 -0.429845,0.51973 -0.44565,7.23651 -0.0182,7.75152 0.489954,0.59036 21.973691,0.58882 22.463711,-0.001 z m -25.110719,-7.40718 c 0.129895,-0.8662 0.490484,-1.68889 0.935132,-2.13354 l 0.723701,-0.72371 h 12.219367 12.219369 l 0.7237,0.72371 c 0.44465,0.44465 0.80524,1.26734 0.93513,2.13354 0.15276,1.01872 0.34978,1.40874 0.71019,1.40591 1.16578,-0.009 9.01764,-2.90362 12.43474,-4.58384 4.19313,-2.06181 9.36468,-5.41339 12.88998,-8.35374 3.06429,-2.55583 8.49828,-8.24456 9.02321,-9.4462 0.22317,-0.51086 1.38208,-8.88389 2.57537,-18.60674 1.1933,-9.72284 2.25058,-18.21349 2.34951,-18.8681 l 0.17988,-1.19021 -1.99539,1.69275 c -7.52131,6.38053 -21.4467,11.05194 -38.48247,12.90934 -6.655136,0.7256 -20.428173,0.73477 -26.896527,0.0179 -14.437239,-1.60006 -25.754638,-4.82097 -34.106506,-9.70666 -1.365691,-0.79891 -2.914488,-1.81557 -3.441767,-2.25924 -0.527278,-0.44368 -1.021311,-0.74406 -1.097848,-0.66754 -0.07649,0.0765 0.810167,8.66409 1.970452,19.08344 1.820661,16.34962 2.192977,19.06137 2.718343,19.79919 1.104334,1.5509 7.161033,7.19307 9.953689,9.27248 3.357375,2.49987 8.168451,5.38815 11.689785,7.01785 2.723389,1.26039 10.178726,3.88242 11.058772,3.88934 0.360404,0.002 0.557425,-0.38718 0.710188,-1.4059 z M 37.17213,152.48336 35.189651,134.73529 33.96678,132.94379 c -0.672576,-0.98532 -1.531494,-2.77106 -1.908729,-3.96831 l -0.685858,-2.17681 h -2.649064 c -3.217134,0 -3.142233,-0.12294 -2.852283,4.68144 0.469484,7.7789 1.908257,15.26287 4.337998,22.56461 2.171816,6.52661 8.628524,18.83029 8.861762,16.88667 0.04619,-0.38498 -0.808116,-8.6866 -1.898476,-18.44803 z m 109.26593,9.82349 c 4.45094,-9.14274 7.09352,-19.62772 7.76941,-30.82674 0.29037,-4.81124 0.37047,-4.68144 -2.88961,-4.68144 h -2.6864 l -0.35696,1.41759 c -0.19632,0.77969 -0.56438,1.81872 -0.81789,2.30897 -0.29387,0.56829 -1.28099,7.48394 -2.72336,19.07962 -1.24432,10.00354 -2.33637,18.66829 -2.42678,19.25501 -0.16196,1.0512 -0.14816,1.04229 0.94495,-0.60957 0.61013,-0.922 2.04412,-3.59655 3.18664,-5.94344 z m -41.46413,-14.91608 c 8.23981,-1.0373 15.07925,-2.5458 21.35628,-4.71035 3.30064,-1.13817 8.81806,-3.56826 8.81806,-3.88381 0,-0.54434 -1.10259,-2.05345 -2.16425,-2.96219 -8.79731,-7.53017 -37.937153,-11.1884 -62.21452,-7.81044 -10.769927,1.49852 -19.769834,4.46759 -23.675199,7.81044 -1.061665,0.90874 -2.164259,2.41785 -2.164259,2.96219 0,0.31555 5.517429,2.74564 8.818069,3.88381 6.705844,2.31242 15.183552,4.09892 22.880226,4.82154 1.927806,0.181 3.98515,0.38388 4.57187,0.45085 2.673682,0.30518 20.170773,-0.10852 23.773723,-0.56204 z M 43.230718,136.59641 c 1.198749,-2.31812 5.835049,-5.40642 10.750712,-7.16119 13.188552,-4.70796 35.520372,-6.35107 54.19282,-3.98735 8.92475,1.12978 17.55175,3.42314 22.4795,5.97583 2.3841,1.23501 5.6509,4.03322 6.49482,5.56317 0.31054,0.56298 0.37988,0.5487 1.67636,-0.34538 1.85174,-1.27701 4.42917,-3.89286 5.64403,-5.72815 2.73076,-4.12535 2.05151,-8.98792 -1.84313,-13.1946 -8.72162,-9.42039 -31.5355,-15.51376 -55.786973,-14.90014 -15.912978,0.40262 -29.712452,3.29585 -40.085388,8.40436 -4.040929,1.9901 -6.192459,3.46544 -8.75948,6.00653 -3.017313,2.98685 -3.884042,4.85015 -3.884042,8.35001 0,3.37286 0.855382,5.20952 3.737074,8.02418 2.049558,2.00188 4.295007,3.83815 4.713056,3.8542 0.121429,0.005 0.42321,-0.383 0.670641,-0.86147 z"
       id="path330"
       inkscape:connector-curvature="0" />
  </g>
</svg>
