<?xml version="1.0" encoding="UTF-8" standalone="no"?>
<!-- Created with Inkscape (http://www.inkscape.org/) -->

<svg
   xmlns:dc="http://purl.org/dc/elements/1.1/"
   xmlns:cc="http://creativecommons.org/ns#"
   xmlns:rdf="http://www.w3.org/1999/02/22-rdf-syntax-ns#"
   xmlns:svg="http://www.w3.org/2000/svg"
   xmlns="http://www.w3.org/2000/svg"
   xmlns:sodipodi="http://sodipodi.sourceforge.net/DTD/sodipodi-0.dtd"
   xmlns:inkscape="http://www.inkscape.org/namespaces/inkscape"
   width="210mm"
   height="297mm"
   viewBox="0 0 210 297"
   version="1.1"
   id="svg5675"
   inkscape:version="0.92.5 (2060ec1f9f, 2020-04-08)"
   sodipodi:docname="Messbecher.svg">
  <defs
     id="defs5669" />
  <sodipodi:namedview
     id="base"
     pagecolor="#ffffff"
     bordercolor="#666666"
     borderopacity="1.0"
     inkscape:pageopacity="0.0"
     inkscape:pageshadow="2"
     inkscape:zoom="0.35"
     inkscape:cx="400"
     inkscape:cy="560"
     inkscape:document-units="mm"
     inkscape:current-layer="layer1"
     showgrid="false"
     inkscape:window-width="1868"
     inkscape:window-height="904"
     inkscape:window-x="52"
     inkscape:window-y="34"
     inkscape:window-maximized="1" />
  <metadata
     id="metadata5672">
    <rdf:RDF>
      <cc:Work
         rdf:about="">
        <dc:format>image/svg+xml</dc:format>
        <dc:type
           rdf:resource="http://purl.org/dc/dcmitype/StillImage" />
        <dc:title></dc:title>
      </cc:Work>
    </rdf:RDF>
  </metadata>
  <g
     inkscape:label="Ebene 1"
     inkscape:groupmode="layer"
     id="layer1">
    <path
       style="fill:#000000;stroke-width:0.35277778"
       d="m 81.466475,251.77484 c -3.5968,-0.70828 -4.70486,-1.0069 -6.61249,-1.78204 -4.49935,-1.82825 -9.25591,-5.60727 -11.90617,-9.45929 -1.50724,-2.1907 -3.38382,-6.30569 -4.13096,-9.05839 -0.55649,-2.05027 -0.62187,-6.61064 -0.79638,-55.54514 L 57.830365,122.6185 44.248415,108.23477 C 36.77835,100.32372 30.395317,93.357633 30.063901,92.754583 c -1.314142,-2.39123 -0.284542,-5.65483 2.180768,-6.91254 1.380088,-0.70407 1.947563,-0.7103 64.646946,-0.7103 h 63.254625 l 1.11167,-2.38607 c 3.2133,-6.89698 10.03788,-11.3475 17.4306,-11.36705 2.67758,-0.007 7.02413,1.15491 9.44125,2.52398 2.62478,1.48669 5.95276,4.90175 7.33847,7.53048 2.36392,4.48441 2.23865,2.03651 2.23719,43.714767 -0.001,37.25489 -0.011,37.78735 -0.71284,38.93842 -0.7191,1.17947 -3.06165,2.52164 -4.40112,2.52164 -1.33947,0 -3.68201,-1.34217 -4.40111,-2.52164 -0.70117,-1.15004 -0.71155,-1.68891 -0.71284,-37.01294 -7.1e-4,-19.71524 -0.10289,-36.586897 -0.22702,-37.492567 -0.12414,-0.90566 -0.71945,-2.46993 -1.32292,-3.47615 -2.73991,-4.56848 -8.73464,-5.48218 -12.75426,-1.94397 -3.10548,2.73356 -2.78319,-5.26665 -2.99524,74.348867 -0.20969,78.72751 0.0107,72.13657 -2.60122,77.78972 -1.55653,3.36893 -3.0216,5.46641 -5.57263,7.97813 -3.8398,3.78065 -9.16615,6.49296 -14.42692,7.34655 -2.1288,0.34541 -64.401265,0.48758 -66.110825,0.15093 z m 65.983505,-10.91006 c 5.74491,-1.49597 10.37096,-6.42874 11.63843,-12.41008 0.42901,-2.02455 0.50701,-12.31347 0.51221,-67.56394 l 0.006,-65.175687 H 103.28081 46.954885 l 2.26964,2.38125 c 11.04482,11.587967 18.233,19.372697 18.7482,20.304117 0.58023,1.049 0.61773,4.32009 0.62348,54.39107 0.007,57.80506 -0.0559,55.8742 1.93663,59.80623 1.90276,3.75489 5.81163,6.99554 9.82267,8.14345 1.99446,0.5708 4.70103,0.62286 33.580595,0.64597 27.30613,0.0218 31.68608,-0.0464 33.51388,-0.52238 z m -6.80827,-18.14781 c -2.03474,-1.24059 -2.5516,-2.54437 -2.55309,-6.4401 l -0.001,-3.43958 -19.49097,-0.001 c -19.244785,-0.001 -19.506485,-0.0108 -20.719455,-0.75021 -1.5521,-0.94617 -2.0156,-1.55297 -2.49775,-3.26994 -0.5228,-1.86175 0.32656,-4.1033 2.05427,-5.4214 l 1.26365,-0.96407 19.704255,-0.0995 19.70425,-0.0995 -0.0973,-5.36853 -0.0973,-5.36844 -9.05912,-0.17639 c -8.45439,-0.16462 -9.12554,-0.22516 -10.05416,-0.90702 -3.01913,-2.21685 -2.8418,-6.36897 0.37465,-8.77257 0.91326,-0.68247 1.52748,-0.73416 9.95324,-0.83764 l 8.97992,-0.11027 -0.0973,-5.35778 -0.0973,-5.35778 -9.05912,-0.17639 c -8.45439,-0.16461 -9.12554,-0.22516 -10.05416,-0.90702 -3.12492,-2.29452 -2.80453,-6.77176 0.62932,-8.79437 1.09435,-0.64459 1.95304,-0.71552 9.93814,-0.82098 l 8.74029,-0.11542 -0.0972,-5.35263 -0.0972,-5.35263 -19.77139,-0.17639 c -18.09688,-0.16145 -19.851595,-0.22896 -20.718345,-0.79707 -2.80451,-1.83822 -2.80451,-6.7982 0,-8.63641 0.86675,-0.56812 2.621465,-0.63563 20.718345,-0.79708 l 19.77139,-0.17639 0.17639,-3.52777 c 0.18495,-3.69912 0.41467,-4.39743 1.90517,-5.79159 1.34251,-1.25573 4.30788,-1.44779 6.01961,-0.38989 2.68468,1.65923 2.48216,-2.20342 2.48216,47.34241 v 44.33594 l -0.73799,0.99601 c -1.85932,2.50938 -4.80534,3.28779 -7.11454,1.87985 z"
       id="path5858"
       inkscape:connector-curvature="0" />
  </g>
</svg>
