<?xml version="1.0" encoding="UTF-8" standalone="no"?>
<!-- Created with Inkscape (http://www.inkscape.org/) -->

<svg
   xmlns:dc="http://purl.org/dc/elements/1.1/"
   xmlns:cc="http://creativecommons.org/ns#"
   xmlns:rdf="http://www.w3.org/1999/02/22-rdf-syntax-ns#"
   xmlns:svg="http://www.w3.org/2000/svg"
   xmlns="http://www.w3.org/2000/svg"
   xmlns:sodipodi="http://sodipodi.sourceforge.net/DTD/sodipodi-0.dtd"
   xmlns:inkscape="http://www.inkscape.org/namespaces/inkscape"
   width="210mm"
   height="297mm"
   viewBox="0 0 210 297"
   version="1.1"
   id="svg357"
   inkscape:version="0.92.5 (2060ec1f9f, 2020-04-08)"
   sodipodi:docname="schwimmbad.svg">
  <defs
     id="defs351" />
  <sodipodi:namedview
     id="base"
     pagecolor="#ffffff"
     bordercolor="#666666"
     borderopacity="1.0"
     inkscape:pageopacity="0.0"
     inkscape:pageshadow="2"
     inkscape:zoom="0.35"
     inkscape:cx="400"
     inkscape:cy="560"
     inkscape:document-units="mm"
     inkscape:current-layer="layer1"
     showgrid="false"
     inkscape:window-width="1868"
     inkscape:window-height="1009"
     inkscape:window-x="52"
     inkscape:window-y="34"
     inkscape:window-maximized="1" />
  <metadata
     id="metadata354">
    <rdf:RDF>
      <cc:Work
         rdf:about="">
        <dc:format>image/svg+xml</dc:format>
        <dc:type
           rdf:resource="http://purl.org/dc/dcmitype/StillImage" />
        <dc:title></dc:title>
      </cc:Work>
    </rdf:RDF>
  </metadata>
  <g
     inkscape:label="Ebene 1"
     inkscape:groupmode="layer"
     id="layer1">
    <path
       style="fill:#000000;stroke-width:0.25400001"
       d="m 37.480414,251.58554 c -2.25767,-0.50949 -3.8928,-1.48587 -6.4833,-3.87137 -2.59672,-2.39123 -3.74068,-3.02574 -6.01623,-3.33694 -1.20603,-0.16493 -1.743,-0.36925 -2.08704,-0.79412 -0.68471,-0.84558 -0.59852,-2.18157 0.19172,-2.9718 0.61783,-0.61784 0.76846,-0.64837 2.65925,-0.53891 2.76788,0.16023 4.96741,1.26809 7.86322,3.96055 2.95109,2.74387 3.90277,3.21659 6.47559,3.21659 2.54933,0 3.27238,-0.36046 6.3234,-3.15246 3.77257,-3.45229 5.59578,-4.2006 9.82563,-4.0328 3.23351,0.12827 4.85777,0.91023 8.10287,3.90091 3.13443,2.88869 3.90135,3.2775 6.4821,3.28625 2.59317,0.009 3.27696,-0.32655 6.29779,-3.08863 1.55232,-1.41934 2.97407,-2.45362 4.23004,-3.0772 1.8673,-0.9271 1.93168,-0.93928 4.96617,-0.93928 3.03449,0 3.09887,0.0122 4.96617,0.93928 1.25597,0.62358 2.67772,1.65786 4.23004,3.0772 3.00939,2.75161 3.70086,3.09071 6.297786,3.08848 2.56521,-0.002 3.2583,-0.35414 6.47518,-3.2879 1.50004,-1.36803 3.03574,-2.5047 4.064,-3.00802 1.58958,-0.77808 1.77429,-0.80904 4.82782,-0.80904 3.06727,0 3.23231,0.028 4.86411,0.82636 1.07334,0.52511 2.55487,1.62001 4.064,3.00345 3.185,2.91972 3.87943,3.27294 6.43889,3.27515 2.59693,0.002 3.2884,-0.33687 6.29779,-3.08848 1.55232,-1.41934 2.97407,-2.45362 4.23004,-3.0772 1.8673,-0.9271 1.93168,-0.93928 4.96617,-0.93928 3.03449,0 3.09887,0.0122 4.96617,0.93928 1.25597,0.62358 2.67772,1.65786 4.23004,3.0772 3.00939,2.75161 3.70086,3.09071 6.29779,3.08848 2.53965,-0.002 3.24703,-0.35413 6.34893,-3.15885 3.83484,-3.46742 5.66657,-4.21679 9.81858,-4.01686 3.22049,0.15508 4.80241,0.90211 7.96249,3.76012 3.00995,2.72224 4.05655,3.32295 6.07129,3.48467 2.35888,0.18935 3.83267,-0.38336 5.9344,-2.30611 4.222,-3.86246 5.86597,-4.76407 9.01945,-4.94663 1.80821,-0.10467 2.04078,-0.0627 2.60853,0.47067 0.44482,0.41789 0.62333,0.8558 0.62333,1.52917 0,1.46707 -0.64234,2.04884 -2.55026,2.30976 -2.27286,0.31084 -3.32739,0.89995 -6.04153,3.37507 -2.72909,2.48877 -4.69467,3.55821 -7.27475,3.9581 -3.79715,0.58853 -7.13393,-0.65973 -10.86711,-4.0653 -2.98291,-2.72114 -3.87132,-3.16899 -6.28635,-3.16899 -2.37952,0 -3.43303,0.51077 -5.94608,2.88284 -0.99051,0.93494 -2.34578,2.07312 -3.01172,2.52929 -3.3063,2.26485 -7.84326,2.57854 -11.51316,0.79605 -0.94525,-0.45912 -2.47815,-1.60987 -3.937,-2.95553 -2.90502,-2.67961 -4.03201,-3.24842 -6.45304,-3.25693 -2.34549,-0.008 -3.40712,0.53335 -6.477,3.30425 -2.76733,2.49782 -4.67903,3.53888 -7.22214,3.93298 -3.88255,0.60167 -7.03098,-0.57697 -10.87551,-4.07134 -2.96724,-2.69699 -3.86566,-3.1467 -6.28635,-3.1467 -2.38717,0 -3.38706,0.48399 -5.99443,2.90157 -3.27675,3.03825 -5.18216,4.06463 -8.22957,4.43301 -3.540836,0.42802 -6.645616,-0.81766 -10.204206,-4.09405 -2.91599,-2.68475 -4.03401,-3.25129 -6.43279,-3.25972 -2.34859,-0.008 -3.47087,0.55966 -6.43512,3.2564 -2.76452,2.51504 -4.22298,3.35915 -6.70286,3.87942 -4.17948,0.87684 -7.65837,-0.3629 -11.6381,-4.14737 -2.52738,-2.40338 -3.68623,-2.96883 -6.08492,-2.96907 -2.38614,-2.4e-4 -3.33848,0.4617 -6.03404,2.92687 -1.08183,0.98936 -2.45467,2.13651 -3.05076,2.54921 -2.3295,1.61282 -5.9708,2.27599 -8.88541,1.61825 z m -1.16451,-21.22113 c -1.988,-0.70505 -2.96278,-1.35802 -5.43134,-3.63828 -2.36717,-2.18661 -3.60693,-2.90971 -5.34163,-3.11557 -2.43032,-0.28841 -3.11231,-0.82599 -3.11231,-2.45325 0,-0.96634 0.73764,-1.82781 1.78813,-2.08829 1.04442,-0.25898 3.80739,0.31002 5.45002,1.12235 0.88354,0.43695 2.53969,1.68354 3.93785,2.96405 2.94156,2.69404 4.05562,3.25022 6.477,3.23358 2.36109,-0.0162 3.12329,-0.39595 5.98382,-2.98119 4.0749,-3.68275 7.26437,-4.89484 11.17903,-4.24835 2.51917,0.41604 4.37983,1.44865 7.26553,4.03217 3.08915,2.76567 3.96019,3.21002 6.30562,3.21676 2.37839,0.007 3.59489,-0.61035 6.52414,-3.30995 2.67532,-2.46557 4.59331,-3.51014 7.2225,-3.93348 3.89768,-0.62759 7.02966,0.53393 10.78832,4.00094 2.89749,2.67267 4.02392,3.23674 6.453036,3.23143 2.29596,-0.005 3.46863,-0.57683 5.969,-2.91054 3.68451,-3.43892 5.66482,-4.36081 9.398,-4.37503 3.80282,-0.0145 5.59275,0.81137 9.398,4.3361 2.64007,2.44545 3.7028,2.95942 6.096,2.94827 2.43698,-0.0113 3.21302,-0.40919 6.35,-3.25534 3.84229,-3.48607 6.87271,-4.60217 10.78561,-3.97232 2.63111,0.42353 4.52847,1.46646 7.27235,3.99743 2.88893,2.66477 4.02163,3.23353 6.45304,3.24019 2.26186,0.006 3.5293,-0.64891 6.35,-3.28219 5.94015,-5.54546 12.12033,-5.51616 18.161,0.0861 2.83943,2.63336 3.92372,3.18925 6.223,3.19036 2.42991,0.001 3.55851,-0.56452 6.45304,-3.23447 2.70783,-2.49772 4.67017,-3.59712 7.12667,-3.99273 1.87918,-0.30263 2.69298,-0.16569 3.50179,0.58927 0.56788,0.53007 0.75506,1.703 0.41372,2.59251 -0.23084,0.60156 -1.45341,1.15402 -2.56011,1.15686 -1.55133,0.004 -3.41521,1.06361 -5.83159,3.31527 -3.08898,2.8784 -5.14567,3.86353 -8.35947,4.0041 -4.03383,0.17642 -6.03332,-0.6711 -9.84497,-4.173 -2.78436,-2.55809 -4.26537,-3.24866 -6.64708,-3.09945 -2.0836,0.13054 -3.37604,0.83701 -6.18627,3.38153 -1.45367,1.31623 -3.02946,2.47316 -4.05866,2.97983 -1.61761,0.79635 -1.80046,0.82824 -4.7489,0.82824 -3.02547,0 -3.09184,-0.0126 -4.95834,-0.93928 -1.25597,-0.62358 -2.67772,-1.65785 -4.23004,-3.0772 -3.02083,-2.76207 -3.70462,-3.09742 -6.29779,-3.08862 -2.52247,0.009 -3.53068,0.48795 -6.07308,2.88772 -3.48263,3.28725 -5.73098,4.34438 -9.23981,4.34438 -3.66055,0 -5.68698,-0.90923 -9.15609,-4.10823 -3.02641,-2.79077 -3.70729,-3.12393 -6.39202,-3.12772 -2.62451,-0.004 -3.40938,0.38744 -6.51359,3.24606 -3.38176,3.11422 -5.34347,3.98118 -9.02128,3.98688 -3.540536,0.005 -5.742226,-1.02751 -9.253046,-4.34137 -2.55282,-2.40961 -3.55351,-2.8854 -6.07308,-2.88757 -2.58245,-0.002 -3.19103,0.296 -6.25066,3.06308 -1.55678,1.40792 -3.04278,2.48458 -4.27803,3.09957 -1.86902,0.93052 -1.93095,0.94229 -4.953,0.94113 -2.93247,-0.001 -3.13054,-0.0355 -4.74147,-0.82256 -1.02619,-0.50138 -2.56002,-1.62041 -3.937,-2.8723 -3.35738,-3.05238 -4.0706,-3.41597 -6.70084,-3.41597 -2.55783,0 -3.42741,0.41574 -6.096,2.91444 -3.57599,3.34834 -5.14789,4.09781 -8.89,4.23871 -2.22363,0.0837 -2.91333,0.0131 -4.14872,-0.42507 z m 0.59272,-20.72428 c -1.91285,-0.51178 -3.61101,-1.59216 -6.19099,-3.93874 -2.61736,-2.38058 -3.30674,-2.76467 -5.43616,-3.02876 -2.03587,-0.25248 -2.85085,-0.90811 -2.85085,-2.29343 0,-1.34055 0.65657,-2.03775 2.06889,-2.19694 2.80954,-0.31668 5.59988,0.91296 8.90937,3.92616 2.95685,2.69213 4.28067,3.36108 6.65805,3.36443 2.33105,0.003 3.35425,-0.51505 6.27772,-3.18021 1.28168,-1.16843 2.96902,-2.46327 3.74965,-2.87742 2.74836,-1.45809 6.47302,-1.67232 9.48467,-0.54552 1.55858,0.58315 3.15426,1.72868 5.71934,4.1059 2.11415,1.95933 2.85366,2.30898 5.17463,2.44668 1.68685,0.10008 2.11969,0.0316 3.302,-0.52238 0.74837,-0.35066 2.30799,-1.50894 3.4658,-2.57396 2.35245,-2.16388 3.43056,-2.90538 5.19738,-3.57462 l 1.2065,-0.457 v -23.8415 -23.84149 h -29.98413 -29.98413 l -0.62287,-0.67209 c -0.86501,-0.93336 -0.85063,-2.32737 0.0326,-3.15713 l 0.65543,-0.61578 29.95157,-0.0666 29.95158,-0.0666 v -4.91665 c 0,-6.99509 0.74851,-10.75876 3.07571,-15.4653 2.63945,-5.33804 7.16851,-10.01946 12.44709,-12.86582 8.056346,-4.34421 18.005256,-4.59774 26.296566,-0.67011 2.75404,1.3046 4.06789,2.16415 6.82923,4.46781 l 2.0396,1.70155 1.5164,-1.36756 c 3.89678,-3.51428 8.83596,-5.99074 14.1412,-7.09026 2.91683,-0.60451 8.26975,-0.60434 11.1242,2.6e-4 12.81915,2.71569 22.00816,12.65545 23.6086,25.53748 0.14707,1.18389 0.2674,4.0669 0.2674,6.40681 v 4.25437 l 12.80671,0.0703 12.80671,0.0703 0.65529,0.61578 c 1.01103,0.95006 0.84627,2.92721 -0.29015,3.48184 -0.24836,0.12121 -16.16781,0.27753 -35.37656,0.34738 l -34.925,0.127 -0.0655,24.638 c -0.036,13.5509 -0.0115,24.77973 0.0546,24.95295 0.0837,0.21952 0.44982,0.0971 1.20849,-0.40399 2.56002,-1.69092 6.01197,-2.24462 9.08319,-1.45696 2.20915,0.56657 3.47502,1.35302 6.07284,3.77285 2.74558,2.55748 4.1025,3.23028 6.50642,3.22609 2.26645,-0.004 3.3688,-0.49788 5.48122,-2.45603 3.83321,-3.55326 5.7462,-4.58003 8.99678,-4.82886 3.72368,-0.28505 6.44556,0.8388 10.00155,4.1296 2.77955,2.57227 3.96694,3.16435 6.33901,3.16087 2.31551,-0.003 3.68388,-0.70046 6.57921,-3.35155 2.62212,-2.40092 4.44653,-3.42379 6.80326,-3.81432 2.88764,-0.47849 4.18597,0.17303 4.18597,2.10059 0,1.35443 -0.83084,2.01455 -2.85085,2.26506 -2.13906,0.26528 -2.82297,0.64945 -5.46994,3.07258 -1.22111,1.11786 -2.79803,2.36734 -3.50426,2.77664 -3.29993,1.91249 -7.54099,2.00894 -11.03495,0.25095 -0.76835,-0.3866 -2.4342,-1.65816 -3.70189,-2.82569 -2.94626,-2.71348 -4.03287,-3.26578 -6.4252,-3.26578 -2.43127,0 -3.5095,0.54043 -6.4083,3.21197 -2.42946,2.23898 -4.047,3.23291 -6.19761,3.80825 -2.47299,0.66158 -5.87752,0.28868 -8.20496,-0.89869 -0.52276,-0.26669 -2.14724,-1.54255 -3.60995,-2.83525 -3.20404,-2.83162 -4.08059,-3.27512 -6.47309,-3.27512 -2.3636,0 -3.3484,0.48074 -6.08665,2.97128 -3.61852,3.29117 -5.96992,4.38728 -9.39722,4.38055 -3.29292,-0.006 -5.62229,-1.09041 -9.05565,-4.21394 -3.06609,-2.78939 -4.041,-3.23913 -6.71706,-3.09867 -2.46832,0.12956 -2.9777,0.40225 -6.12977,3.28149 -2.98482,2.72647 -5.03236,3.74257 -7.95416,3.94726 -3.986626,0.27928 -6.346706,-0.70573 -10.294836,-4.29669 -2.73825,-2.49054 -3.72305,-2.97128 -6.08665,-2.97128 -2.37024,0 -3.44751,0.52242 -6.11476,2.96535 -3.88981,3.56267 -6.26168,4.5672 -10.20496,4.322 -2.99077,-0.18598 -5.05647,-1.21607 -8.13662,-4.05747 -3.08477,-2.84568 -3.64766,-3.11404 -6.53166,-3.11404 -2.72525,0 -3.08592,0.17915 -6.33409,3.14617 -2.35863,2.15449 -4.06176,3.20278 -6.07386,3.73852 -1.67551,0.44612 -4.22587,0.42367 -6.00705,-0.0529 z m 67.690996,-4.64028 c 0.5588,-0.25539 2.10185,-1.45747 3.429,-2.67131 3.63192,-3.32181 6.31537,-4.43075 10.033,-4.14616 2.35443,0.18023 4.3755,0.97227 6.35765,2.49151 0.89371,0.68499 1.68819,1.24544 1.7655,1.24544 0.0773,0 0.11004,-2.88607 0.0727,-6.4135 l -0.0679,-6.4135 -14.0335,-0.0657 -14.033496,-0.0657 v 7.84899 7.84898 l 0.9525,0.39508 c 1.346356,0.55844 4.246196,0.52997 5.524496,-0.0542 z m 30.60186,0.0669 1.02114,-0.40858 v -34.11881 c 0,-37.11619 -0.0479,-35.78969 1.41993,-39.29424 1.00521,-2.39995 2.70427,-4.78761 4.77778,-6.71416 2.30661,-2.14311 4.07121,-3.21569 6.94394,-4.22074 1.9075,-0.66735 2.68189,-0.79425 5.42176,-0.88844 2.66855,-0.0917 3.54792,-0.021 5.32495,0.42837 2.81174,0.71103 5.04638,1.78163 7.27085,3.4834 2.40658,1.8411 4.184,4.03457 5.53512,6.83078 1.6693,3.4547 1.93584,4.81899 2.09658,10.7315 l 0.13984,5.1435 h 2.65979 2.6598 l -0.11773,-5.7785 c -0.0989,-4.85436 -0.20486,-6.10347 -0.66251,-7.8105 -0.6873,-2.56363 -2.6587,-6.64381 -4.18591,-8.66355 -6.61206,-8.74441 -18.16103,-12.18979 -28.41879,-8.4781 -7.61173,2.75425 -13.41992,9.1401 -15.63802,17.19334 l -0.68536,2.48831 -0.072,34.91422 c -0.0396,19.20282 -0.0153,35.06195 0.054,35.2425 0.18322,0.47746 3.19656,0.42314 4.45478,-0.0803 z M 93.550624,168.9326 c 0,-34.37371 -0.0192,-33.88099 1.467,-37.5213 2.20075,-5.3903 6.715546,-9.52691 12.375996,-11.33933 2.28298,-0.73098 7.10874,-0.89433 9.6818,-0.32773 3.7923,0.8351 7.64893,3.04259 10.20864,5.84331 l 1.30054,1.423 0.80198,-1.58871 c 0.44108,-0.87379 1.08371,-2.03501 1.42805,-2.58047 l 0.62607,-0.99177 -1.33238,-1.2509 c -3.06605,-2.87855 -7.10367,-5.05001 -11.5387,-6.20556 -2.681,-0.69854 -8.92245,-0.64009 -11.684,0.10942 -2.48574,0.67465 -6.30029,2.4812 -8.367816,3.96295 -4.44281,3.18406 -7.9952,8.2765 -9.58364,13.73841 l -0.58875,2.02441 -0.0691,32.03428 -0.0691,32.03428 0.95724,0.16349 c 0.52648,0.0899 1.64304,0.54878 2.48124,1.01967 0.8382,0.4709 1.60972,0.86947 1.7145,0.88573 0.10478,0.0163 0.1905,-14.12867 0.1905,-31.43318 z m 32.638996,11.52373 v -4.064 l -14.0335,-0.0657 -14.033496,-0.0657 v 4.1953 4.1953 l 14.033496,-0.0657 14.0335,-0.0657 z m 0.0698,-12.8905 -0.0698,-4.1275 -14.0335,-0.0723 -14.033496,-0.0723 v 4.19982 4.19982 h 14.103286 14.10329 z m -0.0698,-12.7635 v -4.064 l -14.0335,-0.0657 -14.033496,-0.0657 v 4.1953 4.1953 l 14.033496,-0.0657 14.0335,-0.0657 z m 0.13806,-14.1605 c 0.006,-2.96862 0.11097,-5.91185 0.23309,-6.5405 0.19832,-1.02098 0.13721,-1.30569 -0.57246,-2.667 -1.17312,-2.25033 -3.98721,-4.94237 -6.35889,-6.08311 -2.5781,-1.24001 -5.09142,-1.75509 -7.59132,-1.55575 -5.21617,0.41593 -9.84753,3.45391 -12.257756,8.04058 -1.3622,2.59228 -1.64966,4.25518 -1.65397,9.56778 l -0.004,4.6355 h 14.096996 14.097 l 0.0111,-5.3975 z m 44.18053,1.016 c -0.005,-4.96972 -0.32222,-6.95264 -1.51059,-9.44265 -2.87894,-6.03227 -9.83887,-9.53032 -16.265,-8.17477 -5.96364,1.258 -10.69722,6.03582 -11.81434,11.92477 -0.23498,1.2387 -0.37766,3.51778 -0.37766,6.0325 v 4.04165 h 14.986 14.986 l -0.004,-4.3815 z"
       id="path424"
       inkscape:connector-curvature="0" />
  </g>
</svg>
